<svg width="112" height="105" viewBox="0 0 112 105" fill="none" xmlns="http://www.w3.org/2000/svg">
<g clip-path="url(#clip0_1509_8436)">
<path d="M112 18.3577C110.071 21.8655 108.201 25.4025 106.214 28.8811C102.357 35.6629 98.4418 42.4154 94.4971 49.1386C93.6205 50.6294 93.1238 52.1495 93.2407 53.9034C93.3283 54.9557 93.2407 55.9788 93.2407 57.0312C93.3868 57.1189 93.5329 57.2066 93.6498 57.2943C94.4971 56.3296 95.2861 55.2773 96.2503 54.4003C99.4061 51.5356 104.344 52.851 105.513 56.885C106.097 58.9312 105.718 60.8313 104.198 62.3513C100.166 66.4438 96.075 70.5362 91.9842 74.5701C90.5817 75.9733 88.77 76.5287 86.8123 76.5287C82.517 76.5287 78.2216 76.5287 73.8971 76.5287C73.488 76.5287 73.1081 76.5287 72.5237 76.5287C72.5237 77.0256 72.5237 77.4348 72.5237 77.8733C72.5237 85.2981 72.5237 92.7522 72.5237 100.177C72.5237 103.597 71.1504 104.971 67.7609 104.971C59.8423 104.971 51.9529 104.971 44.0343 104.971C40.8786 104.971 39.4468 103.509 39.4176 100.352C39.4176 96.9908 39.4176 93.6292 39.4176 90.2968C39.4176 89.8583 39.4176 89.4198 39.5344 89.0106C39.7682 88.1921 40.3818 87.8413 41.2 87.8998C41.9889 87.9582 42.4857 88.3675 42.6318 89.1567C42.6902 89.5367 42.6902 89.946 42.6902 90.3552C42.6902 93.7169 42.7194 97.0785 42.6902 100.411C42.6902 101.405 43.0116 101.726 44.0343 101.726C51.9529 101.697 59.8423 101.697 67.7609 101.697C69.2219 101.697 69.2511 101.668 69.2511 100.236C69.2511 92.5476 69.2511 84.8597 69.2511 77.1425C69.2511 76.821 69.2511 76.4994 69.2511 76.1486C69.3096 74.2778 70.3323 73.2547 72.2023 73.2255C74.1893 73.1963 76.2055 73.2255 78.3093 73.2255C78.3093 71.647 78.3093 70.1269 78.3093 68.4607C77.9587 68.4607 77.608 68.4607 77.2574 68.4607C72.553 68.4607 67.8486 68.4607 63.1441 68.49C62.6182 68.49 62.063 68.6361 61.5955 68.87C57.8553 70.8285 54.1444 70.8577 50.4043 68.87C50.0244 68.6654 49.5861 68.49 49.2062 68.4607C44.2096 68.4315 39.213 68.4315 34.2164 68.4607C34.0411 68.4607 33.8658 68.5192 33.632 68.5484C33.632 70.0685 33.632 71.5593 33.632 73.167C34.0411 73.1963 34.421 73.2255 34.8008 73.2255C36.554 73.2255 38.3072 73.1963 40.0604 73.2547C41.5798 73.284 42.6318 74.3071 42.6902 75.7686C42.7486 77.7856 42.7486 79.7734 42.7194 81.7903C42.6902 82.7842 42.0474 83.3981 41.1415 83.3981C40.2357 83.4273 39.5637 82.8427 39.5052 81.8488C39.4176 80.5626 39.476 79.3057 39.476 78.0195C39.476 77.5518 39.476 77.0841 39.476 76.4994C38.9793 76.4994 38.5994 76.4994 38.1903 76.4994C33.9534 76.4994 29.7458 76.4702 25.5089 76.4994C23.1128 76.5287 21.1259 75.7102 19.4311 73.9855C15.6033 70.1269 11.7171 66.3268 7.91848 62.439C4.82117 59.282 6.1945 54.108 10.373 53.0264C12.4476 52.471 14.3469 52.9972 15.9247 54.5172C16.8013 55.3357 17.5903 56.2419 18.5838 57.0312C18.5253 54.6049 19.2558 52.1787 17.9117 49.8402C12.243 40.0768 6.60358 30.2842 0.964134 20.5209C-0.233883 18.4454 -0.379983 16.37 0.905694 14.3238C3.00953 10.9037 7.97692 10.816 10.3145 14.1776C11.308 15.61 12.1261 17.1592 12.9735 18.7085C13.4703 19.6147 13.1781 20.5209 12.3891 20.9886C11.6002 21.427 10.6944 21.1932 10.1392 20.287C9.35025 18.9716 8.61976 17.6269 7.83082 16.3115C7.04188 15.0253 5.58088 14.6161 4.44131 15.3176C3.33095 16.0192 3.00953 17.3639 3.74003 18.6793C6.98344 24.321 10.2561 29.9627 13.5287 35.6336C13.5579 35.6921 13.6164 35.7505 13.7625 35.8675C15.0481 35.1367 16.363 34.3767 17.7948 33.5582C16.6845 31.5997 15.5741 29.6996 14.4637 27.7703C13.6164 26.2795 13.6456 25.3733 14.5806 24.7887C15.5449 24.1748 16.4507 24.6133 17.2981 26.1041C19.4896 29.875 21.6518 33.6751 23.9602 37.6506C24.1063 37.1244 24.2232 36.7736 24.3109 36.4229C24.7492 34.4936 25.655 32.7981 27.0575 31.395C27.6711 30.7812 27.8757 30.1673 27.8465 29.2904C27.6419 25.3441 30.3594 22.0994 34.3041 21.4855C37.9273 20.9009 41.5798 23.2686 42.6025 26.9226C42.8071 27.6242 43.0116 28.3842 42.8947 29.0565C42.6902 30.2258 43.1869 30.8981 43.8882 31.7166C44.6187 32.5058 45.1739 33.4705 45.6706 34.4351C46.1381 35.3705 46.3719 36.3936 46.781 37.5921C47.7452 36.0136 48.6511 34.5813 49.4984 33.0612C49.6153 32.8274 49.3523 32.3304 49.177 32.0089C46.9271 28.0919 44.6479 24.2041 42.4272 20.2578C40.674 17.1885 41.872 13.5053 44.9986 12.1606C47.5699 11.0498 50.6088 12.0145 52.1282 14.5284C53.297 16.4284 54.3489 18.3577 55.4593 20.287C55.6346 20.6086 55.8392 20.9009 56.1021 21.3101C56.3359 20.9301 56.5697 20.667 56.7158 20.3747C57.8261 18.4454 58.9073 16.5161 60.0468 14.6161C61.7416 11.8391 65.1311 10.9037 67.8193 12.4822C70.5076 14.0607 71.3842 17.4515 69.7771 20.287C67.5564 24.1748 65.3064 28.0626 63.0565 31.9212C62.7058 32.5058 62.6766 32.9151 63.0565 33.4997C63.8746 34.7859 64.6051 36.1306 65.4233 37.5921C65.5402 37.2706 65.6571 37.0952 65.6863 36.9198C66.1538 34.6397 67.2349 32.7105 68.842 31.0443C69.105 30.7519 69.3096 30.2258 69.2511 29.8458C68.8128 25.5195 72.1147 21.6317 76.4392 21.4563C80.8222 21.2809 84.4455 24.7595 84.2994 29.115C84.2702 30.1381 84.5039 30.8689 85.2344 31.5997C86.7246 33.1489 87.2798 34.4644 88.1272 37.5921C88.3902 37.1829 88.5947 36.8906 88.7992 36.5398C91.0492 32.652 93.2699 28.7642 95.5198 24.9056C95.6951 24.6133 95.8413 24.3502 96.0166 24.0579C96.6594 23.0056 97.5068 22.7132 98.3834 23.2102C99.2308 23.7071 99.4645 24.6425 98.8801 25.6949C97.5944 27.9749 96.2503 30.255 94.9647 32.5058C94.7893 32.8274 94.614 33.1489 94.3803 33.5582C95.7244 34.3474 97.0685 35.1074 98.471 35.9259C99.5814 33.9966 100.663 32.1551 101.744 30.2842C103.964 26.4257 106.185 22.5963 108.406 18.7377C108.961 17.7439 109.019 16.8084 108.318 15.873C107.734 15.0838 106.857 14.7915 105.981 15.113C105.338 15.3469 104.753 15.873 104.315 16.3992C103.76 17.1008 103.409 17.9777 102.912 18.7377C102.357 19.6147 101.451 19.8485 100.663 19.3808C99.8736 18.9131 99.6398 18.0069 100.107 17.1008C100.546 16.253 101.013 15.4346 101.51 14.6453C102.825 12.5406 104.724 11.4883 107.237 11.8098C109.604 12.1022 111.094 13.5053 111.883 15.7269C111.941 15.9023 112.029 16.0192 112.117 16.1946C112 16.9254 112 17.6269 112 18.3577ZM56.8034 38.7614C57.6216 40.3984 58.4397 41.6553 60.0468 42.5615C62.6766 44.0231 63.7285 46.5662 63.5532 49.6063C63.524 50.074 63.7578 50.6587 64.0792 51.0095C66.709 53.8157 67.8778 57.1189 67.1765 60.919C66.9135 62.3806 66.2707 63.7837 65.8032 65.2453C71.2381 65.2453 76.7022 65.1283 82.1663 65.3037C84.5039 65.3914 86.111 64.7191 87.7765 63.0237C89.4129 61.3574 90.1141 59.7789 90.0557 57.4112C89.9388 49.1679 89.5297 51.3895 93.5037 44.3739C94.5556 42.503 95.6367 40.6907 96.7178 38.7614C95.3153 37.9429 94.0004 37.1829 92.6271 36.3936C92.3056 36.949 92.0427 37.446 91.7505 37.8845C90.3771 39.9307 89.0622 42.0061 87.6012 44.0231C86.9292 44.9585 86.0233 45.7478 85.2636 46.6247C81.1436 51.3602 73.751 51.9449 69.2219 47.6186C66.7674 45.2801 64.2837 42.8831 62.7351 39.726C62.1799 38.6152 61.4786 37.5337 60.8066 36.4229C59.4332 37.2414 58.1475 37.9721 56.8034 38.7614ZM51.3685 36.0136C50.4919 37.5337 49.7906 38.9368 48.9433 40.1938C47.8329 41.8015 46.5472 43.2923 45.3492 44.8416C45.057 45.2216 44.7064 45.5431 44.4142 45.8939C39.7974 52.0326 30.7977 52.0618 26.1517 45.9524C25.8595 45.5724 25.5381 45.2508 25.2459 44.8708C24.1355 43.4969 22.9083 42.1815 21.9148 40.7199C20.9798 39.3753 20.2493 37.9137 19.4019 36.4229C17.9994 37.2414 16.6552 38.0014 15.3111 38.7906C17.1812 42.0353 18.9636 45.1631 20.8045 48.2909C21.6518 49.7525 22.0609 51.3018 22.0609 52.968C22.0317 55.2188 22.0317 57.4989 22.0901 59.7497C22.1194 60.2759 22.3531 60.8605 22.7038 61.2698C23.7557 62.439 24.866 63.5498 26.0348 64.6022C26.4147 64.9529 27.0283 65.216 27.525 65.216C33.5151 65.2453 39.476 65.2453 45.4661 65.2453C45.7583 65.2453 46.0505 65.1868 46.4303 65.1576C46.1966 64.7191 46.0213 64.3975 45.8752 64.076C43.9174 59.8666 44.2681 55.8327 47.0732 52.1495C47.979 50.951 48.5342 49.9279 48.5634 48.3494C48.6218 45.3677 50.2874 43.2631 52.9756 41.9769C53.6185 41.6553 54.3197 41.2753 53.9106 40.4568C53.1509 38.966 52.2743 37.5921 51.3685 36.0136ZM27.3205 37.3583C27.3205 38.5275 27.1744 39.5799 27.3497 40.603C27.9926 44.7539 32.1418 47.794 36.2326 47.1801C40.7325 46.5078 43.8298 42.5615 43.3038 38.206C43.2454 37.6798 43.1285 37.329 42.4564 37.329C37.489 37.3583 32.4924 37.3583 27.3205 37.3583ZM84.6208 37.3583C79.4781 37.3583 74.4815 37.3583 69.4557 37.3583C68.7544 37.3583 68.7252 37.826 68.6959 38.2937C68.4622 41.743 69.7479 44.4616 72.7575 46.157C75.7087 47.8524 78.7184 47.677 81.465 45.6601C84.2117 43.6431 85.2052 40.8661 84.6208 37.3583ZM48.4757 61.7667C49.4984 64.8652 52.4497 66.9699 55.7807 67.0868C59.0241 67.2038 62.1799 65.1576 63.4363 62.1175C64.6636 59.1651 64.0207 55.628 61.8585 53.5818C57.4463 56.3004 52.9756 59.0189 48.4757 61.7667ZM30.2425 68.49C28.986 68.49 27.788 68.4315 26.59 68.5192C25.6258 68.5777 24.9537 68.2269 24.2816 67.5546C20.8337 64.0468 17.3565 60.5974 13.8793 57.1189C12.6813 55.9496 11.1619 55.8619 10.1976 56.8558C9.23338 57.8497 9.32104 59.2528 10.4898 60.422C14.2884 64.2806 18.1162 68.11 22.0025 71.9101C22.5869 72.4947 23.4635 73.0209 24.2524 73.1086C26.2102 73.284 28.2263 73.167 30.2425 73.167C30.2425 71.5885 30.2425 70.0977 30.2425 68.49ZM81.7572 73.2547C83.3936 73.2547 84.913 73.2255 86.4617 73.2547C88.0103 73.3132 89.2668 72.7578 90.3479 71.647C93.8251 68.11 97.3315 64.6314 100.838 61.1236C101.218 60.7436 101.627 60.3636 101.977 59.9543C102.737 58.9897 102.679 57.7035 101.861 56.8558C101.101 56.0665 99.8152 55.9204 98.8509 56.5342C98.5295 56.7388 98.2373 57.0312 97.9451 57.3235C94.6432 60.6267 91.3414 63.9006 88.0687 67.233C87.1921 68.1392 86.2863 68.6361 85.0007 68.5192C83.9487 68.4315 82.8676 68.49 81.728 68.49C81.7572 70.1269 81.7572 71.6177 81.7572 73.2547ZM59.1702 33.5874C59.0534 33.3243 58.9949 33.2074 58.9365 33.0612C55.7515 27.5365 52.5665 22.0117 49.3816 16.5161C49.2062 16.2238 49.0309 15.9607 48.7972 15.7269C47.979 14.9084 46.6641 14.7915 45.7875 15.4053C44.8817 16.0192 44.5311 17.2469 44.9986 18.3285C45.1154 18.5916 45.2615 18.8547 45.4076 19.0885C48.4757 24.4087 51.5731 29.7288 54.6411 35.0782C54.7872 35.3413 54.9918 35.6044 55.1963 35.9259C56.5112 35.1074 57.7969 34.3767 59.1702 33.5874ZM60.6312 29.4365C62.7351 25.7826 64.7805 22.2748 66.7674 18.767C67.5564 17.3931 67.2642 16.0192 66.0954 15.3176C64.8973 14.6161 63.4948 15.0253 62.6766 16.4284C61.1864 18.9716 59.7254 21.5147 58.2644 24.0871C58.1183 24.3502 57.9722 24.7595 58.0891 24.9641C58.878 26.4549 59.7254 27.8872 60.6312 29.4365ZM58.9365 51.5356C54.0567 49.5186 48.3296 53.0264 48.0667 58.1712C51.6899 55.9496 55.2548 53.7865 58.9365 51.5356ZM29.1906 34.0843C31.3236 34.0843 33.3398 34.0843 35.3268 34.0843C37.3137 34.0843 39.2715 34.0843 41.3753 34.0843C38.6578 30.1673 31.6158 30.1673 29.1906 34.0843ZM70.7413 33.9674C74.7737 33.9674 78.7476 33.9674 82.8092 33.9674C80.0625 30.1381 73.0205 30.1673 70.7413 33.9674ZM72.5822 28.5596C75.4165 27.478 78.134 27.5657 80.9099 28.5303C80.6469 26.2503 78.806 24.6718 76.6145 24.701C74.5107 24.7595 72.7575 26.338 72.5822 28.5596ZM31.1191 28.5596C33.9242 27.478 36.6709 27.5949 39.4176 28.5011C39.1254 26.1918 37.3137 24.6425 35.093 24.701C33.0184 24.7887 31.2652 26.4257 31.1191 28.5596ZM60.1345 48.3786C60.0176 46.0693 58.0891 44.52 55.7223 44.5785C53.7938 44.637 51.6315 46.6832 51.9529 48.3494C54.6411 47.414 57.3294 47.3847 60.1345 48.3786Z" fill="#074870"/>
<path d="M54.9618 81.7604C58.9065 81.9358 61.1272 83.4266 61.887 86.2036C62.5882 88.776 61.9162 90.9976 59.8708 92.6931C57.8546 94.33 55.5462 94.5931 53.2379 93.3946C50.8418 92.1669 49.6438 90.0622 49.9068 87.3729C50.3451 82.7835 52.3905 78.9834 55.8384 75.9141C56.5105 75.3295 57.3579 75.0956 58.0007 75.7387C58.4098 76.148 58.5267 76.9372 58.5851 77.5511C58.6143 77.8434 58.1468 78.1942 57.9131 78.4865C56.978 79.5096 56.0722 80.5327 54.9618 81.7604ZM56.0138 90.793C57.5916 90.793 58.8481 89.5068 58.8481 87.9283C58.8481 86.3206 57.5624 85.0344 55.9261 85.0928C54.3482 85.1221 53.121 86.4083 53.1502 87.9868C53.1794 89.5653 54.4651 90.8222 56.0138 90.793Z" fill="#074870"/>
<path d="M31.6448 3.625C32.3752 4.03424 33.1057 4.29733 33.6609 4.79427C34.8297 5.8466 35.9109 6.95741 36.992 8.09744C38.2777 9.41286 38.2777 10.9329 36.992 12.2483C35.9109 13.3884 34.8005 14.4992 33.6609 15.5807C32.3752 16.8085 30.8558 16.8377 29.5701 15.61C28.3721 14.4699 27.2325 13.3299 26.093 12.1314C24.9534 10.9329 24.9534 9.41286 26.093 8.21437C27.2325 6.98664 28.4013 5.78814 29.6578 4.67734C30.213 4.20963 30.9143 4.00501 31.6448 3.625ZM31.8493 7.6882C30.9435 8.59438 30.0084 9.52979 29.2195 10.319C29.9208 11.1083 30.7682 12.0145 31.4987 12.8037C32.4629 11.8683 33.3687 10.9621 34.2161 10.1437C33.3687 9.2667 32.4921 8.36052 31.8493 7.6882Z" fill="#074870"/>
<path d="M84.2984 7.27863C84.2984 8.74021 83.714 9.70485 82.6037 10.0556C80.2369 10.7572 77.8408 11.4295 75.4448 11.9849C73.5455 12.4234 71.9968 10.8741 72.4059 8.97406C72.9319 6.54784 73.5747 4.15085 74.3052 1.81232C74.8604 -4.53625e-05 76.9934 -0.555446 78.3668 0.701514C80.1784 2.36772 81.9316 4.15084 83.6264 5.96321C84.0355 6.34322 84.1815 7.01554 84.2984 7.27863ZM77.0519 4.03392C76.6428 5.52473 76.2922 6.92785 75.8831 8.47712C77.461 8.03865 78.8343 7.65864 80.2661 7.27863C79.1557 6.16783 78.1915 5.17395 77.0519 4.03392Z" fill="#074870"/>
<path d="M8.0933 47.2382C7.53812 46.9751 7.12904 46.829 6.80763 46.5659C6.22323 46.0689 5.69727 45.5428 5.17131 44.9581C4.47003 44.1689 4.49925 43.2627 5.17131 42.6196C5.78493 42.035 6.71997 42.0057 7.42124 42.6488C8.03486 43.2042 8.70692 43.7596 9.14522 44.4612C9.4082 44.8997 9.49586 45.6597 9.29132 46.1566C9.14522 46.5951 8.5316 46.8874 8.0933 47.2382Z" fill="#074870"/>
<path d="M107.5 43.6721C107.266 44.1983 107.15 44.6075 106.916 44.8998C106.361 45.5137 105.776 46.1276 105.133 46.6537C104.432 47.2384 103.643 47.2383 102.971 46.5953C102.299 45.9522 102.241 45.1629 102.825 44.4321C103.409 43.7306 104.023 43.029 104.783 42.5321C105.221 42.2397 105.981 42.2105 106.478 42.4151C106.887 42.6198 107.15 43.2628 107.5 43.6721Z" fill="#074870"/>
<path d="M17.1521 12.95C16.6554 12.6869 16.2463 12.57 15.9541 12.3361C15.3405 11.8099 14.7853 11.2545 14.2593 10.6407C13.6165 9.90989 13.6457 9.00371 14.3178 8.38985C14.9898 7.74675 15.7788 7.68829 16.4801 8.30215C17.1521 8.85755 17.8534 9.44218 18.2917 10.173C18.5839 10.6407 18.6131 11.4592 18.4378 11.9561C18.2625 12.3946 17.5904 12.6284 17.1521 12.95Z" fill="#074870"/>
<path d="M92.598 16.5738C92.335 16.8954 92.072 17.5092 91.6337 17.6846C91.137 17.8892 90.3773 17.86 89.939 17.5677C89.2085 17.0708 88.5656 16.3692 88.0105 15.6676C87.4845 15.0538 87.4261 14.2061 88.0397 13.7091C88.478 13.3291 89.5007 13.0076 89.8221 13.2414C90.7863 13.943 91.5753 14.9076 92.4227 15.8138C92.5103 15.9307 92.4811 16.1646 92.598 16.5738Z" fill="#074870"/>
<path d="M52.8293 1.19824C53.2384 1.51979 53.9104 1.78287 54.0565 2.19212C54.2611 2.71829 54.2026 3.50754 53.9104 3.97525C53.4721 4.70604 52.7708 5.29067 52.0988 5.84607C51.3975 6.4307 50.5794 6.40147 49.9365 5.72914C49.2937 5.08605 49.2352 4.29679 49.8489 3.566C50.404 2.89368 51.0469 2.30904 51.6897 1.72441C51.9527 1.51979 52.3325 1.4321 52.8293 1.19824Z" fill="#074870"/>
</g>
<defs>
<clipPath id="clip0_1509_8436">
<rect width="112" height="105" fill="white"/>
</clipPath>
</defs>
</svg>
