<svg width="100" height="105" viewBox="0 0 100 105" fill="none" xmlns="http://www.w3.org/2000/svg">
<g clip-path="url(#clip0_1509_8420)">
<path d="M18.6248 104.985C17.7758 104.519 17.5566 103.779 17.5566 102.848C17.584 95.4255 17.5566 88.0303 17.584 80.6077C17.584 74.4724 21.3364 69.8161 27.3074 68.5014C28.8686 68.1453 30.4572 67.844 31.991 67.4332C32.4293 67.3236 32.8675 66.9676 33.1414 66.5841C33.7166 65.7898 34.1548 64.8859 34.6752 64.0369C36.0447 61.7909 37.9894 61.024 40.5366 61.6813C40.6736 61.7087 40.7832 61.7361 41.1118 61.7909C41.1118 60.3119 41.1392 58.8876 41.0844 57.4907C41.0844 57.2168 40.7284 56.9155 40.4819 56.7512C37.7703 54.7517 35.716 52.2867 34.5657 49.082C34.4561 48.8082 33.9631 48.5069 33.6892 48.5343C29.7725 48.7534 25.4997 45.4392 25.7736 40.2352C25.8283 38.9752 25.7462 37.7153 26.4035 36.5649C26.5131 36.3732 26.3761 35.9897 26.2392 35.7432C25.0888 33.4151 25.1162 31.1692 26.3761 28.8958C26.5131 28.6219 26.5679 28.1563 26.4583 27.9098C24.7601 24.3765 25.6092 21.5006 29.0056 19.4463C29.0877 19.3916 29.1699 19.3094 29.0877 19.3642C29.2521 18.1864 29.2795 17.0908 29.5807 16.1048C30.4846 13.2289 33.2236 11.3664 36.3186 11.3937C36.6747 11.3937 37.1403 11.1472 37.332 10.8733C38.948 8.46304 41.3583 7.5044 44.1795 8.21654C44.5082 8.29871 45.0286 8.16176 45.3025 7.91525C48.1236 5.45017 51.9308 5.47756 54.7245 7.94264C54.9984 8.16176 55.5188 8.29871 55.8475 8.21654C58.6413 7.53179 61.0516 8.46304 62.6676 10.9007C62.8319 11.1746 63.2701 11.4211 63.5988 11.4211C67.7895 11.3937 70.8297 14.4614 70.8023 18.6794C70.8023 18.9807 71.0488 19.4463 71.2953 19.6107C74.3356 21.528 75.1847 24.6504 73.5687 27.855C73.4317 28.1289 73.4591 28.6493 73.6235 28.9232C74.856 31.1692 74.9108 33.3877 73.7878 35.6885C73.6235 36.0171 73.6509 36.5102 73.7878 36.8936C75.6503 42.5085 72.7744 48.3973 66.6391 48.5069C65.8996 48.5069 65.5709 48.726 65.3244 49.4381C64.2288 52.451 62.2567 54.8065 59.6821 56.669C59.1069 57.0799 58.833 57.5455 58.8878 58.285C58.9426 59.4354 58.9152 60.5857 58.9152 61.8457C59.2986 61.7635 59.5725 61.7087 59.819 61.6266C61.9554 61.1335 63.9549 61.9278 65.16 63.7903C65.1874 63.8451 65.2422 63.8999 65.2696 63.9547C66.283 66.7758 68.392 67.8988 71.268 68.2549C74.4999 68.6383 77.3759 69.9257 79.5397 72.5003C81.3474 74.6367 82.3608 77.0744 82.4156 79.8955C82.443 81.2376 82.443 82.5523 82.4156 83.8944C82.3882 84.9352 81.7856 85.5926 80.9091 85.5926C80.0053 85.5926 79.4027 84.9626 79.3753 83.8944C79.3479 82.7441 79.3753 81.5663 79.3753 80.4159C79.3205 76.0336 76.6363 72.6646 72.3362 71.6512C70.7202 71.2678 69.0768 70.8843 67.4334 70.583C67.0499 70.5008 66.4747 70.6378 66.2008 70.9117C63.681 73.1303 61.1885 75.3488 58.7508 77.6496C57.1896 79.1012 55.5462 79.4573 53.6016 78.5534C52.999 78.2795 52.369 78.033 51.5747 77.7317C51.5747 78.2795 51.5747 78.6904 51.5747 79.0738C51.5747 86.9621 51.5747 94.8503 51.5747 102.739C51.5747 103.67 51.4104 104.492 50.6161 105.067C50.2052 105.067 49.7944 105.067 49.3835 105.067C48.644 104.464 48.4797 103.67 48.4797 102.739C48.5071 94.8503 48.5071 86.9621 48.5071 79.0738C48.5071 78.6904 48.5071 78.2795 48.5071 77.7317C47.7402 78.0604 47.0828 78.2795 46.4802 78.5534C44.5629 79.4573 42.8922 79.156 41.3309 77.677C38.9206 75.4036 36.4282 73.2124 33.9905 70.9939C33.5523 70.583 33.1688 70.4187 32.5388 70.583C31.0598 70.9939 29.5534 71.2678 28.0469 71.5964C23.2537 72.692 20.6791 75.924 20.6791 80.8816C20.6791 88.222 20.6791 95.5625 20.7065 102.903C20.7065 103.834 20.4873 104.574 19.693 105.067C19.3096 104.985 18.9809 104.985 18.6248 104.985ZM33.7166 34.2916C33.7166 33.4151 33.6892 32.6756 33.7166 31.9361C33.8809 27.2798 38.1811 24.8421 42.317 27.0333C43.6317 27.718 45.056 28.2384 46.4528 28.7589C47.521 29.1423 48.0414 29.7997 47.8223 30.7035C47.5758 31.6622 46.7541 32.1278 45.6311 31.7443C43.9878 31.1692 42.3718 30.5118 40.8379 29.7449C38.7015 28.7041 36.8116 29.7175 36.7843 32.1004C36.7569 36.0993 36.7295 40.0982 36.7843 44.0971C36.839 48.096 38.5372 51.328 41.687 53.7931C42.8374 54.6969 43.9878 55.6282 45.1655 56.5047C48.2058 58.778 51.9034 58.7506 54.9437 56.4773C56.1214 55.6008 57.2718 54.697 58.4222 53.7657C61.6542 51.1911 63.2701 47.8221 63.2975 43.7137C63.3249 39.9339 63.2975 36.1267 63.2975 32.3469C63.2975 29.7449 61.3802 28.6767 59.0521 29.8544C57.4909 30.6487 55.8201 31.2787 54.122 31.8265C53.0538 32.1826 52.2321 31.6622 52.013 30.7857C51.8212 29.8544 52.3142 29.2519 53.3824 28.841C54.8889 28.2932 56.3953 27.7454 57.8196 27.0333C61.9007 24.9243 66.283 27.4989 66.3378 32.1278C66.3378 32.8399 66.3378 33.5521 66.3378 34.2916C67.8442 34.3738 69.2137 34.4559 70.6106 34.4559C70.8023 34.4559 71.1036 34.1272 71.2132 33.9081C71.761 32.4839 71.5418 31.1418 70.5284 29.9914C69.2137 28.485 69.2137 28.2658 70.5284 26.7868C71.3227 25.8829 71.5418 24.8421 71.0214 23.7465C70.5558 22.7057 69.7341 22.1031 68.5564 22.0484C68.2551 22.0484 67.9264 22.0758 67.6251 22.021C66.8308 21.9388 66.2556 21.5827 66.1187 20.761C65.9817 19.9394 66.3652 19.4189 67.0773 19.0355C67.3512 18.8985 67.6251 18.4877 67.6525 18.1864C67.6799 16.543 66.3926 15.0366 64.7492 14.6805C63.4893 14.4066 62.3937 14.7353 61.3802 15.5022C60.5586 16.1048 59.7369 16.0226 59.1891 15.3653C58.5865 14.6531 58.6961 13.8314 59.4904 13.1193C59.6547 12.955 59.8464 12.818 60.0108 12.6811C59.0521 11.1746 57.5457 10.7364 56.094 11.5307C54.4506 12.4346 54.1494 12.3798 53.0812 10.8733C51.5473 8.70955 48.4249 8.68216 46.8911 10.846C45.7955 12.3524 45.4668 12.4346 43.9056 11.5307C42.4265 10.6816 40.8105 11.1746 40.0162 12.7085C40.2354 12.9002 40.4819 13.0919 40.701 13.311C41.2762 13.9684 41.3583 14.6805 40.8105 15.3379C40.2627 15.9952 39.5506 16.1048 38.7837 15.6392C38.5098 15.4748 38.2907 15.2557 38.0168 15.1188C35.6613 13.7493 32.621 15.2009 32.3197 17.8577C32.2649 18.4329 32.2376 18.8985 32.9771 19.1998C33.3879 19.3642 33.8535 20.1859 33.7714 20.6241C33.6892 21.1445 33.0866 21.6101 32.621 21.9662C32.3745 22.1579 31.8815 22.0484 31.5254 22.0484C30.2655 22.0484 29.3616 22.6783 28.896 23.8013C28.403 24.9517 28.6769 26.0199 29.526 26.8963C30.7037 28.1289 30.7037 28.5945 29.526 29.8818C28.2386 31.2787 28.1017 33.1686 29.0877 34.3738C30.6763 34.2916 32.128 34.2916 33.7166 34.2916ZM44.2069 59.5723C44.2069 60.394 44.289 61.0514 44.1795 61.6813C43.8234 64.0642 44.5903 66.0089 46.2063 67.7893C47.5758 69.2957 48.6988 71.0212 50.0135 72.7468C51.9582 70.1996 53.7933 67.7619 55.6558 65.3242C55.7654 65.1872 55.8201 65.0229 55.8201 64.8586C55.8201 63.1604 55.8201 61.4622 55.8201 59.6271C51.9308 61.7087 48.151 61.7361 44.2069 59.5723ZM52.4512 74.6367C53.3551 75.0201 54.1494 75.3214 54.9163 75.6775C55.5736 76.0062 56.0392 75.8418 56.5597 75.3762C58.3674 73.7054 60.1751 72.0621 62.0102 70.4187C64.4753 68.2001 64.4753 68.2001 62.5854 65.4611C62.558 65.4337 62.558 65.4063 62.5306 65.379C61.7363 64.2834 60.4216 64.1738 59.5999 65.242C57.2444 68.3097 54.8889 71.4321 52.4512 74.6367ZM47.5758 74.6641C45.1655 71.4869 42.8374 68.3918 40.5093 65.3516C39.6054 64.1738 38.2633 64.256 37.469 65.4885C36.976 66.2554 36.483 67.0497 36.0721 67.8714C35.9626 68.0905 36.0447 68.6109 36.2365 68.7753C38.6741 71.0486 41.1666 73.2946 43.6591 75.5132C43.933 75.7597 44.4808 75.8966 44.8368 75.8144C45.7133 75.5132 46.5898 75.0749 47.5758 74.6641ZM66.42 45.3844C68.3646 45.4392 69.7889 44.6175 70.6928 43.0015C71.4871 41.5773 71.3775 40.016 71.1036 38.5096C71.0214 38.0714 70.3641 37.4962 69.9259 37.4414C68.8029 37.2771 67.6251 37.3866 66.42 37.3866C66.42 40.0708 66.42 42.6455 66.42 45.3844ZM33.6892 37.3592C32.4841 37.3592 31.3885 37.3045 30.3203 37.3866C29.4164 37.4414 28.896 38.0166 28.8686 38.9478C28.8412 39.7695 28.8138 40.5912 28.896 41.3855C29.1151 43.7958 31.4706 45.6857 33.6892 45.2475C33.6892 42.6728 33.6892 40.0982 33.6892 37.3592Z" fill="#074870"/>
<path d="M30.1287 104.985C29.3344 104.492 29.0879 103.752 29.0879 102.821C29.1153 98.3564 29.1153 93.8645 29.1153 89.4C29.1153 89.2082 29.1153 88.9891 29.1153 88.7974C29.1975 87.8661 29.8274 87.2362 30.7039 87.2636C31.5256 87.2909 32.1555 87.8935 32.1829 88.7974C32.2103 93.6728 32.2103 98.5755 32.1555 103.451C32.1555 103.971 31.5256 104.492 31.1695 104.985C30.8134 104.985 30.4574 104.985 30.1287 104.985Z" fill="#074870"/>
<path d="M68.8572 104.984C68.0629 104.491 67.8164 103.752 67.8164 102.82C67.8438 98.3557 67.8438 93.8638 67.8438 89.3993C67.8438 89.098 67.8164 88.7693 67.8986 88.4954C68.0903 87.7011 68.6381 87.2629 69.4598 87.2903C70.2815 87.3177 70.7745 87.8107 70.9114 88.605C70.9662 88.8789 70.9388 89.1528 70.9388 89.4267C70.9388 93.8912 70.9114 98.3831 70.9662 102.848C70.9662 103.779 70.7471 104.518 69.9254 104.984C69.542 104.984 69.2133 104.984 68.8572 104.984Z" fill="#074870"/>
<path d="M80.3337 104.985C79.5668 104.464 79.3203 103.725 79.3203 102.794C79.3477 99.0686 79.2929 95.371 79.3751 91.646C79.3751 91.0708 79.649 90.3587 80.0598 89.9752C80.3337 89.7013 81.1554 89.6466 81.5389 89.8657C81.9497 90.1122 82.3606 90.7421 82.388 91.2078C82.4701 93.2072 82.4427 95.2341 82.4427 97.2335C82.4427 99.1508 82.4154 101.041 82.4701 102.958C82.4975 103.889 82.1962 104.547 81.4019 104.985C81.0185 104.985 80.6898 104.985 80.3337 104.985Z" fill="#074870"/>
<path d="M95.4534 56.7241C92.4953 52.643 89.6741 48.7537 86.7708 44.7C83.8675 48.6989 81.0464 52.6156 78.0609 56.7515C78.8552 56.7515 79.4304 56.7241 80.0056 56.7515C81.1011 56.8062 81.6489 57.2993 81.6489 58.3948C81.6763 61.3803 81.6763 64.3384 81.6489 67.3239C81.6489 68.3373 81.0738 68.9399 80.1973 68.9673C79.2934 68.9947 78.6361 68.3921 78.6087 67.3513C78.5813 65.1327 78.5813 62.9142 78.5813 60.6956C78.5813 60.4491 78.5539 60.23 78.5265 59.8465C77.5405 59.8465 76.5544 59.8465 75.5684 59.8465C74.8289 59.8465 74.1168 59.7643 73.7333 58.9974C73.3225 58.2305 73.6785 57.5732 74.1442 56.9158C77.8418 51.8213 81.512 46.7268 85.1822 41.6323C86.3052 40.0985 87.2638 40.0985 88.3868 41.6597C92.0571 46.7268 95.6999 51.7939 99.3701 56.861C99.8083 57.491 100.274 58.0936 99.8357 58.9153C99.3975 59.7643 98.6306 59.8191 97.8089 59.8191C96.8776 59.8191 95.9738 59.8191 94.9056 59.8191C94.9056 60.3121 94.9056 60.6956 94.9056 61.1064C94.9056 68.9399 94.9056 76.746 94.9056 84.5795C94.9056 84.9629 95.0151 85.4285 94.8234 85.675C94.4674 86.1133 94.0017 86.5789 93.4813 86.7159C92.7966 86.9076 92.2214 86.4694 91.9749 85.7846C91.8379 85.3738 91.8379 84.9081 91.8379 84.4699C91.8379 76.0886 91.8379 67.7348 91.8379 59.3535C91.8379 57.0528 92.1118 56.7515 94.4126 56.7241C94.6865 56.7515 94.9604 56.7515 95.4534 56.7241Z" fill="#074870"/>
<path d="M21.4461 59.8464C21.4461 62.0923 21.4461 64.2561 21.4461 66.3925C21.4461 66.8034 21.4735 67.2142 21.4188 67.6251C21.2818 68.5289 20.6518 69.0767 19.8028 68.9946C18.9263 68.9124 18.4059 68.392 18.4059 67.5155C18.3785 65.6804 18.3785 63.8179 18.3785 61.9828C18.3785 60.8598 18.3511 59.7368 18.3785 58.6138C18.4059 57.3265 18.8989 56.8335 20.1862 56.8061C20.6792 56.8061 21.1996 56.8061 21.9665 56.8061C19.0085 52.6977 16.1599 48.7535 13.2566 44.7546C10.3533 48.7809 7.53215 52.6977 4.54666 56.8061C5.36836 56.8061 5.97093 56.7787 6.57351 56.8061C7.53215 56.8609 8.13472 57.3813 8.16211 58.3399C8.21689 60.2846 8.21689 62.2293 8.16211 64.174C8.13472 65.1326 7.47737 65.7626 6.62829 65.7626C5.72442 65.7626 5.12185 65.1052 5.12185 64.0644C5.09446 62.6949 5.12185 61.3528 5.12185 59.8738C4.02626 59.8738 3.06762 59.8738 2.08159 59.8738C1.34206 59.8738 0.65732 59.7642 0.246473 59.0247C-0.164373 58.2578 0.164304 57.6552 0.60254 57.0526C4.32755 51.9034 8.05255 46.7541 11.7776 41.6048C12.791 40.2079 13.8318 40.2079 14.8726 41.6322C18.5702 46.7541 22.2678 51.876 25.9928 56.9979C26.4311 57.6004 26.7598 58.2304 26.4037 58.9699C26.0202 59.7642 25.2807 59.8738 24.4864 59.8464C23.4456 59.819 22.5143 59.8464 21.4461 59.8464Z" fill="#074870"/>
<path d="M22.8706 11.7772C21.0629 9.25737 19.2552 6.79229 17.3927 4.19026C15.5302 6.7649 13.7498 9.22998 11.9147 11.7498C13.832 12.1333 14.0785 12.4072 14.0785 14.2423C14.0785 20.2407 14.0785 26.2664 14.0785 32.2648C14.0785 32.5934 14.1059 32.9495 14.0237 33.2782C13.8594 34.1273 13.3664 34.6203 12.4899 34.6203C11.6682 34.6203 11.0656 34.0177 11.0109 33.1138C10.9835 32.8126 11.0109 32.5113 11.0109 32.1826C11.0109 26.869 11.0109 21.528 11.0109 16.2144C11.0109 15.8309 11.0109 15.4748 11.0109 14.927C10.2987 14.927 9.64137 15.0366 9.06618 14.8997C8.51839 14.7627 7.77887 14.4888 7.58714 14.078C7.36802 13.6123 7.45019 12.7633 7.77886 12.2976C10.4905 8.43567 13.2568 4.6285 16.0232 0.821321C16.8723 -0.329049 17.9405 -0.356439 18.7895 0.821321C21.5285 4.65589 24.2949 8.46306 27.0065 12.325C27.3078 12.7633 27.4447 13.6397 27.1982 14.078C26.9517 14.5162 26.2122 14.7901 25.637 14.927C25.0892 15.064 24.4866 14.9544 23.7745 14.9544C23.7745 16.4335 23.7745 17.8578 23.7745 19.282C23.7745 19.6107 23.8019 19.9668 23.7471 20.2954C23.6101 21.1445 23.0623 21.6375 22.1859 21.6101C21.3094 21.5828 20.7342 21.0624 20.7068 20.2133C20.652 17.9399 20.652 15.6392 20.7068 13.3384C20.7342 12.3798 21.282 12.0237 22.8706 11.7772Z" fill="#074870"/>
<path d="M82.6614 4.19061C80.7989 6.76525 79.0186 9.23033 77.2109 11.7502C79.1555 12.161 79.3473 12.4075 79.3473 14.2974C79.3473 16.1325 79.3473 17.995 79.3473 19.8302C79.3473 20.9805 78.7995 21.6379 77.8682 21.6653C76.9096 21.6927 76.2796 21.0079 76.2796 19.8302C76.2796 18.2689 76.2796 16.7077 76.2796 14.9822C75.6222 14.9822 74.9923 15.0917 74.4171 14.9548C73.8419 14.8178 73.075 14.5439 72.8559 14.1057C72.6094 13.6675 72.7463 12.791 73.0476 12.3528C75.7592 8.4908 78.5256 4.68363 81.2919 0.876449C82.141 -0.273921 83.2092 -0.273921 84.0583 0.876449C86.7973 4.65624 89.5636 8.43602 92.2204 12.2706C92.5491 12.7362 92.6861 13.6401 92.4669 14.1057C92.2752 14.5439 91.4535 14.7904 90.8783 14.9274C90.3305 15.0643 89.728 14.9548 89.0432 14.9548C89.0432 15.5847 89.0706 16.1325 89.0432 16.6529C89.0158 17.7485 88.3859 18.4607 87.5094 18.4333C86.6055 18.4333 86.0304 17.7485 86.003 16.6256C85.9756 15.8313 86.003 15.0643 86.003 14.27C86.003 12.3528 86.2495 12.0789 88.1668 11.7776C86.3043 9.25771 84.5239 6.76525 82.6614 4.19061Z" fill="#074870"/>
<path d="M5.06641 78.2522C5.06641 76.061 5.06641 73.8972 5.06641 71.706C5.06641 70.5283 5.58681 69.8983 6.51806 69.8709C7.50409 69.8436 8.13406 70.5009 8.13406 71.6787C8.13406 76.1158 8.16145 80.5529 8.13406 84.9627C8.13406 86.0857 7.53148 86.743 6.60023 86.743C5.64159 86.743 5.0938 86.1131 5.06641 84.9901C5.06641 82.7715 5.06641 80.5256 5.06641 78.2522Z" fill="#074870"/>
<path d="M89.0433 28.7319C89.0433 30.1287 89.0707 31.5256 89.0433 32.9225C89.0159 33.9907 88.4407 34.6481 87.5642 34.6754C86.6604 34.7028 86.003 34.0181 85.9756 32.9225C85.9482 30.0466 85.9482 27.198 85.9756 24.3221C85.9756 23.1991 86.633 22.5692 87.5642 22.5966C88.4681 22.624 89.0159 23.2539 89.0433 24.3495C89.0707 25.7738 89.0433 27.2528 89.0433 28.7319Z" fill="#074870"/>
<path d="M43.1929 81.6484C44.0146 81.6484 44.672 82.3058 44.6994 83.1275C44.7268 84.004 44.042 84.7161 43.1929 84.6887C42.3712 84.6887 41.6865 84.0313 41.6591 83.2096C41.6043 82.388 42.3439 81.6484 43.1929 81.6484Z" fill="#074870"/>
<path d="M44.6993 91.317C44.7267 92.1935 44.0419 92.9056 43.1655 92.8782C42.3438 92.8782 41.659 92.1935 41.6316 91.3992C41.6042 90.5501 42.3164 89.8105 43.1655 89.8105C43.9871 89.8379 44.6719 90.4953 44.6993 91.317Z" fill="#074870"/>
<path d="M44.7005 99.6167C44.6731 100.438 44.0157 101.096 43.194 101.096C42.3449 101.096 41.6328 100.356 41.6328 99.5345C41.6602 98.7402 42.3449 98.0555 43.1666 98.0555C44.0157 98.0281 44.7005 98.7402 44.7005 99.6167Z" fill="#074870"/>
<path d="M50.0133 50.9716C48.5616 50.5333 47.1921 50.1773 45.8774 49.6568C44.8914 49.2734 44.5901 48.3969 44.9736 47.5752C45.3296 46.7535 46.2061 46.4249 47.1373 46.8905C49.082 47.8491 50.9993 47.8491 52.944 46.8631C53.8204 46.4249 54.6969 46.7535 55.053 47.4931C55.4364 48.2874 55.1625 49.2186 54.2313 49.6021C52.8892 50.1499 51.4649 50.5059 50.0133 50.9716Z" fill="#074870"/>
</g>
<defs>
<clipPath id="clip0_1509_8420">
<rect width="100" height="104.985" fill="white"/>
</clipPath>
</defs>
</svg>
