<svg width="101" height="101" viewBox="0 0 101 101" fill="none" xmlns="http://www.w3.org/2000/svg">
<path d="M0.991391 99.9993C0.208714 99.5298 0 98.8517 0 97.9388C0.0260892 88.9925 0.0260892 80.0463 0.0260892 71.1C0.0260892 67.5006 1.48709 64.6837 4.48735 62.7014C5.06131 62.3363 5.03522 61.8929 5.03522 61.3712C5.03522 49.3994 5.03522 37.4276 5.03522 25.4558C5.03522 25.0645 5.03522 24.6733 5.0874 24.282C5.19176 23.5517 5.63527 23.1083 6.39186 23.0562C7.17454 23.004 7.72241 23.3692 7.90503 24.1516C8.00939 24.5689 7.9833 24.9863 7.9833 25.4036C7.9833 36.932 7.9833 48.4344 7.9833 59.9628C7.9833 60.354 7.9833 60.7192 7.9833 61.2669C9.88782 60.7453 11.6619 60.2497 13.436 59.7541C13.4881 59.7281 13.5664 59.7281 13.6186 59.6759C14.0099 59.3107 14.1143 56.2852 13.7229 55.8939C11.5053 53.703 10.3835 51.0165 10.2531 47.9649C10.1748 46.3217 10.1748 44.6524 10.4618 43.0353C10.827 41.1052 11.975 39.5142 13.5403 38.2883C14.0882 37.8449 14.2969 37.4015 14.2708 36.7234C14.2186 35.4192 14.2447 34.1151 14.2447 32.811C14.2447 30.5157 15.0796 29.6811 17.3493 29.6811C25.0717 29.6811 32.7681 29.6811 40.4905 29.655C41.0383 29.655 41.6384 29.4724 42.0819 29.1595C44.0908 27.8553 46.3866 27.8553 48.3955 29.1855C48.7868 29.4464 49.3347 29.6289 49.8043 29.6289C53.6655 29.655 57.5528 29.655 61.414 29.655C61.6749 29.655 61.9358 29.655 62.1967 29.655C63.162 29.7333 63.7621 30.3332 63.7099 31.1939C63.6577 32.0285 63.0837 32.5502 62.1184 32.5502C59.2747 32.5763 56.4571 32.5502 53.6134 32.5502C52.7524 32.5502 51.8654 32.5502 50.9262 32.5502C51.0305 33.0718 51.1871 33.4891 51.161 33.8804C51.0305 35.341 50.874 36.8277 50.6914 38.2883C50.5087 39.6968 50.0913 41.1052 50.1174 42.4876C50.1957 47.3911 50.4826 52.2946 50.587 57.2241C50.6131 58.3718 50.2218 59.5455 50.013 60.7974C50.013 60.7974 50.2739 60.8496 50.5087 60.8496C56.0136 60.8496 61.5184 60.9539 66.9971 60.7974C69.0582 60.7453 71.0931 60.1454 73.1281 59.7541C73.676 59.6498 74.6152 59.3368 74.6413 59.1021C74.6935 57.9284 75.5805 56.7286 74.4065 55.5549C72.1106 53.2857 71.354 50.3905 71.067 47.2346C70.8062 44.4177 71.2497 41.8355 73.0759 39.6185C75.4239 36.7755 78.4503 35.6279 82.1028 36.1756C82.2593 36.2017 82.4159 36.2278 82.5985 36.2278C82.6507 36.2278 82.7289 36.2017 82.8594 36.1756C82.8594 35.0019 82.8594 33.8282 82.8594 32.5241C82.468 32.5241 82.1028 32.5241 81.7636 32.5241C77.6937 32.5241 73.6238 32.5502 69.5539 32.498C69.0321 32.498 68.3538 32.2893 68.0146 31.9242C67.2319 31.1417 67.8059 29.8376 68.9277 29.6289C69.3713 29.5507 69.8409 29.5768 70.2844 29.5768C74.4847 29.5768 78.6851 29.5768 82.8855 29.5768C84.9465 29.5768 85.8335 30.4636 85.8596 32.5502C85.8596 33.9847 85.8336 35.4192 85.8857 36.8538C85.9118 37.245 86.1205 37.7406 86.4075 38.0014C89.2512 40.401 90.3731 43.4265 89.9817 47.1042C89.7469 49.2429 89.486 51.3556 88.3381 53.2596C87.999 53.8334 87.6859 54.5376 87.1641 54.9289C85.5727 56.1026 86.1205 57.5893 86.3553 59.076C86.3814 59.2325 86.5901 59.4933 86.7467 59.5194C88.4946 59.8585 90.2426 60.1714 92.0689 60.4844C92.0689 43.4005 92.0689 26.4208 92.0689 9.41506C64.049 9.41506 36.0814 9.41506 8.00939 9.41506C8.00939 11.293 8.00939 13.1188 8.00939 14.9185C8.00939 15.8053 8.03548 16.666 7.9833 17.5528C7.93112 18.4135 7.30498 18.9873 6.5484 19.0134C5.76572 19.0134 5.11349 18.4135 5.0874 17.5006C5.06131 15.1532 5.03522 12.8058 5.0874 10.4844C5.11349 9.70197 4.95695 9.3629 4.06992 9.28465C1.6958 9.15424 -0.0521785 7.01548 0.0260892 4.6159C0.0782677 2.2424 2.00887 0.207968 4.38299 0.051473C4.69606 0.0253906 5.03522 0.0253906 5.34829 0.0253906C27.5763 0.0253906 49.8043 0.0253906 72.0323 0.0253906C73.5977 0.0253906 74.3021 0.494874 74.276 1.53817C74.2499 2.5293 73.5716 2.9727 72.0584 2.9727C49.9087 2.9727 27.7328 2.9727 5.58309 2.9727C5.21784 2.9727 4.8526 2.94662 4.51344 2.99879C3.57422 3.1292 2.92199 3.93775 2.94808 4.82456C2.97417 5.71136 3.6264 6.41558 4.53952 6.51991C4.8526 6.546 5.19176 6.546 5.50483 6.546C35.1422 6.546 64.8056 6.546 94.443 6.546C94.73 6.546 95.017 6.546 95.33 6.51991C96.3475 6.44167 97.0519 5.71136 97.0519 4.77239C97.0519 3.83342 96.3475 3.07703 95.3561 2.9727C95.0691 2.94662 94.7822 2.9727 94.4691 2.9727C89.773 2.9727 85.1031 2.9727 80.407 2.9727C80.0939 2.9727 79.7548 2.99879 79.4417 2.94662C78.6851 2.79013 78.2416 2.29456 78.2416 1.51209C78.2416 0.729616 78.7112 0.23405 79.4678 0.103638C79.7808 0.051473 80.12 0.0775555 80.4331 0.0775555C84.9204 0.0775555 89.4078 0.181885 93.8951 0.051473C96.8432 -0.0267742 98.9303 0.938275 99.9739 3.80734C99.9739 4.4594 99.9739 5.11146 99.9739 5.76352C99.9217 5.84177 99.8435 5.92002 99.8174 5.99826C99.1912 8.08486 97.8085 9.31073 95.6431 9.49331C94.9648 9.54547 94.9909 9.93671 94.9909 10.4062C94.9909 27.2815 94.9909 44.1308 95.017 61.0061C95.017 61.3712 95.33 61.7886 95.617 62.0755C96.5562 63.0927 97.7302 63.9534 98.4868 65.0749C99.2173 66.1704 99.5304 67.5528 100.026 68.8047C100.026 79.2116 100.026 89.6185 100.026 100.051C99.3739 100.051 98.7216 100.051 98.0694 100.051C97.2867 99.582 97.078 98.9038 97.078 97.991C97.1041 88.7578 97.1041 79.4985 97.078 70.2653C97.078 66.9268 94.9648 64.2925 91.7297 63.6143C89.9556 63.2231 88.1555 62.9362 86.3553 62.6493C86.0944 62.5971 85.7031 62.7536 85.5466 62.9623C83.1724 66.3008 77.9807 66.4312 75.45 63.0144C75.2935 62.8058 74.85 62.6232 74.5891 62.6754C72.8672 62.9362 71.1192 63.2492 69.3973 63.5882C66.5014 64.1621 64.4404 66.2747 63.9969 69.1699C63.8403 70.1349 63.8925 71.1261 63.8664 72.0911C63.8403 74.0473 63.8664 76.0035 63.8403 77.9597C63.8403 78.8465 63.2925 79.3942 62.4837 79.4464C61.6488 79.4985 61.0227 78.9247 60.9444 78.0379C60.9183 77.6728 60.9183 77.3337 60.9183 76.9685C60.9183 75.2993 60.9183 73.6039 60.9183 71.9868C60.7618 71.9085 60.6835 71.8564 60.6314 71.8564C58.5703 71.8564 56.5353 71.8303 54.4743 71.8303C53.509 71.8303 52.1263 71.5173 51.6828 72.0129C51.161 72.5867 51.5001 73.9169 51.3958 74.908C51.3436 75.5601 51.6306 75.847 52.1784 76.16C54.2395 77.2294 55.1787 79.6289 54.5004 81.7938C53.8482 83.8804 51.9436 85.2106 49.7521 85.1323C47.6389 85.0541 45.7866 83.5674 45.2909 81.559C44.7691 79.4203 45.7344 77.2294 47.6389 76.1339C47.952 75.9513 48.3955 75.6905 48.4216 75.4297C48.4999 74.282 48.4477 73.1083 48.4477 71.9085C43.3342 71.9085 38.3512 71.9085 33.3159 71.9085C33.3159 72.378 33.3159 72.7693 33.3159 73.1605C33.3159 81.4547 33.3159 89.7489 33.342 98.0431C33.342 98.9299 33.1333 99.6341 32.3506 100.104C32.0376 100.104 31.6984 100.104 31.3853 100.104C29.9504 99.3472 30.5505 97.9388 30.3418 96.7651C23.5847 96.7651 16.8275 96.7651 10.0704 96.7651C9.9139 97.9649 10.3574 99.2951 9.13123 100.104C8.73989 100.104 8.34855 100.104 7.95721 100.104C7.22672 99.5298 7.07018 98.7734 7.09627 97.8866C7.12236 94.7046 7.12236 91.5225 7.12236 88.3144C7.12236 83.5935 7.12236 78.8725 7.12236 74.1516C7.12236 73.1083 7.67023 72.5084 8.50509 72.4824C9.39212 72.4563 9.99217 73.0823 10.0444 74.1255C10.0704 74.4125 10.0444 74.6994 10.0444 75.0123C10.0444 80.8809 10.0444 86.7234 10.0444 92.5919C10.0444 92.9571 10.0444 93.3483 10.0444 93.7134C16.9319 93.7134 23.6107 93.7134 30.42 93.7134C30.42 93.2961 30.42 92.9049 30.42 92.5137C30.42 85.5236 30.4461 78.5335 30.3939 71.5173C30.3679 69.3785 31.2549 67.9701 33.1333 67.005C37.3337 64.8663 41.4558 62.5971 45.6561 60.4584C47.091 59.7281 47.7172 58.763 47.6389 57.1459C47.4302 52.8162 47.3259 48.4865 47.1693 44.1829C47.1693 43.8439 47.1171 43.4787 47.091 43.1135C45.7083 43.1135 44.43 43.1135 42.9429 43.1135C42.9429 44.1308 42.969 45.1219 42.9429 46.0869C42.8646 48.9038 42.7602 51.7468 42.6298 54.5637C42.5515 56.0765 42.395 56.2591 40.9079 56.7547C35.8988 58.45 30.8636 60.1454 25.8805 61.8668C25.437 62.0233 24.9935 62.3885 24.7065 62.7797C22.2802 66.3008 17.3754 66.5616 14.6621 63.2492C14.2708 62.7536 13.9316 62.7536 13.4099 62.9101C11.688 63.4057 9.96608 63.8752 8.24419 64.3707C4.66997 65.3619 2.8959 67.7093 2.8959 71.413C2.8959 80.3071 2.8959 89.1751 2.92199 98.0692C2.92199 98.956 2.71328 99.6602 1.9306 100.13C1.64362 99.9993 1.30446 99.9993 0.991391 99.9993ZM39.4991 32.7327C31.9854 32.7327 24.6282 32.7327 17.2189 32.7327C17.2189 33.9847 17.2189 35.1584 17.2189 36.3582C17.532 36.3321 17.7407 36.306 17.9755 36.28C21.7062 35.7583 24.7848 36.9581 27.1067 39.9054C28.8547 42.1224 29.246 44.6785 28.9851 47.4693C28.6981 50.3645 28.1242 53.1292 26.011 55.2158C24.8369 56.3895 25.0457 57.485 25.3587 58.8152C25.5413 58.763 25.6718 58.763 25.8022 58.7108C30.2374 57.1981 34.6465 55.6853 39.0817 54.2247C39.6295 54.0421 39.8382 53.7813 39.8643 53.1814C39.9687 49.3733 40.1513 45.5653 40.2557 41.7833C40.2818 40.8444 40.1774 39.8793 39.8643 38.9925C39.1077 36.9581 38.7686 34.9237 39.4991 32.7327ZM12.9142 46.1391C12.9924 46.9216 13.0707 48.0431 13.2794 49.1647C13.7751 51.9294 15.2883 53.9638 17.7668 55.3201C18.9408 55.9722 20.1148 55.9461 21.3149 55.3201C23.4803 54.1464 24.9674 52.3989 25.5935 50.0254C25.9066 48.8517 25.9849 47.5997 26.1153 46.3739C26.5067 42.6701 23.6368 39.2794 19.9843 39.0969C16.0449 38.8882 12.862 41.9138 12.9142 46.1391ZM87.0858 46.426C87.138 42.4615 84.6595 39.5924 81.3462 39.1229C78.1111 38.6795 74.8761 40.6879 74.1978 43.9221C73.8586 45.487 74.0412 47.2085 74.2238 48.8256C74.5369 51.6686 76.0762 53.7552 78.5286 55.1897C79.8591 55.9722 81.1636 55.9461 82.4941 55.1897C84.5291 54.016 85.964 52.3206 86.5119 50.0254C86.8771 48.6691 86.9815 47.2346 87.0858 46.426ZM62.9272 63.9273C62.9272 63.9273 62.8489 63.9012 62.7968 63.9012C58.9877 63.9012 55.1787 63.9012 51.3697 63.9012C49.3086 63.9012 47.1954 63.5622 45.2387 64.0316C43.3342 64.5011 41.6384 65.8053 39.8643 66.7181C38.6642 67.3441 37.4902 67.9701 36.2901 68.5961C36.3162 68.6482 36.3423 68.7004 36.3423 68.7526C44.5604 68.7526 52.7524 68.7526 60.7879 68.7526C61.5445 67.0833 62.2228 65.5183 62.9272 63.9273ZM47.1171 40.0358C47.4824 38.9143 47.8476 37.871 48.1346 36.8016C48.526 35.3932 48.4216 34.0369 47.665 32.7588C46.3866 30.6201 43.9082 30.6462 42.6559 32.811C41.8732 34.1673 41.7949 35.6279 42.2906 37.1407C42.5515 37.8971 42.7081 38.7056 42.995 39.462C43.0733 39.6968 43.3603 40.0097 43.569 40.0097C44.7691 40.0619 45.9692 40.0358 47.1171 40.0358ZM16.8797 58.1631C16.6971 59.5716 16.071 60.98 17.6624 61.9711C18.8886 62.7275 20.4279 62.6754 21.5758 61.8407C23.0107 60.8235 22.3324 59.5194 22.1758 58.1631C20.3757 58.8934 18.6277 58.8934 16.8797 58.1631ZM83.1464 58.1631C81.3462 58.8934 79.5982 58.8673 77.8763 58.1892C77.3285 60.4844 77.4589 61.1104 78.5547 61.919C79.6504 62.7014 81.1375 62.7014 82.3115 61.9972C83.929 61.0583 83.3551 59.6498 83.1464 58.1631ZM50.0391 78.377C49.0477 78.3509 48.1607 79.2116 48.1607 80.2027C48.1346 81.246 48.9434 82.0546 49.987 82.0807C51.0305 82.1068 51.8654 81.3243 51.8654 80.281C51.8915 79.2638 51.0566 78.4031 50.0391 78.377Z" fill="#074870"/>
<path d="M69.1366 99.999C68.38 99.5817 68.1191 98.9557 68.1191 98.0689C68.1452 90.1399 68.1191 82.1847 68.1452 74.2557C68.1452 73.0298 68.667 72.3517 69.6062 72.3777C70.5193 72.4038 71.0672 73.082 71.0672 74.3078C71.0672 80.3329 71.0672 86.3318 71.0672 92.3569C71.0672 92.7481 71.0672 93.1133 71.0672 93.5827C77.3547 93.5827 83.5379 93.5827 89.9297 93.5827C89.9297 93.2176 89.9297 92.8524 89.9297 92.4612C89.9297 86.6187 89.9297 80.7502 89.9297 74.9077C89.9297 74.6208 89.9297 74.3339 89.9297 74.0209C89.9819 73.0037 90.5298 72.4038 91.3646 72.3777C92.2517 72.3517 92.8256 72.9776 92.8517 74.047C92.8778 78.6897 92.8517 83.3584 92.8517 88.0011C92.8517 91.2614 92.8256 94.4956 92.8778 97.7559C92.8778 98.6427 92.7213 99.3991 92.0169 99.9729C91.6255 99.9729 91.2342 99.9729 90.8429 99.9729C89.5906 99.1383 90.0863 97.782 89.8776 96.6083C83.5901 96.6083 77.3808 96.6083 71.1194 96.6083C70.9629 97.8081 71.4325 99.1905 70.128 99.9729C69.7888 99.999 69.4758 99.999 69.1366 99.999Z" fill="#074870"/>
<path d="M61.9106 99.9987C61.154 99.5032 60.9453 98.7989 60.9453 97.9121C60.9714 93.7129 60.9714 89.5136 60.9714 85.3404C60.9714 85.0796 60.9453 84.8188 60.9975 84.5579C61.1801 83.7494 61.6758 83.2799 62.5107 83.3321C63.3455 83.3842 63.8412 83.8537 63.8673 84.6883C63.9195 85.4447 63.8934 86.175 63.8934 86.9314C63.8934 90.6091 63.8673 94.2867 63.9195 97.9643C63.9195 98.8511 63.7108 99.5553 62.902 99.9987C62.5628 99.9987 62.2498 99.9987 61.9106 99.9987Z" fill="#074870"/>
<path d="M50.1174 21.8563C56.1701 21.8563 62.2228 21.8563 68.2755 21.8563C68.6407 21.8563 69.0842 21.752 69.319 21.9085C69.7886 22.2215 70.3104 22.6388 70.493 23.1344C70.7278 23.8125 70.3104 24.4124 69.606 24.6472C69.2408 24.7776 68.8494 24.7776 68.4581 24.7776C56.1701 24.7776 43.882 24.7776 31.594 24.7776C31.2288 24.7776 30.8635 24.7776 30.5243 24.6732C29.8199 24.4646 29.4547 23.9429 29.5069 23.2126C29.559 22.4823 29.9765 22.0128 30.707 21.9085C31.0461 21.8563 31.4114 21.8824 31.7766 21.8824C37.8815 21.8563 44.0125 21.8563 50.1174 21.8563Z" fill="#074870"/>
<path d="M49.9079 18.1787C46.9599 18.1787 43.9857 18.2048 41.0376 18.1787C39.681 18.1787 38.8461 16.9789 39.5505 15.9878C39.8114 15.5966 40.4636 15.2836 40.9072 15.2836C46.9599 15.2314 52.9865 15.2575 59.0392 15.2575C60.0306 15.2575 60.6567 15.8574 60.6567 16.692C60.6567 17.5267 60.0045 18.1526 59.0392 18.1526C56.0128 18.2048 52.9604 18.1787 49.9079 18.1787Z" fill="#074870"/>
</svg>
