<svg width="100" height="100" viewBox="0 0 100 100" fill="none" xmlns="http://www.w3.org/2000/svg">
<g clip-path="url(#clip0_1509_8411)">
<path d="M0 28.6683C0.547874 27.6761 1.33055 27.5195 2.40021 27.8328C4.25254 28.3811 6.15706 28.851 8.19202 29.3993C8.19202 28.9294 8.19202 28.5899 8.19202 28.2505C8.19202 21.6448 8.19202 15.039 8.19202 8.40718C8.19202 5.87454 9.4443 4.62128 11.975 4.62128C12.5489 4.62128 13.149 4.62128 13.8534 4.62128C13.8534 4.02076 13.8534 3.47245 13.8534 2.92415C13.8534 0.913708 15.1839 -0.000130151 17.1667 0.469844C20.0626 1.14869 22.9846 1.85366 25.9327 2.27141C29.8461 2.84582 33.7855 2.45418 37.6989 1.82755C41.6384 1.20091 45.5779 0.495953 49.5695 0.0259795C50.9783 -0.130678 52.4654 0.313186 53.9003 0.522063C56.7702 0.939818 59.6139 1.38368 62.4837 1.85366C63.6055 2.03642 64.1534 2.71527 63.9708 3.603C63.7882 4.49073 63.0577 4.88238 61.9358 4.69961C58.7008 4.20352 55.4396 3.70744 52.2045 3.21136C52.0219 3.18525 51.8393 3.18525 51.5784 3.15914C51.5784 15.509 51.5784 27.7805 51.5784 40.261C56.1179 39.6343 60.7096 40.0782 65.197 38.6944C65.1448 38.3288 65.1187 38.0678 65.0926 37.7805C64.91 35.9268 65.8753 34.4385 67.6494 33.9163C68.9277 33.5247 70.2061 33.2114 71.5106 32.8719C72.8933 32.5064 74.0673 32.8458 75.1109 33.838C75.3457 34.073 75.8414 34.2035 76.1544 34.1252C78.2938 33.603 80.407 32.9764 82.5463 32.4281C83.0681 32.2975 83.2768 32.0886 83.2768 31.5142C83.2507 22.3236 83.2768 13.133 83.2507 3.96854C83.2507 3.83799 83.2246 3.70744 83.1985 3.57689C81.0853 4.02076 79.0243 4.59517 76.911 4.88238C74.4586 5.19569 71.9802 5.30013 69.5278 5.43068C68.5103 5.4829 67.9363 4.88238 67.9363 3.99465C67.9363 3.13303 68.5364 2.5064 69.5278 2.53251C74.1456 2.58473 78.659 1.85366 83.0681 0.443734C84.6856 -0.0784591 86.0944 0.992037 86.1727 2.71527C86.1988 3.3158 86.1727 3.94243 86.1727 4.64739C86.9554 4.64739 87.6337 4.64739 88.2859 4.64739C90.4774 4.6735 91.808 5.97898 91.8341 8.17219C91.8341 15.0129 91.8341 21.8537 91.8341 28.6944C91.8341 29.0599 91.8341 29.3993 91.8341 29.8954C93.7386 29.3732 95.5387 28.9033 97.3389 28.4072C98.8521 27.9894 99.6608 28.2244 99.9478 29.2166C100.235 30.1826 99.6347 30.8354 98.1216 31.2531C91.234 33.133 84.3204 35.0129 77.4328 36.8928C77.198 36.9711 76.9371 37.0495 76.598 37.1539C77.5633 39.6343 78.5286 42.0625 79.4939 44.4907C82.155 51.227 84.8161 57.9633 87.4511 64.7257C87.7381 65.4307 88.0772 65.6396 88.8077 65.6134C91.9645 65.5873 95.1213 65.5873 98.2781 65.6134C99.5043 65.6134 100.261 66.449 99.9478 67.4411C99.6869 68.3027 99.0347 68.5638 98.1998 68.5377C95.1996 68.5377 92.1993 68.5377 89.2251 68.5116C88.6512 68.5116 88.3381 68.6422 88.0772 69.2166C87.5033 70.5482 86.3814 71.2531 84.9204 71.2792C83.5116 71.3054 82.1289 71.2792 80.7201 71.2792C79.1286 71.2792 77.9546 70.6004 77.3285 69.1382C77.0676 68.5377 76.7284 68.4072 76.2066 68.6161C75.3457 68.9816 74.5108 69.3994 73.5194 69.8693C74.5108 70.8354 75.3196 71.6709 76.1805 72.4542C78.085 74.2035 79.0243 76.2923 78.2677 78.851C77.5372 81.3837 75.7109 82.7414 73.0237 83.1591C73.2325 85.1435 72.8411 86.9712 71.3801 88.4333C69.9191 89.8954 68.1451 90.3915 66.1362 90.1304C64.1534 95.2479 62.5098 96.214 57.605 95.1957C56.8223 97.4933 55.2831 98.9294 52.8307 99.1905C50.4044 99.4516 48.7347 98.0416 47.2215 96.2923C45.6561 97.8589 44.2734 99.556 42.0297 100.026C41.3775 100.026 40.7253 100.026 40.073 100.026C37.8816 99.3993 36.2118 98.1983 35.5074 95.9268C35.2987 95.2479 35.2465 94.543 35.1161 93.8641C31.6723 93.7074 29.2199 91.697 28.9069 87.6761C25.0196 87.415 22.9846 85.0651 22.6976 81.4098C20.167 81.3315 18.1842 80.2871 17.1145 77.9111C16.071 75.5612 16.5927 73.368 18.2885 71.2792C15.8362 71.5665 14.1664 70.8093 13.436 68.5377C9.6791 68.5377 5.97443 68.5116 2.26976 68.5638C1.35664 68.5638 0.600052 68.4072 0.0782677 67.5978C0.0782677 67.2845 0.0782677 66.945 0.0782677 66.6317C0.521784 65.8223 1.2001 65.5873 2.11323 65.6134C5.79181 65.6396 9.47039 65.6134 13.149 65.6396C13.8012 65.6396 14.1404 65.4568 14.3491 64.8302C14.8969 63.2636 15.5231 61.7231 16.1492 60.2087C16.5145 59.2949 17.1928 58.9294 17.9755 59.1382C18.8886 59.3993 19.2799 60.2349 18.8886 61.2531C18.1581 63.1591 17.4015 65.0651 16.6449 66.9712C16.1492 68.2505 16.2536 68.4333 17.6624 68.4333C18.5755 68.4333 19.4886 68.3811 20.4018 68.4594C21.3671 68.5377 21.8367 68.1983 22.2019 67.2845C24.0021 62.5847 25.8805 57.9111 27.7328 53.2114C29.6895 48.2244 31.6723 43.2375 33.629 38.2505C34.0464 37.1539 33.9943 36.9973 32.8463 36.6839C31.9332 36.4228 31.0201 36.2401 30.1331 35.9268C29.2982 35.6396 28.9069 35.8484 28.5938 36.6578C27.785 38.8249 26.9241 40.9659 26.0631 43.1069C24.576 46.8928 23.089 50.6526 21.5758 54.4385C21.1584 55.509 20.2974 55.9006 19.4365 55.4568C18.706 55.0912 18.4712 54.308 18.8625 53.3419C19.9322 50.6265 21.0018 47.9111 22.0976 45.1696C23.1411 42.5064 24.1847 39.8693 25.2544 37.1539C24.9413 37.0495 24.7065 36.9711 24.4456 36.8928C16.9058 34.8302 9.33994 32.7675 1.80016 30.6787C1.2001 30.5221 0.67832 30.026 0.104357 29.6866C0 29.321 0 28.9816 0 28.6683ZM66.3449 41.4881C64.9361 41.8014 63.6316 42.2453 62.3011 42.3497C58.779 42.6892 55.2309 42.9503 51.6828 43.133C48.7608 43.2897 46.3345 44.2819 44.3778 46.5012C42.5515 48.5638 40.647 50.6004 38.7425 52.5847C37.4119 53.9685 36.7597 55.6134 36.7858 57.5195C36.8119 60.3654 36.7858 63.1852 36.7858 66.0312C36.7858 66.3445 36.8119 66.6578 36.8641 67.2845C38.0642 66.8145 39.1599 66.5273 40.047 65.979C41.7949 64.8563 42.6298 63.133 42.4993 61.0704C42.4211 59.6082 42.8646 58.5116 43.8821 57.4933C45.0822 56.2662 46.1779 54.9346 47.3259 53.6291C49.0477 51.697 50.587 51.5926 52.5176 53.3419C54.7091 55.3523 57.1354 56.8928 60.0574 57.65C62.1967 58.1983 63.5012 59.9215 64.91 61.4359C65.4318 62.0103 65.2752 62.7414 64.7013 63.2897C64.1273 63.838 63.449 63.8641 62.8229 63.3941C62.3532 63.0547 61.9358 62.6108 61.5445 62.1931C60.6314 61.1487 59.4834 60.6265 58.2051 60.1304C56.4571 59.4777 54.7874 58.5638 53.1698 57.6239C52.0219 56.945 51.0305 55.979 49.9348 55.1174C48.7608 56.4228 47.665 57.7544 46.4649 59.0077C45.7083 59.791 45.4213 60.5743 45.3953 61.6709C45.317 66.0312 41.7167 69.7388 37.4641 69.9476C35.1161 70.0521 33.8377 68.9033 33.8377 66.5534C33.8116 63.5247 33.8377 60.496 33.8377 57.4672C33.8377 54.8302 34.7508 52.5847 36.551 50.6787C38.3512 48.7727 40.1513 46.8145 41.9254 44.8824C42.1341 44.6474 42.3167 44.4124 42.6037 44.073C40.3339 43.4986 38.1946 42.9764 36.1075 42.3497C35.2726 42.1147 34.9856 42.3236 34.6987 43.0808C31.6462 50.9137 28.5416 58.7466 25.4631 66.5795C25.3587 66.8406 25.2805 67.1017 25.15 67.415C27.9676 67.9372 29.7156 69.556 30.3679 72.2453C35.1422 71.4881 36.8902 72.6631 38.4816 77.7544C40.5427 77.5978 42.3167 78.2244 43.6734 79.8432C45.0039 81.462 45.317 83.3419 44.7952 85.3785C45.1083 85.4829 45.3431 85.5612 45.604 85.6134C48.7347 86.5534 50.587 89.8432 49.5173 92.9242C49.1521 93.9946 49.3086 94.5952 50.1174 95.2218C50.3 95.3524 50.4305 95.5351 50.6131 95.6918C51.7088 96.6056 53.1177 96.5534 54.0308 95.5612C54.9178 94.6213 54.9439 93.2114 54.0569 92.1931C53.6394 91.7231 53.1959 91.3054 52.7524 90.8615C51.9436 90.026 51.8654 89.2166 52.5176 88.5638C53.1698 87.9111 54.0047 87.9894 54.8135 88.7988C55.857 89.8171 56.8745 90.8876 57.9181 91.9059C58.8051 92.7414 59.8487 92.9764 60.9966 92.5847C62.1184 92.1931 62.7446 91.3576 62.9272 90.2087C63.0837 89.1644 62.6663 88.3027 61.9358 87.5717C60.5792 86.214 59.2225 84.8563 57.8659 83.4986C57.3702 82.9764 57.1093 82.2975 57.5789 81.7492C57.892 81.3576 58.5181 81.0704 59.0138 81.0181C59.353 80.992 59.8226 81.3837 60.1357 81.6709C61.7793 83.2636 63.3446 84.9085 64.9883 86.4751C66.2145 87.65 67.9885 87.5978 69.1104 86.4751C70.2844 85.3001 70.2844 83.5247 69.1104 82.2714C68.3016 81.4098 67.4667 80.6004 66.6319 79.791C65.7709 78.9033 64.8578 78.0678 64.023 77.1539C63.4229 76.5012 63.4751 75.6918 64.049 75.1435C64.5969 74.5952 65.4057 74.5691 66.0579 75.1174C66.2927 75.3001 66.4753 75.509 66.6841 75.7179C67.9363 76.9711 69.1625 78.2244 70.4148 79.4255C71.2497 80.2349 72.2932 80.4698 73.389 80.1043C74.5108 79.7388 75.1631 78.9033 75.3718 77.7805C75.5805 76.6578 75.0848 75.7701 74.3021 74.9868C72.0584 72.7675 69.8148 70.5482 67.5711 68.3027C66.8667 67.5978 66.8406 66.7623 67.4406 66.1356C68.0407 65.509 68.8755 65.5351 69.606 66.1879C70.0496 66.5795 70.4148 67.0495 70.8844 67.415C71.0931 67.5717 71.4845 67.6761 71.6932 67.5717C72.9976 66.945 74.276 66.2662 75.6588 65.5612C72.6585 57.5195 69.5017 49.4777 66.3449 41.4881ZM36.2901 39.321C38.586 39.9215 40.8035 40.4437 42.969 41.0965C44.5343 41.5664 45.9692 41.8275 47.5346 40.9659C48.239 40.6004 48.552 40.3393 48.552 39.5299C48.526 27.7805 48.526 16.0051 48.526 4.25574C48.526 3.91632 48.4999 3.57689 48.4738 3.13303C44.9256 3.68133 41.4819 4.17742 38.0642 4.72572C32.9507 5.58734 27.8372 5.74399 22.7237 4.83016C20.7409 4.46462 18.8103 3.99465 16.7754 3.55078C16.7754 3.91632 16.7754 4.28185 16.7754 4.62128C16.7754 7.75444 16.7754 10.8876 16.7754 13.9946C16.7754 14.2819 16.8015 14.5952 16.7493 14.8824C16.6188 15.744 16.0188 16.2401 15.2361 16.214C14.4273 16.1879 13.9056 15.6396 13.8795 14.7518C13.8534 13.7074 13.8795 12.6631 13.8795 11.6187C13.8795 10.2871 13.8795 8.95548 13.8795 7.57167C13.3055 7.57167 12.862 7.57167 12.4185 7.57167C11.1662 7.57167 11.1662 7.57167 11.1662 8.85105C11.1662 15.5873 11.1662 22.3236 11.1662 29.086C11.1662 29.4516 11.1662 29.791 11.1662 30.2087C12.0793 30.4437 12.9142 30.6787 13.9056 30.9398C13.9056 30.4176 13.9056 30.0521 13.9056 29.6866C13.9056 27.0234 13.9056 24.3341 13.9056 21.6709C13.9056 20.7832 14.4534 20.2349 15.2622 20.1826C16.0971 20.1304 16.7232 20.7048 16.8275 21.5926C16.8536 21.8537 16.8536 22.1148 16.8536 22.3758C16.8536 25.2479 16.8797 28.12 16.8275 30.9659C16.8275 31.5664 17.0363 31.8014 17.5841 31.9581C20.2452 32.6631 22.9063 33.3941 25.5674 34.1252C26.0892 34.2557 26.4284 34.2819 26.8197 33.8119C27.6807 32.8458 28.8547 32.5325 30.107 32.8197C31.5419 33.1591 32.9507 33.5247 34.3334 33.9685C36.1858 34.5691 37.1511 36.4751 36.6032 38.3289C36.4988 38.6422 36.3945 38.9294 36.2901 39.321ZM82.6507 68.355C83.1724 68.355 83.6942 68.355 84.216 68.355C85.5205 68.355 85.6509 68.1461 85.1813 66.9189C83.6942 63.1069 82.1811 59.2949 80.6679 55.4829C78.1894 49.1905 75.7109 42.9241 73.2585 36.6056C72.9455 35.8223 72.5802 35.5351 71.7193 35.8484C70.8583 36.1617 69.9713 36.3445 69.0843 36.5795C67.7798 36.945 67.7276 37.0234 68.2494 38.3289C71.8758 47.5456 75.5022 56.7884 79.1547 65.979C80.3287 68.9033 79.4939 68.2766 82.6507 68.355ZM86.2249 7.62389C86.2249 15.509 86.2249 23.4202 86.2249 31.3837C86.7467 31.2531 87.2163 31.0704 87.6859 31.0181C88.7034 30.8876 88.9121 30.3654 88.9121 29.3732C88.8599 22.898 88.886 16.4228 88.886 9.94765C88.886 7.41501 88.886 7.41501 86.2249 7.62389ZM35.0639 90.8615C35.4292 90.7048 36.1858 90.5743 36.6815 90.1043C38.3251 88.5899 39.9165 86.9973 41.4558 85.3523C42.4993 84.2035 42.3428 82.4281 41.2471 81.3837C40.1774 80.3654 38.4294 80.261 37.3337 81.2792C35.6901 82.8197 34.0986 84.4124 32.5854 86.0312C31.7767 86.9189 31.6723 88.0155 32.168 89.1382C32.6637 90.2349 33.5507 90.7571 35.0639 90.8615ZM28.933 84.6213C29.2721 84.4646 30.0287 84.308 30.4983 83.8641C31.9593 82.5325 33.3681 81.1226 34.7248 79.6604C35.7683 78.5116 35.664 76.7362 34.5682 75.6657C33.4725 74.5952 31.7245 74.4907 30.5766 75.5612C29.1156 76.9189 27.7328 78.3289 26.3762 79.7649C25.5414 80.6526 25.437 81.7492 25.9327 82.8719C26.4284 84.0208 27.3415 84.543 28.933 84.6213ZM46.9084 91.6448C46.8823 89.9999 46.3606 89.086 45.2648 88.5638C44.0908 88.0155 42.969 88.1722 42.0037 89.0599C40.9862 89.9999 39.9948 90.992 39.0295 92.0103C37.8033 93.2897 37.7772 95.0129 38.9251 96.214C40.073 97.415 41.8993 97.415 43.1777 96.1617C44.143 95.2479 45.1083 94.3341 45.9692 93.3158C46.4649 92.7153 46.7258 91.9842 46.9084 91.6448ZM19.4626 75.6657C19.4887 76.6839 20.0104 77.5978 21.1323 78.12C22.228 78.6161 23.3238 78.5116 24.2369 77.7283C25.1761 76.9189 26.037 76.0312 26.8458 75.1174C27.6285 74.2035 27.7589 73.133 27.2372 72.0103C26.7154 70.9137 25.7762 70.3654 24.576 70.3393C22.802 70.2871 19.4887 73.6552 19.4626 75.6657Z" fill="#074870"/>
<path d="M67.3628 20.4696C70.4152 20.4696 73.4676 20.4696 76.5201 20.4696C77.7202 20.4696 78.4246 21.0179 78.3985 21.9579C78.3724 22.8456 77.7202 23.3939 76.5723 23.3939C70.4152 23.3939 64.2842 23.3939 58.1272 23.3939C56.9271 23.3939 56.2227 22.8195 56.2487 21.9056C56.2748 21.0179 56.9532 20.4696 58.1011 20.4696C61.2057 20.4435 64.2842 20.4696 67.3628 20.4696Z" fill="#074870"/>
<path d="M67.3623 9.66016C69.6321 9.66016 71.9018 9.66016 74.1716 9.66016C75.3717 9.66016 75.9717 10.1562 75.9717 11.0962C75.9717 12.01 75.3456 12.5844 74.1716 12.5844C69.5799 12.5844 65.0143 12.6105 60.4226 12.5844C59.3007 12.5844 58.6485 11.9839 58.6746 11.0701C58.7007 10.1823 59.3007 9.68627 60.4226 9.68627C62.7706 9.66016 65.0664 9.66016 67.3623 9.66016Z" fill="#074870"/>
<path d="M67.4677 27.1016C69.3461 27.1016 71.2506 27.1016 73.129 27.1016C74.2248 27.1016 74.8248 27.6499 74.8509 28.5376C74.8509 29.4253 74.2248 30.0258 73.1812 30.0258C69.32 30.0258 65.4327 30.0258 61.5715 30.0258C60.5279 30.0258 59.8496 29.4253 59.8496 28.5637C59.8496 27.6499 60.5018 27.1016 61.6498 27.1016C63.5804 27.1016 65.511 27.1016 67.4677 27.1016Z" fill="#074870"/>
<path d="M32.6367 20.4697C35.6892 20.4697 38.7416 20.4697 41.7941 20.4697C42.9942 20.4697 43.6986 21.018 43.6986 21.9319C43.6986 22.8457 42.9942 23.394 41.7941 23.394C35.6892 23.394 29.5582 23.394 23.4533 23.394C22.2271 23.394 21.5488 22.8457 21.5488 21.9319C21.5488 21.018 22.2271 20.4697 23.4533 20.4697C26.5319 20.4697 29.5843 20.4697 32.6367 20.4697Z" fill="#074870"/>
<path d="M32.6646 9.66082C34.9344 9.66082 37.2041 9.66082 39.4739 9.66082C40.6479 9.66082 41.2741 10.183 41.248 11.123C41.248 12.0368 40.5957 12.5851 39.4478 12.5851C34.8561 12.5851 30.2905 12.5851 25.6988 12.5851C24.9683 12.5851 24.2639 12.3762 24.0813 11.619C23.9769 11.1491 24.1334 10.4963 24.4204 10.1308C24.6552 9.81748 25.2814 9.68693 25.7249 9.68693C28.0468 9.63471 30.3688 9.66082 32.6646 9.66082Z" fill="#074870"/>
<path d="M32.6641 27.1016C34.5947 27.1016 36.4992 27.1016 38.4298 27.1016C39.4995 27.1016 40.1517 27.676 40.1778 28.5376C40.2039 29.3992 39.5256 30.0258 38.482 30.0258C34.5686 30.052 30.6813 30.052 26.7679 30.0258C25.7765 30.0258 25.1504 29.4514 25.1504 28.5898C25.1504 27.676 25.7504 27.1277 26.8201 27.1016C28.7507 27.1016 30.7074 27.1016 32.6641 27.1016Z" fill="#074870"/>
</g>
<defs>
<clipPath id="clip0_1509_8411">
<rect width="100" height="100" fill="white"/>
</clipPath>
</defs>
</svg>
