<svg width="90" height="82" viewBox="0 0 90 82" fill="none" xmlns="http://www.w3.org/2000/svg">
<rect y="4.60693" width="82.4773" height="76.4424" rx="10" fill="#074870" fill-opacity="0.1"/>
<path d="M89.8914 64.8602C89.5479 65.8286 89.1184 66.7754 88.1306 67.2488C87.5509 67.5286 86.8637 67.7438 86.2196 67.7653C82.0538 67.8084 77.9096 67.7868 73.7438 67.7868C72.7775 67.7868 72.2622 67.3564 72.2837 66.5817C72.2837 65.8286 72.8205 65.3766 73.7868 65.3766C77.8022 65.3766 81.8391 65.3766 85.8545 65.3766C87.0999 65.3766 87.4865 65.0108 87.4865 63.7411C87.4865 49.6027 87.4865 35.4428 87.4865 21.3044C87.4865 21.0677 87.4865 20.831 87.4865 20.4867C86.1337 20.4867 84.8238 20.4867 83.514 20.4867C82.7839 20.4867 82.0538 20.5082 81.3452 20.4867C80.5078 20.4652 80.0139 20.0133 80.0354 19.2816C80.0354 18.5714 80.5078 18.098 81.3667 18.0765C83.1919 18.055 85.0171 18.0765 86.8423 18.055C87.0355 18.055 87.2073 18.0335 87.5079 18.0119C87.5079 17.6676 87.5079 17.3233 87.5079 16.979C87.5079 15.2789 87.5079 13.6004 87.5079 11.9004C87.5079 11.0181 87.0999 10.5446 86.284 10.5446C80.1427 10.5231 74.0015 10.5446 67.8388 10.5446C67.7744 10.5446 67.7099 10.5877 67.4952 10.6522C68.3327 11.47 69.0842 12.2662 69.9002 12.9979C70.802 13.8156 71.2315 14.784 71.1456 15.9891C71.1027 16.6347 71.1456 17.2587 71.1456 18.055C71.8542 18.055 72.5199 18.055 73.1855 18.055C74.023 18.055 74.8604 18.0335 75.6764 18.0765C76.4065 18.1195 76.8359 18.6145 76.8144 19.2816C76.793 19.9487 76.3635 20.4221 75.6334 20.4436C74.4524 20.4867 73.2714 20.4652 72.0904 20.4652C71.8113 20.4652 71.5106 20.4652 71.1885 20.4652C71.1885 25.1564 71.1885 29.7401 71.1885 34.3669C72.2837 34.3669 73.3788 34.3669 74.6027 34.3669C74.6027 33.9149 74.5813 33.4415 74.6027 32.9681C74.6457 32.1073 75.0537 31.6339 75.7837 31.6339C76.5138 31.6339 77.0721 32.1073 76.9862 32.9466C76.8574 34.1732 77.3083 34.6251 78.4893 34.9909C81.882 36.0454 84.1152 39.2518 84.1582 42.8025C84.2011 45.6647 84.1796 48.5483 84.1796 51.4104C84.1367 56.2738 80.7225 59.8461 75.8911 60.1258C75.6764 60.1474 75.4616 60.1474 75.2469 60.1474C60.0227 60.1474 44.8199 60.1474 29.5956 60.1474C28.6508 60.1474 27.706 60.0182 27.1262 59.222C26.7182 58.6625 26.3747 57.9308 26.3747 57.2637C26.3102 53.0459 26.3317 48.828 26.3317 44.6102C26.3317 43.6849 26.7612 43.1899 27.4913 43.1899C28.2428 43.1684 28.7367 43.7064 28.7367 44.6317C28.7367 48.6774 28.7582 52.7446 28.7367 56.7903C28.7367 57.5005 28.9514 57.7156 29.66 57.7156C39.559 57.6941 49.458 57.6941 59.3785 57.6941C59.5288 57.6941 59.6791 57.6726 59.8079 57.6726C59.8294 57.5865 59.8509 57.5435 59.8294 57.5435C57.811 55.37 57.2956 52.7446 57.403 49.8825C57.4889 47.7305 57.4244 45.5786 57.4244 43.4481C57.4244 38.929 59.8079 35.8087 64.1669 34.6251C64.2958 34.582 64.4246 34.539 64.6178 34.4744C64.6178 33.9149 64.5964 33.3554 64.6178 32.8174C64.6608 32.0643 65.1117 31.6339 65.7774 31.6339C66.443 31.6123 66.9154 32.0212 67.0013 32.7529C67.0443 33.0111 67.0228 33.2909 67.0228 33.5491C67.0228 33.7858 67.0228 34.0225 67.0228 34.3453C67.5811 34.3453 68.0965 34.3453 68.6762 34.3453C68.6762 28.2553 68.6762 22.1437 68.6762 15.9245C68.3756 15.9245 68.0965 15.9245 67.7958 15.9245C64.8111 15.9245 61.8479 15.9245 58.8631 15.9245C56.222 15.9245 55.2557 14.9777 55.2557 12.3523C55.2557 9.40408 55.2557 6.45589 55.2557 3.48618C55.2557 3.16339 55.2557 2.86211 55.2557 2.47476C54.9121 2.45324 54.6544 2.43172 54.3968 2.43172C46.1941 2.43172 37.97 2.43172 29.7674 2.4102C28.9299 2.4102 28.7367 2.66843 28.7367 3.46466C28.7582 14.9777 28.7582 26.4907 28.7582 38.0037C28.7582 38.3695 28.7582 38.7569 28.6293 39.1227C28.4361 39.7037 27.9637 39.9404 27.3624 39.8759C26.7827 39.8113 26.4391 39.4455 26.3532 38.886C26.3102 38.6277 26.3317 38.348 26.3317 38.0897C26.3317 32.5592 26.3317 27.0287 26.3317 21.4981C26.3317 21.1753 26.3317 20.8525 26.3317 20.4867C20.8561 20.4867 15.445 20.4867 9.92645 20.4867C9.92645 20.7664 9.92645 21.0677 9.92645 21.3475C9.92645 35.4428 9.92645 49.5382 9.92645 63.6335C9.92645 64.9893 10.27 65.3336 11.6443 65.3336C30.1324 65.3336 48.6206 65.3336 67.1302 65.3336C67.4952 65.3336 67.8817 65.3336 68.2468 65.4197C68.8695 65.5918 69.1701 66.0653 69.0842 66.7109C69.0198 67.3134 68.6548 67.6792 68.032 67.7438C67.7314 67.7653 67.4523 67.7653 67.1517 67.7653C48.7709 67.7653 30.3901 67.7438 11.9878 67.7868C9.73319 67.7868 8.20862 67.0121 7.52148 64.8386C7.52148 46.8482 7.52148 28.8578 7.52148 10.8674C8.33745 8.71545 9.92645 8.0053 12.1811 8.04834C16.5401 8.15594 20.9206 8.06986 25.301 8.06986C25.6231 8.06986 25.9237 8.06986 26.2029 8.06986C26.2673 7.91922 26.3317 7.87618 26.3317 7.83315C26.3532 6.30525 26.3532 4.77736 26.3532 3.24946C26.3532 1.07598 27.4054 0.0215196 29.5527 0.0215196C38.1847 0.0215196 46.8168 0.0215196 55.4489 0C56.5441 0 57.403 0.365834 58.1545 1.14054C60.1085 3.14187 62.127 5.05711 64.0596 7.07996C64.7467 7.79011 65.4123 8.09138 66.4216 8.06986C72.9923 8.02682 79.563 8.04834 86.1337 8.04834C88.0018 8.04834 89.1399 8.84457 89.827 10.5661C89.8699 10.6522 89.9344 10.7383 89.9988 10.8244C89.8914 28.8793 89.8914 46.8698 89.8914 64.8602ZM70.7591 36.9707C70.7591 36.9277 70.7591 36.9062 70.7591 36.8631C69.1701 36.8631 67.6026 36.8416 66.0136 36.8631C62.3417 36.9492 59.7865 39.5531 59.765 43.2329C59.765 45.9659 59.7435 48.6989 59.765 51.4319C59.7865 54.9827 62.2988 57.6296 65.8418 57.7156C69.1057 57.8017 72.391 57.8017 75.6549 57.7156C79.1765 57.6296 81.6673 55.0042 81.6888 51.4965C81.7103 48.5913 81.7317 45.7077 81.6673 42.8025C81.6244 39.8328 79.4127 37.2935 76.4494 36.9922C74.5813 36.8201 72.6702 36.9707 70.7591 36.9707ZM9.86203 17.9904C15.3806 17.9904 20.7702 17.9904 26.1814 17.9904C26.1814 15.4726 26.1814 13.0409 26.1814 10.5231C25.4513 10.5231 24.7857 10.5231 24.0985 10.5231C19.8684 10.5231 15.6168 10.5231 11.3866 10.5231C10.3988 10.5231 9.86203 10.8674 9.86203 11.6636C9.84055 13.7726 9.86203 15.86 9.86203 17.9904ZM57.6606 4.41152C57.6392 4.62672 57.6177 4.8204 57.6177 4.99255C57.6177 7.53187 57.6392 10.0927 57.5962 12.632C57.5962 13.3422 57.8324 13.5574 58.541 13.5574C61.0963 13.5358 63.6301 13.5574 66.1854 13.5358C66.3786 13.5358 66.5719 13.4928 66.7222 13.4713C63.6945 10.437 60.7098 7.46731 57.6606 4.41152Z" fill="#3E6F8D"/>
<path d="M48.7491 19.2603C52.829 19.2603 56.9088 19.2603 60.9887 19.2603C61.2463 19.2603 61.5255 19.2387 61.7832 19.2818C62.4273 19.3894 62.7924 19.7767 62.8138 20.4223C62.8353 21.0679 62.4703 21.4768 61.8476 21.6274C61.5899 21.692 61.3107 21.6705 61.0531 21.6705C52.786 21.6705 44.519 21.6705 36.2519 21.6705C35.9942 21.6705 35.7151 21.692 35.4574 21.6274C34.8347 21.4768 34.4697 21.0679 34.4911 20.4223C34.5126 19.7767 34.8991 19.3894 35.5218 19.2818C35.7795 19.2387 36.0587 19.2603 36.3163 19.2603C40.4821 19.2603 44.6049 19.2603 48.7491 19.2603Z" fill="#3E6F8D"/>
<path d="M13.4907 28.3843C13.4907 27.5881 13.4692 26.7703 13.4907 25.9741C13.5551 24.6829 14.3067 23.9512 15.5951 23.9297C17.2485 23.9082 18.9234 23.9082 20.5768 23.9297C21.8222 23.9512 22.5952 24.6829 22.6382 25.9095C22.6811 27.6311 22.6811 29.3311 22.6382 31.0527C22.5952 32.2793 21.8222 33.054 20.5982 33.0756C18.9019 33.1186 17.227 33.1186 15.5306 33.0756C14.3067 33.0325 13.5766 32.2578 13.4907 31.0312C13.4907 30.9882 13.4907 30.9236 13.4907 30.8806C13.4692 30.0413 13.4692 29.202 13.4907 28.3843C13.4692 28.3843 13.4692 28.3843 13.4907 28.3843ZM20.1688 30.6223C20.1688 29.1805 20.1688 27.7817 20.1688 26.383C18.7301 26.383 17.3344 26.383 15.9386 26.383C15.9386 27.8248 15.9386 29.202 15.9386 30.6223C17.3773 30.6223 18.7516 30.6223 20.1688 30.6223Z" fill="#3E6F8D"/>
<path d="M18.0649 36.7984C18.9024 36.7984 19.7183 36.7769 20.5558 36.7984C21.8012 36.8199 22.5957 37.53 22.6172 38.7782C22.6601 40.4997 22.6601 42.1998 22.6172 43.9214C22.5957 45.1265 21.8441 45.9012 20.6631 45.9442C18.9238 46.0088 17.1845 46.0088 15.4452 45.9442C14.2857 45.9012 13.5341 45.1265 13.4912 43.9859C13.4482 42.2428 13.4482 40.4998 13.4912 38.7567C13.5341 37.53 14.3286 36.8199 15.5741 36.7769C16.4115 36.7984 17.2489 36.7984 18.0649 36.7984ZM20.1693 43.534C20.1693 42.0492 20.1693 40.6719 20.1693 39.2731C18.7306 39.2731 17.3563 39.2731 15.9606 39.2731C15.9606 40.7149 15.9606 42.1137 15.9606 43.534C17.3993 43.534 18.752 43.534 20.1693 43.534Z" fill="#3E6F8D"/>
<path d="M13.4904 54.165C13.4904 53.3688 13.4689 52.5511 13.4904 51.7548C13.5548 50.4637 14.3063 49.7105 15.5732 49.7105C17.2267 49.689 18.9015 49.689 20.555 49.7105C21.8004 49.732 22.5949 50.4421 22.6163 51.6903C22.6593 53.4119 22.6593 55.1119 22.6163 56.8335C22.5734 58.0601 21.8004 58.8348 20.5764 58.8563C18.8801 58.8994 17.2052 58.8994 15.5088 58.8563C14.2849 58.8133 13.5333 58.0386 13.4689 56.812C13.4474 55.9297 13.4904 55.0473 13.4904 54.165ZM15.9598 52.1637C15.9598 53.6271 15.9598 55.0043 15.9598 56.4031C17.3984 56.4031 18.7727 56.4031 20.1899 56.4031C20.1899 54.9613 20.1899 53.584 20.1899 52.1637C18.7727 52.1637 17.3984 52.1637 15.9598 52.1637Z" fill="#3E6F8D"/>
<path d="M44.7544 27.7174C41.8556 27.7174 38.9567 27.7389 36.0579 27.6958C35.6284 27.6958 35.1131 27.5667 34.834 27.287C34.1683 26.7059 34.5119 25.6084 35.3708 25.3717C35.6714 25.2856 36.015 25.2856 36.3371 25.2856C41.9844 25.2856 47.6533 25.2856 53.3006 25.2856C53.4295 25.2856 53.5583 25.2856 53.7086 25.2856C54.6749 25.3287 55.1688 25.7591 55.1473 26.5338C55.1258 27.2655 54.6319 27.6743 53.7086 27.6958C50.7024 27.7174 47.7177 27.7174 44.7544 27.7174Z" fill="#3E6F8D"/>
<path d="M44.6254 36.3037C47.5457 36.3037 50.466 36.3037 53.3863 36.3037C54.2238 36.3037 54.6962 36.6695 54.7821 37.3367C54.868 38.0898 54.3956 38.6709 53.5581 38.7139C52.7636 38.757 51.9477 38.7354 51.1532 38.7354C46.2359 38.7354 41.3401 38.7354 36.4228 38.7354C36.1866 38.7354 35.9289 38.7569 35.6927 38.7354C34.9412 38.6494 34.4688 38.1759 34.4688 37.4873C34.4902 36.8202 34.9841 36.3468 35.7571 36.3252C38.5486 36.3037 41.3401 36.3252 44.1315 36.3252C44.3033 36.3037 44.4751 36.3037 44.6254 36.3037Z" fill="#3E6F8D"/>
<path d="M44.6475 44.7608C41.7701 44.7608 38.9143 44.7608 36.0369 44.7608C35.0706 44.7608 34.5338 44.3519 34.5123 43.6202C34.4908 42.8455 35.0491 42.3506 36.0369 42.3506C41.8131 42.3506 47.5678 42.3506 53.344 42.3506C54.3103 42.3506 54.8257 42.8025 54.8257 43.5557C54.8257 44.3304 54.3103 44.7608 53.344 44.7608C50.4237 44.7608 47.5249 44.7608 44.6475 44.7608Z" fill="#3E6F8D"/>
<path d="M42.9514 15.602C40.7183 15.602 38.5066 15.602 36.2734 15.602C36.0157 15.602 35.7366 15.6235 35.4789 15.5589C34.8776 15.4298 34.4482 15.0209 34.5556 14.4399C34.62 14.0095 35.0065 13.6006 35.35 13.2778C35.5218 13.1272 35.9083 13.1702 36.209 13.1702C40.7827 13.1702 45.3779 13.1702 49.9516 13.1702C50.1449 13.1702 50.3381 13.1702 50.5099 13.1918C51.197 13.2994 51.648 13.7943 51.5835 14.4614C51.5191 15.15 51.1111 15.5374 50.4455 15.5804C49.6725 15.6235 48.8994 15.602 48.1049 15.602C46.3656 15.602 44.6478 15.602 42.9514 15.602Z" fill="#3E6F8D"/>
<path d="M43.08 7.16602C45.4205 7.16602 47.7396 7.16602 50.0801 7.16602C51.0464 7.16602 51.5618 7.59641 51.5618 8.3496C51.5618 9.10278 51.0464 9.57621 50.0801 9.57621C45.3561 9.57621 40.6535 9.57621 35.9295 9.57621C35.0062 9.57621 34.4479 9.08126 34.4693 8.32808C34.4908 7.59641 35.0062 7.16602 35.908 7.16602C38.313 7.16602 40.6965 7.16602 43.08 7.16602Z" fill="#3E6F8D"/>
<path d="M50.1016 48.419C51.2182 48.419 52.3563 48.3975 53.4729 48.419C54.2888 48.4405 54.7827 48.8924 54.7827 49.6026C54.7827 50.3127 54.2888 50.8077 53.4729 50.8077C51.2397 50.8292 49.028 50.8292 46.7948 50.8077C45.9359 50.8077 45.3991 50.2912 45.4205 49.5595C45.442 48.8709 45.9574 48.419 46.7733 48.3975C47.9114 48.419 49.0065 48.419 50.1016 48.419Z" fill="#3E6F8D"/>
<path d="M59.8936 27.7173C59.3139 27.7173 58.7126 27.7388 58.1329 27.7173C57.4243 27.6743 56.9519 27.1793 56.9304 26.5552C56.9089 25.9312 57.3813 25.3717 58.0685 25.3502C59.2709 25.3071 60.4734 25.3071 61.6759 25.3502C62.3845 25.3717 62.8354 25.9097 62.8354 26.5552C62.8354 27.2008 62.3845 27.6743 61.6544 27.7173C61.0747 27.7388 60.4734 27.7173 59.8936 27.7173Z" fill="#3E6F8D"/>
<path d="M36.4033 48.4187C36.618 48.4187 36.8327 48.3972 37.0475 48.4187C37.7561 48.4618 38.207 48.9352 38.2285 49.5808C38.25 50.2264 37.799 50.7429 37.1119 50.8074C36.6824 50.8505 36.253 50.8289 35.8235 50.8289C35.029 50.7859 34.5137 50.291 34.5137 49.6023C34.5137 48.9137 35.029 48.4403 35.845 48.4187C36.0168 48.4187 36.21 48.4187 36.4033 48.4187Z" fill="#3E6F8D"/>
<path d="M41.8779 48.4187C42.0926 48.4187 42.3073 48.3972 42.5221 48.4187C43.2307 48.4618 43.6816 48.9352 43.7031 49.5808C43.7245 50.2264 43.2736 50.7429 42.565 50.8074C42.1356 50.8505 41.7061 50.8289 41.2766 50.8289C40.4821 50.7859 39.9668 50.291 39.9668 49.6023C39.9668 48.9137 40.4821 48.4403 41.2981 48.4187C41.4914 48.4187 41.6846 48.4187 41.8779 48.4187Z" fill="#3E6F8D"/>
<path d="M76.429 14.2678C76.4505 14.9564 75.9566 15.4729 75.2265 15.4944C74.475 15.5375 73.8952 15.0425 73.8952 14.3324C73.8737 13.6437 74.3676 13.1488 75.0977 13.1057C75.8492 13.0627 76.4075 13.5361 76.429 14.2678Z" fill="#3E6F8D"/>
<path d="M80.7669 14.2673C80.7884 14.9559 80.2945 15.4508 79.5644 15.4939C78.8129 15.5369 78.2546 15.0204 78.2331 14.3103C78.2116 13.6217 78.7055 13.1267 79.4356 13.0837C80.2086 13.0622 80.7669 13.5571 80.7669 14.2673Z" fill="#3E6F8D"/>
<path d="M83.8357 15.4941C83.0842 15.4941 82.5473 14.9562 82.5903 14.246C82.6118 13.5574 83.1486 13.1055 83.8787 13.1055C84.6087 13.1055 85.1241 13.6004 85.1241 14.289C85.1241 14.9777 84.5873 15.4941 83.8357 15.4941Z" fill="#3E6F8D"/>
<path d="M70.7374 40.0264C72.1546 40.0264 73.5718 40.0049 75.0105 40.0264C77.1793 40.0479 78.575 41.4467 78.5965 43.5987C78.6179 45.0405 78.6179 46.5038 78.5965 47.9456C78.575 50.0545 77.1363 51.4748 75.0534 51.4964C72.1761 51.5179 69.3202 51.5179 66.4428 51.4964C64.3814 51.4964 62.9427 50.0976 62.8998 48.0317C62.8568 46.5253 62.8783 45.019 62.8998 43.5126C62.9427 41.4252 64.3385 40.0479 66.4214 40.0049C67.8386 40.0049 69.2772 40.0264 70.7374 40.0264ZM70.6945 49.0862C72.0902 49.0862 73.4859 49.0862 74.8817 49.0862C75.805 49.0862 76.17 48.7419 76.17 47.838C76.1915 46.4393 76.1915 45.0405 76.17 43.6632C76.17 42.7809 75.8265 42.4366 74.9461 42.4366C72.1331 42.4151 69.3202 42.4151 66.5072 42.4366C65.6269 42.4366 65.3048 42.7809 65.2833 43.6632C65.2618 45.062 65.2618 46.4608 65.2833 47.838C65.3048 48.7203 65.6483 49.0646 66.5072 49.0646C67.903 49.0862 69.2987 49.0862 70.6945 49.0862Z" fill="#3E6F8D"/>
<path d="M69.7923 45.7508C69.7923 46.5255 69.2984 47.0419 68.5898 47.0419C67.9242 47.0419 67.4088 46.5255 67.3873 45.7938C67.3659 45.0621 67.9027 44.4596 68.5683 44.4596C69.277 44.4381 69.7923 44.9976 69.7923 45.7508Z" fill="#3E6F8D"/>
<path d="M72.8633 44.4595C73.529 44.4595 74.0872 45.062 74.0872 45.7722C74.0872 46.4823 73.5719 47.0203 72.9062 47.0418C72.1762 47.0633 71.6823 46.5469 71.6823 45.7722C71.6608 45.019 72.1762 44.4595 72.8633 44.4595Z" fill="#3E6F8D"/>
</svg>
