<svg width="90" height="75" viewBox="0 0 90 75" fill="none" xmlns="http://www.w3.org/2000/svg">
<rect width="80.6741" height="74.7711" rx="10" fill="#074870" fill-opacity="0.1"/>
<g clip-path="url(#clip0_1509_8557)">
<path d="M89.9999 41.5088C89.8478 42.2266 89.7174 42.9226 89.5435 43.6403C87.7175 51.4485 80.7181 57.1253 72.7187 57.1253C55.6114 57.1688 38.5041 57.1688 21.375 57.1253C13.0061 57.1035 6.37622 50.0565 6.72402 41.6393C7.00661 34.6141 12.6801 28.5459 19.636 27.8064C20.3751 27.7411 20.7446 27.5454 20.9403 26.7406C21.4837 24.5874 22.5054 22.6516 23.9183 20.9116C24.5052 20.1939 25.2225 20.0416 25.8094 20.5201C26.3746 20.9769 26.3964 21.6946 25.8529 22.3906C24.3748 24.2611 23.4183 26.3491 22.9836 28.6764C22.7879 29.6986 22.288 30.0466 21.1142 30.0901C14.4191 30.3076 9.13687 35.7451 9.15861 42.4223C9.18035 48.9908 14.6147 54.5588 21.1794 54.624C26.9615 54.6893 32.7219 54.6458 38.5041 54.6458C49.8945 54.6458 61.2849 54.6675 72.6752 54.6458C79.7399 54.624 85.8916 49.5128 87.2828 42.5963C88.8696 34.7011 83.7178 26.8494 75.8054 25.2181C74.6751 24.9789 74.1751 24.4134 73.936 23.3259C72.4144 15.9744 67.1105 10.6022 59.7198 9.36244C52.5682 8.16619 46.6991 10.6022 42.3299 16.4094C41.5473 17.4534 40.8082 17.8014 39.5257 17.4969C36.4608 16.8009 33.5045 17.2142 30.6569 18.5627C30.4612 18.6497 30.2656 18.7584 30.07 18.8454C29.3744 19.1282 28.7005 18.9107 28.3962 18.3234C28.1136 17.7144 28.3092 16.9532 29.0048 16.6922C30.7004 16.0614 32.3741 15.2784 34.1349 15.0174C35.9608 14.7347 37.852 14.9739 39.6996 15.0609C40.1996 15.0827 40.3735 14.8869 40.6126 14.5824C43.8732 10.4064 48.0903 7.83994 53.329 6.92645C63.6325 5.14296 73.7839 11.8419 76.175 22.0644C76.3271 22.6734 76.588 22.9344 77.1966 23.0866C84.0222 24.9136 89 30.6121 89.8913 37.6373C89.913 37.7896 89.9782 37.9418 90.0434 38.0941C89.9999 39.2251 89.9999 40.3561 89.9999 41.5088Z" fill="#3E6F8D"/>
<path d="M54.1114 40.5516C53.8722 40.4864 53.6331 40.4429 53.4158 40.3776C51.9594 39.9426 51.4159 38.2244 52.4593 37.1369C54.0461 35.4621 55.6764 33.8309 57.3502 32.2431C58.3719 31.2861 59.9587 31.2861 60.9804 32.2431C62.6324 33.8091 64.2192 35.4404 65.8278 37.0716C66.4147 37.6589 66.5451 38.4201 66.2408 39.1814C65.9148 39.9861 65.2626 40.5516 64.4366 40.4429C63.0237 40.2471 62.5672 40.9431 62.0238 42.0959C57.8937 51.0133 46.4163 53.6016 38.8082 47.3593C37.3953 46.2066 37.3301 45.0103 38.6126 43.7271C39.1995 43.1398 39.8082 42.5308 40.3951 41.9436C41.5906 40.7691 42.3949 40.7039 43.7426 41.7044C46.8293 43.9881 50.8507 43.7923 53.5897 41.2476C53.807 41.0519 54.1114 40.9431 54.3722 40.7909C54.2635 40.7256 54.1766 40.6386 54.1114 40.5516ZM40.3299 45.4888C40.569 45.6846 40.7646 45.8586 40.982 46.0108C47.851 51.0133 57.8502 47.7073 60.3935 39.5946C60.8499 38.1591 60.9586 38.0721 62.4368 38.0504C62.6759 38.0504 62.8933 38.0504 63.328 38.0504C61.9368 36.6584 60.7195 35.3969 59.4588 34.2006C59.3501 34.0919 58.8936 34.1354 58.7197 34.2876C58.1545 34.7879 57.6328 35.3534 57.0894 35.8754C56.4155 36.5496 55.7417 37.2239 54.9156 38.0504C55.5026 38.0504 55.8503 38.0504 56.1981 38.0504C57.3937 38.0721 57.9154 38.8769 57.4372 39.9426C55.7199 43.8358 51.1551 46.2936 46.9598 45.6411C45.1773 45.3583 43.5905 44.6841 42.1558 43.6401C41.5472 44.2708 40.9602 44.8581 40.3299 45.4888Z" fill="#3E6F8D"/>
<path d="M42.6339 30.6773C43.1991 31.0035 43.8077 31.1992 44.2425 31.5907C45.0033 32.3302 44.9815 33.5047 44.2207 34.3095C42.6556 35.919 41.0688 37.5285 39.4385 39.0727C38.3516 40.095 36.7431 40.0732 35.6779 39.051C34.0694 37.5067 32.5043 35.919 30.9609 34.3312C30.3305 33.7005 30.1784 32.8957 30.5479 32.0692C30.8957 31.2863 31.5478 30.786 32.4173 30.8948C33.6346 31.047 34.1346 30.5685 34.6345 29.4593C36.4387 25.392 39.5472 22.6515 43.8077 21.2595C44.7424 20.955 45.5684 21.477 45.5467 22.347C45.525 23.043 45.1119 23.391 44.4598 23.6085C42.4817 24.2393 40.7862 25.305 39.3298 26.784C37.9386 28.1978 36.917 29.8508 36.3083 31.743C35.8301 33.222 35.7214 33.309 34.1998 33.3307C34.0041 33.3307 33.8302 33.3307 33.4172 33.3307C34.0041 33.918 34.4606 34.3965 34.9171 34.875C35.6127 35.5927 36.3083 36.3322 37.0691 36.9847C37.2648 37.1587 37.7865 37.2457 37.9169 37.137C39.1776 35.9625 40.3732 34.7227 41.7427 33.3525C41.2644 33.3525 40.9818 33.3525 40.6993 33.3525C39.1994 33.3307 38.7212 32.526 39.395 31.1558C42.047 25.827 48.8508 24 53.8504 27.2625C54.0677 27.4148 54.3069 27.567 54.546 27.7193C55.1329 27.1103 55.7198 26.5013 56.3284 25.8705C54.7416 24.522 52.8939 23.6955 50.8506 23.2823C50.5028 23.217 50.155 23.1953 49.8072 23.0865C49.1551 22.8908 48.8073 22.434 48.8725 21.7598C48.9377 21.1073 49.5029 20.6288 50.1985 20.7158C53.3504 21.1073 56.1545 22.3253 58.4804 24.522C59.2412 25.2398 59.2847 26.3925 58.5891 27.1755C57.7414 28.1325 56.8284 29.0243 55.8937 29.8725C55.1111 30.5903 54.133 30.525 53.1548 29.7638C51.3941 28.3935 49.4159 27.8498 47.1987 28.176C45.3293 28.4588 43.786 29.307 42.6339 30.6773Z" fill="#3E6F8D"/>
</g>
<defs>
<clipPath id="clip0_1509_8557">
<rect width="83.2977" height="50.5033" fill="white" transform="translate(6.70312 6.64355)"/>
</clipPath>
</defs>
</svg>
