<svg width="90" height="92" viewBox="0 0 90 92" fill="none" xmlns="http://www.w3.org/2000/svg">
<rect y="11.2388" width="87.0156" height="80.6486" rx="10" fill="#074870" fill-opacity="0.1"/>
<path d="M33.0761 88.442C31.896 87.9806 30.6464 87.6807 29.582 87.0578C26.8747 85.4428 25.3937 82.9742 25.2549 79.8135C25.1855 78.0601 25.2317 76.3068 25.2317 74.5995C23.9359 74.4842 22.7558 74.5072 21.6219 74.2765C17.3411 73.4229 14.4486 70.862 12.8751 66.7785C12.5049 65.8326 12.7594 65.0943 13.4768 64.8175C14.2635 64.5176 14.9114 64.8867 15.3048 65.9018C16.9246 70.0776 20.5112 72.2924 24.9541 71.9002C29.42 71.485 32.9835 67.4706 32.9604 62.8795C32.9373 58.2884 29.3969 54.3433 24.9541 53.9281C20.4881 53.5128 16.7857 55.866 15.2354 60.088C14.8883 61.0569 14.2867 61.4492 13.4999 61.1954C12.7363 60.9647 12.4586 60.2264 12.7826 59.2805C14.3329 54.4356 19.0997 51.1134 24.2136 51.2749C24.4913 51.2749 24.7921 51.298 25.1392 51.3211C25.1392 49.8907 25.1392 48.5064 25.1392 47.1222C17.6188 47.7451 12.2735 41.7236 12.1809 35.5406C12.0884 29.7268 17.1097 23.0824 25.2317 23.7514C25.2317 22.5748 25.2317 21.3982 25.2317 20.2216C25.2317 19.8294 25.2317 19.4141 25.2317 19.0219C25.2549 18.0991 25.7177 17.5915 26.4813 17.5684C27.268 17.5454 27.8002 18.076 27.8234 19.045C27.8465 19.9909 27.9159 20.9598 27.8234 21.8827C27.6383 23.5669 28.1011 24.5358 29.7671 25.4587C33.9323 27.7657 35.876 31.5724 35.5289 36.325C35.1818 40.9161 32.729 44.146 28.587 46.084C28.0316 46.3378 27.8002 46.5915 27.8234 47.2145C27.8697 48.5295 27.8465 49.8676 27.8234 51.1826C27.8234 51.6671 27.9159 51.944 28.425 52.1516C32.9835 54.2511 35.5289 57.804 35.552 62.8334C35.552 67.909 33.0067 71.485 28.4019 73.5844C27.9622 73.792 27.8234 74.0227 27.8234 74.4842C27.8465 76.0991 27.8002 77.7141 27.8465 79.329C27.9159 83.1357 30.6927 85.835 34.4876 85.8581C45.5715 85.8812 56.6555 85.8812 67.7394 85.8581C71.488 85.8581 74.2416 83.1819 74.3573 79.4213C74.4036 77.8294 74.3342 76.2606 74.3805 74.6687C74.4036 74.0689 74.1954 73.792 73.6169 73.5383C67.1609 70.7236 64.6387 62.9257 68.2484 56.9273C68.7344 56.1198 69.3129 55.3354 70.0071 54.6894C71.2566 53.5128 72.6219 52.4515 73.9177 51.3211C74.1491 51.1365 74.3111 50.7674 74.3342 50.4905C74.3805 49.4062 74.3342 48.2988 74.3573 47.2145C74.3805 46.6377 74.1954 46.3608 73.6631 46.1301C70.4467 44.7459 68.2716 42.3465 67.1609 39.0243C66.9295 38.3553 67.1146 37.8016 67.6931 37.4555C68.2484 37.1325 68.8269 37.1786 69.2666 37.6631C69.498 37.9169 69.6137 38.263 69.7294 38.5629C71.0021 41.7697 73.316 43.7769 76.7176 44.3306C80.3968 44.9304 83.4744 43.7077 85.6495 40.6623C87.7784 37.6631 87.9866 34.364 86.228 31.1341C84.4694 27.9042 81.6001 26.2892 77.8977 26.4046C74.1491 26.5199 71.0021 28.8731 69.7063 32.403C69.66 32.5414 69.6137 32.6798 69.5674 32.8183C69.2435 33.6027 68.5724 33.9487 67.8551 33.6949C67.184 33.4642 66.8832 32.7721 67.1146 31.9877C67.9708 29.2653 69.6137 27.1428 72.0202 25.6202C72.5756 25.2741 73.1772 24.9511 73.7788 24.7204C74.2416 24.5358 74.3573 24.282 74.3573 23.8206C74.3342 18.9527 74.3805 14.0847 74.3342 9.23987C74.2879 5.3409 71.5111 2.64161 67.6237 2.64161C56.586 2.64161 45.5715 2.64161 34.5339 2.64161C30.6464 2.61854 27.9159 5.31783 27.8234 9.19372C27.8002 10.2781 27.8234 11.3855 27.8234 12.4698C27.8002 13.508 27.3375 14.0617 26.5276 14.0617C25.6945 14.0617 25.2317 13.508 25.2549 12.4698C25.3012 10.6933 25.1855 8.87073 25.5094 7.14042C26.2499 3.05688 29.906 0.0576771 34.1174 0.0346062C45.4327 -0.0115354 56.748 -0.0115354 68.0633 0.0346062C72.8764 0.0576771 76.787 3.86436 76.9258 8.6631C77.0415 13.3465 76.9721 18.0529 76.9721 22.7363C76.9721 23.0824 76.9721 23.4054 76.9721 23.8206C81.0216 23.5207 84.4 24.7665 87.061 27.7196C89.051 29.9344 89.9998 32.5645 89.9998 35.5406C89.9998 41.7928 84.5388 47.722 77.0415 47.076C77.0415 48.0681 77.0415 49.0601 77.0415 50.006C78.106 50.0983 79.1472 50.0291 80.0728 50.3059C81.2298 50.652 82.3868 51.2057 83.3818 51.8748C84.4462 52.59 85.3718 53.5359 86.3206 54.4126C89.8841 57.7578 90.9716 62.9257 89.0742 67.4245C87.1536 71.9233 82.6876 74.7379 77.8051 74.5303C77.5738 74.5303 77.3424 74.5303 76.9721 74.5303C76.9721 74.8994 76.9721 75.2455 76.9721 75.6146C76.9258 77.3911 77.0647 79.2137 76.8101 80.944C76.2085 84.7507 73.3392 87.5423 69.498 88.3036C69.3592 88.3267 69.2435 88.3959 69.1046 88.4651C57.0951 88.442 45.0856 88.442 33.0761 88.442ZM78.1291 66.1787C79.4712 64.8175 80.7439 63.4563 82.086 62.1874C84.3305 60.0188 84.4462 56.5351 82.2711 54.2972C80.096 52.0824 76.5556 52.0824 74.3805 54.2972C72.2053 56.512 72.2285 60.088 74.5656 62.1643C75.954 63.4102 77.3655 64.6098 78.1291 66.1787ZM70.169 59.0959C68.179 61.9798 69.2435 67.0323 72.3673 69.7546C75.792 72.7308 80.9521 72.6846 84.3768 69.6162C87.9866 66.4094 87.8941 61.3338 86.39 59.0498C86.0429 61.3338 84.9553 63.1102 83.2661 64.6099C82.2248 65.5558 81.2992 66.6862 80.5125 67.8859C79.1935 69.9161 77.2498 69.9623 76.0697 67.8398C75.3292 66.5017 74.4036 65.3943 73.2003 64.4484C71.6037 63.2025 70.6318 61.5414 70.2847 59.5112C70.2847 59.3958 70.2385 59.2574 70.169 59.0959ZM16.3461 40.4778C18.2667 43.154 20.9046 44.6074 24.3293 44.469C27.4069 44.3306 29.7671 42.8771 31.3869 40.5701C29.8597 39.0474 28.425 37.617 26.9672 36.1635C26.0416 36.8556 25.4169 38.2399 23.8434 38.2168C22.293 38.1938 21.7145 36.7864 20.6964 36.0943C19.2848 37.5247 17.8502 38.9551 16.3461 40.4778ZM23.8896 35.3099C25.9953 33.2105 28.1011 31.111 30.2068 28.9885C26.7821 25.228 20.2798 25.7124 17.5725 29.0346C19.7013 31.1572 21.8302 33.2566 23.8896 35.3099ZM18.5906 34.1102C17.6882 33.2105 16.7626 32.2876 15.8139 31.2956C14.8189 33.3027 14.5643 35.4022 15.1197 37.5708C16.2998 36.3942 17.4568 35.2407 18.5906 34.1102ZM29.3043 34.0641C30.415 35.1715 31.6183 36.325 32.7521 37.4555C33.1918 35.4253 33.0298 33.3258 31.9654 31.3186C31.0167 32.3107 30.0679 33.2566 29.3043 34.0641Z" fill="#3E6F8D"/>
<path d="M62.7872 62.8567C62.8103 69.2704 57.6039 74.4844 51.1479 74.5305C44.6688 74.5536 39.393 69.3165 39.4161 62.8567C39.4392 56.4199 44.6457 51.229 51.1016 51.229C57.5576 51.229 62.7641 56.4199 62.7872 62.8567ZM51.1016 58.7501C48.6488 58.7501 46.196 58.7732 43.7432 58.727C43.1416 58.727 42.887 58.9577 42.6788 59.4653C42.1234 60.8495 41.892 62.303 42.0772 63.7795C42.54 67.5632 44.5994 70.2163 48.186 71.4391C51.819 72.6618 55.1511 71.8543 57.7659 69.0166C60.3807 66.202 60.8435 62.8798 59.4782 59.3038C59.2931 58.8424 59.0386 58.727 58.5758 58.727C56.0535 58.7501 53.5776 58.7501 51.1016 58.7501ZM56.9791 56.12C53.8784 52.8901 47.6538 53.3054 45.3167 56.12C49.181 56.12 53.0685 56.12 56.9791 56.12Z" fill="#3E6F8D"/>
<path d="M59.4102 25.1587C58.0912 25.1587 56.7491 25.1126 55.4301 25.1818C55.0136 25.2049 54.5508 25.4125 54.2269 25.6663C53.6021 26.1738 53.0699 26.7967 52.4914 27.3504C51.5889 28.2041 50.6402 28.2041 49.7146 27.3735C49.6221 27.3043 49.5295 27.212 49.4601 27.1197C48.2568 25.4586 46.6602 24.928 44.6007 25.1126C42.5413 25.2741 40.4356 25.2049 38.3762 25.0895C35.3449 24.9049 33.1466 22.3441 33.2391 19.3218C33.3317 16.5533 35.53 14.2231 38.2836 13.9694C38.4456 13.9463 38.6307 13.9463 38.7927 13.9463C46.961 13.9463 55.1293 13.9232 63.2976 13.9463C66.5603 13.9694 68.99 16.5302 68.8974 19.714C68.828 22.4825 66.6529 24.8588 63.8761 25.0664C62.3952 25.1818 60.868 25.0895 59.387 25.0895C59.4102 25.1126 59.4102 25.1356 59.4102 25.1587ZM51.0799 25.0434C51.1956 24.9741 51.2418 24.9511 51.2881 24.9049C51.427 24.7896 51.5658 24.6742 51.6584 24.5358C52.8848 22.9439 54.5045 22.4133 56.5177 22.5286C58.9011 22.6671 61.3076 22.5978 63.691 22.4825C65.1025 22.4133 66.1901 21.2136 66.3289 19.8294C66.4678 18.4682 65.6579 17.1531 64.3621 16.7148C63.8761 16.5533 63.3439 16.5302 62.8348 16.5302C55.3376 16.5072 47.8403 16.5302 40.343 16.5302C39.7645 16.5302 39.186 16.5071 38.6076 16.5533C37.3349 16.6686 36.4787 17.3608 36.039 18.5605C35.368 20.4523 36.6638 22.4133 38.7695 22.5286C40.8984 22.6209 43.0504 22.6901 45.1792 22.5286C47.4932 22.3671 49.3907 22.8516 50.8022 24.7665C50.8485 24.8819 50.9642 24.928 51.0799 25.0434Z" fill="#3E6F8D"/>
<path d="M55.5917 32.1029C55.5917 31.7799 55.5686 31.503 55.5917 31.2031C55.6612 30.4648 56.1934 29.9111 56.8876 29.9573C57.6049 30.0034 58.2065 30.4187 58.1371 31.1339C58.0446 32.149 58.5536 32.5643 59.3172 33.0257C60.3585 33.6948 60.9833 34.7329 61.0064 35.9788C61.0527 38.2397 61.099 40.5237 61.0064 42.7847C60.9139 44.838 59.3404 46.3837 57.2578 46.5221C55.3835 46.6375 53.5092 46.5683 51.6349 46.5913C49.6448 46.5913 47.6548 46.6144 45.6648 46.5913C42.8186 46.5452 41.1526 44.8841 41.1294 42.0695C41.1063 40.2469 41.1294 38.4473 41.1294 36.6247C41.1294 34.7791 41.9162 33.441 43.5591 32.5643C43.7674 32.4489 43.9062 32.1259 43.9987 31.8722C44.0682 31.5953 43.9987 31.2954 44.045 31.0185C44.207 30.3495 44.6698 29.9573 45.3409 29.9803C46.0119 30.0034 46.4747 30.4187 46.5673 31.0877C46.6135 31.3877 46.5673 31.7107 46.5673 32.1029C49.5754 32.1029 52.5373 32.1029 55.5917 32.1029ZM51.1026 34.756C49.2746 34.756 47.4697 34.756 45.6417 34.756C44.2996 34.756 43.7442 35.3097 43.7211 36.6247C43.6979 38.4243 43.6979 40.2469 43.7211 42.0695C43.7211 43.4076 44.2764 43.9613 45.6185 43.9843C49.2515 44.0074 52.8844 44.0074 56.5173 43.9843C57.8826 43.9843 58.4148 43.4306 58.4379 42.0925C58.4611 40.293 58.4611 38.4704 58.4379 36.6478C58.4148 35.2866 57.8594 34.756 56.4479 34.7329C54.6893 34.756 52.9075 34.756 51.1026 34.756Z" fill="#3E6F8D"/>
<path d="M51.1259 6.51758C53.4861 6.51758 55.8464 6.51758 58.2298 6.51758C58.8546 6.51758 59.433 6.67907 59.595 7.32506C59.6876 7.71726 59.6182 8.27096 59.3868 8.57088C59.1785 8.8708 58.6463 9.05537 58.2761 9.05537C53.5093 9.07844 48.7656 9.07844 43.9989 9.07844C43.0733 9.07844 42.4716 8.52474 42.4948 7.7634C42.5179 7.00206 43.0964 6.51758 44.0451 6.51758C46.3823 6.49451 48.7656 6.51758 51.1259 6.51758Z" fill="#3E6F8D"/>
<path d="M26.1575 67.7703C25.07 67.7934 24.1212 67.4012 23.3576 66.6398C22.2701 65.5786 21.1594 64.5173 20.1181 63.4099C18.6603 61.8872 18.614 59.5802 19.933 58.0806C20.5115 57.4115 21.2519 57.2731 21.8304 57.7114C22.4552 58.1729 22.5246 58.865 22.0155 59.6263C21.3908 60.5491 21.437 61.0567 22.1775 61.8411C23.1031 62.787 24.0518 63.7329 25.0006 64.6558C25.741 65.371 26.2964 65.4171 27.1525 64.8403C27.9162 64.3328 28.5872 64.3558 29.0731 64.9557C29.5591 65.5555 29.4665 66.4091 28.7029 66.8936C27.9624 67.3781 27.0831 67.655 26.2732 68.0472C26.2038 67.9318 26.1807 67.8626 26.1575 67.7703Z" fill="#3E6F8D"/>
<path d="M79.6093 34.1331C80.72 34.1331 81.6687 34.11 82.6175 34.1331C83.5662 34.1562 84.1447 34.6407 84.1678 35.402C84.1678 36.1633 83.5893 36.694 82.6637 36.717C81.2754 36.7401 79.887 36.7401 78.4986 36.717C77.5036 36.694 77.0639 36.2556 77.0408 35.2866C77.0177 33.5794 77.0177 31.8952 77.0408 30.188C77.0408 29.3113 77.573 28.7345 78.3135 28.7345C79.0771 28.7115 79.6093 29.3113 79.6324 30.2341C79.6324 31.503 79.6093 32.7489 79.6093 34.1331Z" fill="#3E6F8D"/>
<path d="M51.0554 81.4516C49.8521 81.4516 48.6257 81.4747 47.4224 81.4516C46.4506 81.4285 45.8952 80.9671 45.8952 80.1827C45.8721 79.3522 46.4274 78.8907 47.4687 78.8677C49.8984 78.8677 52.3049 78.8677 54.7346 78.8677C55.7759 78.8677 56.3312 79.3522 56.3081 80.1596C56.285 80.9441 55.7527 81.4055 54.7809 81.4285C53.5313 81.4747 52.3049 81.4516 51.0554 81.4516Z" fill="#3E6F8D"/>
<path d="M79.5871 58.173C79.564 58.9112 78.9623 59.4649 78.245 59.4419C77.5508 59.4188 77.0186 58.842 77.0417 58.1499C77.0417 57.4578 77.6202 56.881 78.2913 56.881C78.9855 56.8579 79.5871 57.4578 79.5871 58.173Z" fill="#3E6F8D"/>
<path d="M46.7532 63.387C46.0358 63.387 45.4805 62.8103 45.4805 62.0489C45.4805 61.2876 46.0127 60.7339 46.7763 60.7339C47.5168 60.7339 48.049 61.2876 48.049 62.0489C48.049 62.8103 47.4936 63.4101 46.7532 63.387Z" fill="#3E6F8D"/>
<path d="M51.1028 63.387C50.3854 63.387 49.8301 62.8103 49.8301 62.0489C49.8301 61.2876 50.3623 60.7339 51.1259 60.7339C51.8664 60.7339 52.3986 61.2876 52.3986 62.0489C52.3754 62.8103 51.8201 63.4101 51.1028 63.387Z" fill="#3E6F8D"/>
<path d="M56.7023 62.0258C56.7255 62.7641 56.1933 63.364 55.4759 63.387C54.7586 63.4101 54.1801 62.8564 54.157 62.0951C54.1338 61.3337 54.6661 60.757 55.4065 60.7339C56.1239 60.7339 56.6792 61.2645 56.7023 62.0258Z" fill="#3E6F8D"/>
<path d="M48.0493 66.2711C48.0724 67.0324 47.5171 67.6092 46.7997 67.6092C46.0593 67.6323 45.5039 67.0555 45.5039 66.3172C45.5039 65.579 46.0593 64.9791 46.7534 64.9561C47.4476 64.9561 48.0261 65.5328 48.0493 66.2711Z" fill="#3E6F8D"/>
<path d="M51.1034 64.979C51.8208 64.979 52.3761 65.5788 52.3761 66.3171C52.3761 67.0784 51.8208 67.6321 51.1034 67.6321C50.363 67.6321 49.8307 67.0554 49.8307 66.3171C49.8076 65.5558 50.3861 64.979 51.1034 64.979Z" fill="#3E6F8D"/>
<path d="M55.4055 67.6321C54.665 67.6321 54.1328 67.0554 54.1328 66.294C54.1328 65.5558 54.7113 64.979 55.4286 64.979C56.146 65.0021 56.7013 65.6019 56.7013 66.3402C56.7013 67.0784 56.146 67.6321 55.4055 67.6321Z" fill="#3E6F8D"/>
<path d="M51.1025 18.2607C54.4578 18.2607 57.7899 18.2607 61.1452 18.2607C61.4228 18.2607 61.7236 18.2607 62.0013 18.3069C62.6492 18.4222 63.0195 18.8606 63.0426 19.5066C63.0658 20.1526 62.7187 20.614 62.0707 20.7755C61.7468 20.8447 61.3766 20.8677 61.0295 20.8677C54.3884 20.8677 47.7704 20.8677 41.1293 20.8677C39.7872 20.8677 39.1624 20.4755 39.1393 19.5989C39.1162 18.6991 39.7409 18.2838 41.1293 18.2838C44.4614 18.2607 47.7935 18.2607 51.1025 18.2607Z" fill="#3E6F8D"/>
<path d="M49.6209 39.3934C49.5978 40.2008 49.0425 40.7776 48.302 40.7776C47.5615 40.7545 47.0293 40.1778 47.0293 39.3472C47.0293 38.5167 47.5615 37.963 48.3483 37.986C49.1119 37.986 49.6209 38.5628 49.6209 39.3934Z" fill="#3E6F8D"/>
<path d="M55.1505 39.3932C55.1505 40.2006 54.5952 40.8005 53.8547 40.7774C53.1142 40.7774 52.582 40.1776 52.582 39.3701C52.582 38.5395 53.1142 37.9858 53.8779 37.9858C54.6415 37.9858 55.1505 38.5395 55.1505 39.3932Z" fill="#3E6F8D"/>
</svg>
