<svg width="90" height="82" viewBox="0 0 90 82" fill="none" xmlns="http://www.w3.org/2000/svg">
<rect y="7.12988" width="80.6741" height="74.7711" rx="10" fill="#074870" fill-opacity="0.1"/>
<g clip-path="url(#clip0_1509_8555)">
<path d="M90.0003 39.3601C89.3552 41.1271 88.0872 41.8339 86.1964 41.7676C84.1499 41.6793 82.0811 41.7676 80.0345 41.7455C79.3894 41.7455 79.1002 41.9885 78.7665 42.5407C77.8767 44.0205 78.2327 45.0366 79.5229 46.0968C80.8798 47.2232 82.0588 48.5485 83.3045 49.8075C84.7727 51.2873 84.7727 52.9881 83.2823 54.4679C81.1245 56.6325 78.9445 58.7971 76.7422 60.9617C75.2073 62.4636 73.4945 62.4636 71.9818 60.9838C70.4024 59.4376 68.823 57.8694 67.2881 56.3012C66.8654 55.8595 66.465 55.7711 65.8867 56.0362C63.8846 56.9197 63.8846 56.8976 63.8846 59.0401C63.8846 60.8071 63.8846 62.5741 63.8846 64.3411C63.8624 66.4615 62.6611 67.6542 60.5034 67.6542C58.8127 67.6542 57.1221 67.6542 55.3425 67.6542C55.3425 68.7586 55.3203 69.7967 55.3425 70.8127C55.3647 71.8508 55.0088 72.6901 54.2747 73.3969C53.2515 74.3688 52.2727 75.3627 51.2717 76.3788C50.6043 77.0635 49.8035 77.4169 48.8247 77.3948C47.3565 77.3727 45.8883 77.3727 44.4202 77.3948C43.5081 77.3948 42.7518 77.0856 42.1067 76.445C41.0612 75.3848 39.9934 74.3246 38.9256 73.2865C38.2805 72.646 37.9469 71.895 37.9469 70.9894C37.9469 69.4654 37.9469 67.9634 37.9469 66.4394C37.9469 65.5338 38.2805 64.7828 38.9479 64.1644C39.9489 63.1925 40.9277 62.2428 41.8842 61.2267C42.6628 60.4095 43.5749 60.0561 44.7094 60.0782C45.7549 60.1003 46.8004 60.0782 47.9571 60.0782C47.9571 59.0842 48.0016 58.1786 47.9349 57.2731C47.9126 57.0301 47.6457 56.743 47.4233 56.6325C46.0218 55.9699 44.6204 55.3294 43.13 54.6667C42.9742 54.7993 42.7518 54.998 42.5516 55.2189C38.503 59.2388 34.4766 63.2588 30.4058 67.2566C27.2915 70.3268 22.2418 69.2445 20.8404 65.2246C20.1063 63.1483 20.4845 61.1826 21.9749 59.526C22.798 58.5983 23.71 57.7369 24.5998 56.8755C25.2227 56.2791 25.9123 56.2791 26.4462 56.8092C26.9356 57.3172 26.9133 58.0461 26.3349 58.6425C25.5564 59.4376 24.7555 60.1886 23.977 60.9838C22.6645 62.3311 22.6645 64.319 23.9325 65.578C25.2004 66.837 27.2247 66.859 28.5594 65.5338C36.056 58.0903 43.5526 50.6468 51.0492 43.2033C51.1159 43.137 51.1382 43.0708 51.2717 42.9162C49.3586 41.8339 47.8459 40.3761 46.7559 38.3882C46.4667 38.6533 46.2443 38.8521 46.0441 39.0509C41.0834 43.9764 36.1228 48.9019 31.1399 53.8274C30.9842 53.982 30.8284 54.1366 30.6727 54.2912C30.0499 54.8434 29.3158 54.8876 28.8264 54.3796C28.2925 53.8495 28.3147 53.1648 28.9154 52.5463C30.7395 50.7131 32.5636 48.924 34.3877 47.1128C34.6101 46.8919 34.8993 46.7594 35.0328 46.6711C34.2764 45.0366 33.6536 43.5788 32.9417 42.1873C32.8083 41.9222 32.2966 41.7014 31.9407 41.7014C29.8274 41.6572 27.7141 41.6793 25.6231 41.6793C23.0204 41.6793 21.9082 40.597 21.9082 38.0348C21.9082 37.6814 21.9082 37.328 21.9082 36.8863C20.1508 37.2839 18.4379 37.3722 16.7251 36.9967C11.6977 35.8482 8.18297 30.9668 8.78359 25.9088C9.40645 20.7182 13.8555 16.7866 19.1053 16.8529C24.0882 16.8971 28.2258 20.3206 29.1823 25.1799C29.2935 25.7983 29.516 25.975 30.0944 25.9088C30.2278 25.8867 30.3613 25.9088 30.517 25.9088C32.786 25.9088 32.786 25.9088 33.6536 23.8326C33.876 23.3245 33.7648 22.9711 33.3866 22.5957C31.8072 21.0495 30.2278 19.4813 28.6707 17.9352C27.1135 16.3891 27.1135 14.6883 28.6707 13.1422C30.8284 10.9997 32.9862 8.85721 35.144 6.71472C36.7011 5.16859 38.3918 5.16859 39.9712 6.71472C41.5283 8.23876 43.0855 9.78489 44.6204 11.331C45.0875 11.8169 45.5102 11.9274 46.0886 11.5961C46.2888 11.4856 46.489 11.3752 46.6892 11.331C47.7124 11.1101 48.1573 10.58 48.0461 9.47566C47.9571 8.57007 48.5133 8.03997 49.2918 8.06206C50.0259 8.08415 50.4708 8.57007 50.5153 9.43149C50.6488 11.7065 50.0259 12.6784 47.8682 13.5398C47.5122 13.6723 47.1563 13.8269 46.8004 13.9815C45.399 14.5779 44.1532 14.357 43.0632 13.2747C41.5061 11.7065 39.9267 10.1604 38.3473 8.59216C37.6132 7.86327 37.502 7.86327 36.7456 8.61425C34.6991 10.6463 32.6525 12.6563 30.6282 14.6883C29.8719 15.4393 29.8719 15.5497 30.606 16.2786C32.1409 17.8027 33.6758 19.3267 35.1885 20.8507C36.4342 22.0876 36.6344 23.2141 35.9448 24.8265C35.7668 25.2462 35.5889 25.6879 35.4109 26.1297C34.7658 27.6979 33.8315 28.3605 32.0964 28.3826C31.2066 28.4047 30.3168 28.3826 29.3825 28.3826C29.2713 28.8685 29.1823 29.3103 29.0488 29.752C28.3815 32.0933 27.069 33.9928 25.067 35.3843C24.5776 35.7377 24.3774 36.0911 24.4219 36.6654C24.4664 37.1734 24.4664 37.7035 24.4219 38.2336C24.3551 38.9846 24.6666 39.2717 25.4229 39.2496C27.4694 39.2276 29.5382 39.2496 31.5848 39.2496C33.9427 39.2496 34.6768 39.7577 35.5444 41.8781C35.9226 42.7836 36.3675 43.6671 36.8569 44.7053C38.0136 43.5567 39.0591 42.5407 40.0824 41.4584C40.1936 41.348 40.1046 40.9504 40.0157 40.7295C38.0358 36.047 38.0581 31.3644 40.1046 26.7039C40.4383 25.953 40.861 25.2241 41.2836 24.5173C41.862 23.5675 42.5516 23.3245 43.2412 23.7663C43.8863 24.186 43.9753 24.9148 43.3969 25.7983C41.6395 28.5593 40.8165 31.5853 41.1057 34.8542C41.2391 36.3562 41.6618 37.836 41.951 39.338C42.0622 39.338 42.1512 39.338 42.2624 39.3601C43.3747 38.2557 44.5092 37.1513 45.5769 36.0249C45.7326 35.8482 45.7326 35.4506 45.6881 35.1855C44.5981 28.3163 49.848 22.2864 56.8107 22.5073C57.5225 22.5294 58.2566 22.6398 58.9462 22.8165C60.4589 23.192 60.9038 24.7602 59.8138 25.9088C58.4346 27.3445 57.0109 28.736 55.5649 30.1054C55.1645 30.4809 55.0978 30.8122 55.2313 31.3202C55.9209 33.8824 55.9209 33.8603 58.4791 34.5671C59.0574 34.7217 59.3911 34.5892 59.7693 34.1916C61.0817 32.8443 62.4387 31.5411 63.7511 30.2158C64.3295 29.6195 64.9969 29.2661 65.8422 29.5311C66.6875 29.7962 67.0212 30.4588 67.1769 31.276C68.6895 38.6754 62.1272 45.3458 54.6307 44.0868C54.2747 44.0205 53.7631 44.1972 53.4739 44.4402C52.4062 45.39 51.4051 46.4281 50.3818 47.422C50.3818 47.5325 50.4041 47.6208 50.4041 47.7313C51.7833 48.0184 53.1402 48.4601 54.5417 48.5927C62.6389 49.4541 69.824 43.5788 70.8473 35.3402C71.8038 27.6095 65.9534 20.2323 58.0564 19.1721C54.3637 18.6641 50.9602 19.4371 47.8237 21.425C47.5567 21.6017 47.2231 21.8888 46.9561 21.8668C46.5112 21.8226 45.9106 21.6901 45.6881 21.3808C45.4657 21.0716 45.5769 20.4752 45.6659 20.0335C45.7104 19.8126 46.0441 19.658 46.2665 19.5034C56.3435 12.59 70.7583 18.4432 73.0718 30.3925C74.9404 40.0669 68.7785 49.1007 58.9907 50.8898C55.5872 51.5082 52.2504 51.0886 49.0694 49.7191C48.58 49.4983 48.2908 49.5424 47.9349 49.9179C47.0228 50.8677 46.0663 51.7733 44.9985 52.8335C46.133 53.3415 47.1118 53.8274 48.1129 54.2471C49.8925 54.976 50.6488 55.8374 50.4708 57.759C50.2929 59.6585 50.849 61.05 52.3617 62.2207C53.3627 62.9937 54.119 64.0539 55.0311 64.9374C55.1868 65.092 55.4982 65.1804 55.7429 65.1804C57.3223 65.2025 58.9017 65.1583 60.4811 65.2025C61.193 65.2246 61.4821 64.9595 61.4599 64.2306C61.4376 62.0881 61.4376 59.9236 61.4599 57.7811C61.4599 55.7932 62.1272 55.1085 63.9068 54.1808C66.3983 52.8776 68.2891 53.3415 70.0465 55.4398C71.1587 56.765 72.5157 57.8915 73.7169 59.1505C74.2063 59.6585 74.5845 59.7027 75.0961 59.1726C77.2094 57.0301 79.3672 54.9097 81.5027 52.8114C82.0366 52.2813 81.9476 51.9058 81.4582 51.442C79.901 49.9179 78.3439 48.3718 76.809 46.8257C75.5188 45.5446 75.3186 44.4623 76.0527 42.7836C76.1416 42.5628 76.2529 42.3419 76.3641 42.0989C77.3651 39.6693 77.9435 39.2938 80.6129 39.2717C82.5482 39.2717 84.5058 39.2717 86.4411 39.2717C87.4644 39.2717 87.5533 39.1834 87.5533 38.2115C87.5533 35.296 87.5311 32.3804 87.5756 29.4428C87.5756 28.6476 87.3087 28.3826 86.5078 28.3826C84.3501 28.4268 82.17 28.4047 80.0123 28.3826C78.1437 28.3826 77.4096 27.6758 76.5198 26.0192C75.1406 23.4792 75.6522 21.5796 77.8323 19.7905C79.167 18.7082 80.2792 17.383 81.5027 16.1903C82.0143 15.7043 82.0366 15.3068 81.5249 14.8208C79.3672 12.7225 77.2316 10.58 75.0961 8.45964C74.629 7.9958 74.2508 7.97371 73.7614 8.45964C72.2265 10.0058 70.6693 11.5519 69.1122 13.0759C67.7552 14.4233 66.6652 14.6221 64.9079 13.849C64.552 13.6944 64.196 13.5398 63.8401 13.4072C62.105 12.7225 61.4821 11.839 61.4821 9.9395C61.4821 7.8191 61.4821 5.6987 61.4821 3.57829C61.4821 2.56227 61.3932 2.47392 60.3921 2.47392C57.4558 2.47392 54.5194 2.49601 51.5608 2.45183C50.8268 2.45183 50.5153 2.67271 50.4931 3.42368C50.4708 4.24092 49.9592 4.68267 49.2251 4.66058C48.5133 4.63849 48.0684 4.15257 48.0239 3.35742C47.9126 1.4358 49.2251 0.000114866 51.1827 -0.0219727C54.3415 0.000114866 57.567 0.000114866 60.7703 0.0222024C62.5944 0.0222024 63.8624 1.2591 63.8846 3.07028C63.9291 5.30112 63.9291 7.53196 63.8846 9.7628C63.8624 10.4917 64.1515 10.823 64.8189 11.1985C66.2426 11.9936 67.1769 11.7065 68.2001 10.4917C69.3791 9.10017 70.7583 7.88536 72.0485 6.60428C73.4945 5.19068 75.2296 5.19068 76.6755 6.60428C78.9 8.79095 81.1245 10.9997 83.3268 13.2085C84.7505 14.6441 84.7282 16.367 83.3045 17.8247C81.7251 19.415 80.1457 20.9833 78.5219 22.5515C78.0992 22.949 78.0102 23.3245 78.2549 23.8546C79.1225 25.8867 79.1225 25.8867 81.3247 25.8867C82.9264 25.8867 84.5503 25.953 86.1519 25.8646C88.0427 25.7542 89.3107 26.4831 89.9558 28.2501C90.0003 31.9828 90.0003 35.6715 90.0003 39.3601ZM11.2305 27.0573C11.2305 31.3423 14.7453 34.8542 19.0608 34.8321C23.3541 34.8321 26.8911 31.276 26.8688 27.0352C26.8466 22.7944 23.3541 19.3267 19.0831 19.3267C14.7453 19.3267 11.2305 22.7723 11.2305 27.0573ZM57.0776 25.0915C53.8743 24.6056 50.3151 26.6377 48.8247 29.7299C47.2008 33.1093 48.0239 37.1292 50.8045 39.6251C53.5629 42.0768 57.7005 42.4302 60.8593 40.4645C63.5509 38.8079 65.375 35.1855 64.6854 32.7117C63.4397 33.9707 62.2385 35.1635 61.0372 36.3783C60.2809 37.1292 59.4356 37.3722 58.3901 37.063C57.4558 36.7979 56.5215 36.555 55.5872 36.3341C54.4082 36.069 53.6964 35.3843 53.4294 34.2137C53.2292 33.3081 52.9845 32.4025 52.7176 31.4969C52.3617 30.3705 52.6286 29.4649 53.4739 28.6476C54.6529 27.5212 55.8096 26.3505 57.0776 25.0915ZM46.6892 74.7885C48.6022 75.3848 49.9369 74.5234 51.027 73.0877C51.0492 73.0656 51.0714 73.0436 51.0937 73.0215C52.6064 71.9834 52.9178 70.5477 52.9178 68.7586C52.94 66.9032 52.4062 65.6221 51.0714 64.2969C49.7367 62.9716 48.4243 62.4636 46.5779 62.4636C44.7539 62.4636 43.5081 63.0158 42.2402 64.2527C40.9277 65.5559 40.3493 66.8149 40.3716 68.6923C40.3938 70.5035 40.861 71.8066 42.1957 73.0656C43.5304 74.3909 44.7539 75.3848 46.6892 74.7885Z" fill="#3E6F8D"/>
<path d="M13.4325 58.4218C10.8075 59.1286 9.00569 57.9138 7.27058 56.0584C4.51219 53.1208 4.73464 53.8718 4.73464 49.9402C4.73464 45.9644 4.42321 46.6712 7.27058 43.844C10.1624 40.9726 9.36161 41.304 13.4102 41.304C17.4811 41.304 16.6802 40.9285 19.6833 43.8882C22.3527 46.5387 22.1525 45.9644 22.1525 49.7856C22.1525 53.9601 22.3527 53.1208 19.5721 56.1247C17.837 58.0021 16.0129 59.1065 13.4325 58.4218ZM13.388 55.9701C15.2343 56.4781 16.48 55.6608 17.7702 54.4239C19.1939 53.0766 19.7501 51.7072 19.7056 49.7635C19.6611 48.0848 19.2162 46.8921 18.0149 45.6552C16.658 44.2637 15.301 43.6673 13.3212 43.7115C11.5639 43.7557 10.3182 44.2416 9.05018 45.4564C7.69324 46.7817 7.13711 48.0848 7.13711 49.9623C7.13711 51.7955 7.64875 53.0766 8.98345 54.3135C10.3182 55.5504 11.5194 56.5664 13.388 55.9701Z" fill="#3E6F8D"/>
<path d="M34.0751 56.9861C32.8961 56.964 32.3177 55.9259 32.8071 55.1087C32.9406 54.9099 33.1186 54.7332 33.2965 54.5565C36.4553 51.42 39.6141 48.2836 42.7507 45.1472C42.8397 45.0588 42.9509 44.9484 43.0399 44.86C43.6182 44.3741 44.2633 44.3741 44.775 44.86C45.2866 45.346 45.3089 46.0307 44.7972 46.6271C44.5748 46.87 44.3301 47.0909 44.1076 47.3339C41.0823 50.3378 38.0792 53.3417 35.0539 56.3235C34.698 56.6327 34.2753 56.8536 34.0751 56.9861Z" fill="#3E6F8D"/>
<path d="M29.5605 61.2928C29.3603 61.7125 29.2714 62.0217 29.0712 62.2205C28.604 62.7285 28.1146 63.2365 27.603 63.6783C27.0469 64.1642 26.335 64.12 25.8901 63.612C25.423 63.0819 25.4007 62.5076 25.8456 61.9775C26.3128 61.4474 26.8022 60.8732 27.3805 60.4756C27.7142 60.2547 28.3148 60.1664 28.6707 60.321C29.0489 60.4535 29.2714 60.9394 29.5605 61.2928Z" fill="#3E6F8D"/>
<path d="M14.1896 27.0353C14.2119 24.3628 16.3919 22.2203 19.0835 22.2424C21.7752 22.2644 23.9107 24.429 23.8885 27.1016C23.8662 29.7521 21.664 31.9167 18.9946 31.8946C16.3251 31.8946 14.1674 29.7079 14.1896 27.0353ZM19.0168 24.7382C17.6821 24.7382 16.6588 25.7984 16.6811 27.1237C16.7033 28.4048 17.7266 29.4208 19.0168 29.4429C20.307 29.465 21.397 28.3827 21.397 27.1016C21.397 25.7764 20.3515 24.7382 19.0168 24.7382Z" fill="#3E6F8D"/>
<path d="M47.8904 67.4113C49.0249 67.6985 50.7155 66.9475 50.6932 68.7808C50.671 70.5478 49.0026 69.7747 47.8904 70.0839C47.8904 70.5036 47.9126 70.9895 47.8904 71.4754C47.8681 72.3369 47.401 72.8228 46.6669 72.8228C45.9328 72.8228 45.4434 72.3148 45.3989 71.4754C45.3767 71.0116 45.3989 70.5478 45.3989 69.9735C44.8205 69.9735 44.3311 69.9956 43.8418 69.9735C43.0632 69.9293 42.5515 69.4655 42.5293 68.7587C42.5293 68.074 43.0187 67.566 43.7973 67.4997C44.2867 67.4555 44.776 67.4997 45.3767 67.4997C45.3767 66.9475 45.3544 66.4616 45.3767 65.9757C45.4212 65.1584 45.955 64.6283 46.6891 64.6725C47.3787 64.6946 47.8459 65.2247 47.8681 65.9977C47.9126 66.4616 47.8904 66.9033 47.8904 67.4113Z" fill="#3E6F8D"/>
<path d="M13.4316 51.1548C12.6085 51.1548 11.7632 51.1769 10.9401 51.1548C10.1615 51.1327 9.62765 50.6247 9.62765 49.962C9.60541 49.2994 10.117 48.7251 10.8956 48.7031C12.6085 48.6589 14.3214 48.6589 16.0342 48.7031C16.8128 48.7251 17.28 49.2773 17.2577 49.9841C17.2355 50.6688 16.7683 51.1106 16.012 51.1327C15.1444 51.1769 14.2769 51.1327 13.4316 51.1548Z" fill="#3E6F8D"/>
</g>
<defs>
<clipPath id="clip0_1509_8555">
<rect width="85.2653" height="77.3947" fill="white" transform="translate(4.73438)"/>
</clipPath>
</defs>
</svg>
