<svg width="90" height="86" viewBox="0 0 90 86" fill="none" xmlns="http://www.w3.org/2000/svg">
<rect y="4.86035" width="87.0155" height="80.6485" rx="10" fill="#074870" fill-opacity="0.1"/>
<g clip-path="url(#clip0_1509_8552)">
<path d="M9.35156 75.4389C9.91862 74.8089 10.4437 74.1158 11.0947 73.5908C13.783 71.3856 16.0303 68.8233 17.8365 65.8621C18.1095 65.4 18.0885 65.085 17.7314 64.686C12.5859 58.5114 10.0866 51.4128 10.3177 43.369C10.4227 39.3157 11.3678 35.4513 13.048 31.755C13.426 30.9359 13.9931 30.6629 14.6651 30.9359C15.3582 31.2299 15.5682 31.86 15.1902 32.7211C13.384 36.7534 12.5439 40.9748 12.6699 45.3852C12.7959 49.5226 13.741 53.4499 15.7782 57.1463C15.7782 56.4952 15.7782 55.8442 15.7782 55.2141C15.7572 53.1349 16.3453 51.2237 17.5634 49.5436C19.5376 46.8343 22.2259 45.4902 25.5863 45.4692C27.8755 45.4482 30.1438 45.4692 32.517 45.4692C32.517 44.4821 32.538 43.537 32.496 42.613C32.496 42.4449 32.37 42.2769 32.265 42.1299C31.2569 40.9118 30.6688 39.5047 30.4168 37.8665C29.5557 37.8665 28.6946 37.8665 27.8335 37.8665C25.0822 37.8455 23.234 36.0184 23.234 33.2881C23.234 31.944 23.234 30.6209 23.234 29.2767C23.213 27.6176 23.8641 26.2735 25.2292 25.3284C25.3973 25.2024 25.5863 24.9923 25.5863 24.8033C25.6073 23.4592 25.6073 22.0941 25.6073 20.75C25.5443 20.687 25.4603 20.645 25.3973 20.5819C24.0321 21.7371 22.583 22.8292 21.3228 24.0683C20.1677 25.2024 19.1596 26.5045 18.1305 27.7436C17.5424 28.4577 16.9124 28.6257 16.3033 28.1846C15.7152 27.7436 15.6942 27.0925 16.2403 26.3155C16.2613 26.2735 16.3033 26.2315 16.3243 26.1895C18.7606 22.9132 21.6799 20.1619 25.1872 18.0617C25.7543 17.7257 26.1113 17.3056 26.3424 16.6756C27.9385 12.4122 31.8239 9.82897 36.6334 9.78696C39.8888 9.76596 43.1441 9.76596 46.3995 9.78696C46.8615 9.78696 47.1555 9.66095 47.4496 9.28292C49.2558 6.8467 51.482 4.87252 54.0653 3.31837C54.8003 2.87733 55.4724 2.98234 55.8505 3.5704C56.2285 4.15845 56.0185 4.83051 55.3254 5.31356C55.2414 5.37656 55.1574 5.41857 55.0524 5.48157C53.2462 6.57367 51.65 7.93879 50.2639 9.53494C50.0959 9.72396 49.9278 9.93398 49.7178 10.207C49.9488 10.312 50.1169 10.417 50.3059 10.48C53.4352 11.6771 55.5354 13.8613 56.7326 16.9696C56.8586 17.3267 57.1736 17.6837 57.4886 17.8727C66.5406 23.5852 71.6021 31.755 72.5472 42.4239C72.5682 42.5499 72.5682 42.676 72.5892 42.823C72.5892 42.865 72.6312 42.928 72.6942 43.075C73.3243 42.823 73.9964 42.613 74.6054 42.2979C75.7396 41.7519 76.7477 41.8569 77.7768 42.592C80.171 44.3141 82.8593 45.4062 85.7366 45.9733C86.0516 46.0363 86.3877 46.0783 86.6817 46.1203C85.4426 44.7131 84.1824 43.369 82.9853 41.9619C82.5023 41.3948 82.1032 40.7228 81.7042 40.0717C80.9271 38.7906 80.9901 37.9505 81.9562 36.7744C84.3715 33.8972 85.8836 30.6209 86.5977 26.9455C88.7609 15.7515 80.7171 4.36847 69.4389 2.66731C66.4356 2.20527 63.4743 2.33128 60.555 3.10835C59.9669 3.27637 59.3998 3.29737 59.0008 2.73032C58.4757 2.01625 58.8538 1.13417 59.8199 0.86115C62.1931 0.189089 64.6084 -0.12594 67.0656 0.0420751C75.0255 0.567123 81.2841 4.11645 85.6526 10.7951C91.0922 19.1328 90.4201 30.2218 84.0774 37.9295C83.9094 38.1395 83.7624 38.3286 83.5734 38.5596C84.8545 40.7858 86.4927 42.676 88.4459 44.2931C89.0129 44.7762 89.496 45.3642 90.0001 45.8893C90.0001 46.2463 90.0001 46.6243 90.0001 46.9814C89.265 48.4515 88.8029 48.7245 87.1227 48.5565C83.2793 48.1365 79.751 46.8133 76.5586 44.6081C76.1596 44.3351 75.8656 44.2931 75.4245 44.4821C74.7314 44.7972 74.0174 45.0912 73.3033 45.2802C72.7362 45.4272 72.6102 45.7422 72.5472 46.2883C72.4212 47.6744 72.3162 49.0605 72.0432 50.4047C68.2838 69.1594 47.8276 81.4035 28.6526 72.8767C28.0645 72.6247 27.6865 72.6457 27.1614 73.0027C22.835 76.027 18.0255 77.8542 12.7539 78.4422C10.8217 78.6522 10.2337 78.3582 9.35156 76.6781C9.35156 76.279 9.35156 75.859 9.35156 75.4389ZM45.2023 73.0237C52.6161 72.2047 60.4709 67.6052 64.5664 61.7247C64.7344 61.4937 64.7974 61.1576 64.7974 60.8636C64.8184 59.0785 64.8184 57.2933 64.7974 55.5291C64.7974 50.9927 61.6891 47.8844 57.1526 47.8424C55.4304 47.8214 53.6872 47.8424 51.965 47.8424C51.482 47.8424 50.9779 47.8424 50.4109 47.8424C50.4109 48.3675 50.4109 48.7875 50.4109 49.1866C50.4109 50.0686 50.1169 50.7827 49.2978 51.2027C48.4577 51.6228 47.6806 51.4548 46.9455 50.8877C46.4205 50.4887 45.8534 50.1106 45.2023 49.6276C45.2023 51.7488 45.2023 53.681 45.2023 55.6131C45.2023 56.8943 44.8243 57.4403 43.9842 57.4193C43.1861 57.3983 42.8501 56.8733 42.8501 55.6131C42.8501 53.2399 42.8501 50.8457 42.8501 48.4725C42.8501 47.8424 41.821 46.8553 41.3379 47.0024C40.6869 47.1914 40.0988 47.9894 40.0988 48.6825C40.0988 56.5582 40.0988 64.4549 40.0988 72.3307C40.0988 72.6037 40.0988 72.8977 40.0988 73.2337C41.0439 73.2337 41.884 73.2337 42.8501 73.2337C42.8501 72.8977 42.8501 72.5827 42.8501 72.2677C42.8501 68.9914 42.8501 65.7151 42.8501 62.4388C42.8501 62.1867 42.8501 61.9137 42.8711 61.6617C42.9551 60.9896 43.3541 60.6116 44.0262 60.6116C44.6983 60.6116 45.0973 60.9896 45.1813 61.6617C45.2233 61.9137 45.2023 62.1867 45.2023 62.4388C45.2023 65.6521 45.2023 68.8863 45.2023 72.0996C45.2023 72.3937 45.2023 72.6877 45.2023 73.0237ZM37.6835 73.0447C37.6835 65.253 37.6835 57.5243 37.6835 49.6696C36.9905 50.1736 36.4024 50.6357 35.7723 51.0347C34.3442 51.9798 32.622 51.1187 32.538 49.3966C32.517 48.9135 32.538 48.4095 32.538 47.9054C32.37 47.8634 32.265 47.8424 32.16 47.8424C29.8707 47.8424 27.5815 47.7584 25.3132 47.8634C21.0708 48.0314 18.1935 51.1187 18.1515 55.3611C18.1305 56.6632 18.2565 57.9864 18.1305 59.2885C17.9835 60.8636 18.4665 62.0817 19.5586 63.2368C20.7558 64.4759 20.7558 65.6101 19.8737 67.1012C17.8995 70.3985 15.4002 73.2337 12.3759 75.607C12.1869 75.754 11.9978 75.943 11.7458 76.153C11.9348 76.174 11.9978 76.216 12.0608 76.195C17.0594 75.67 21.6589 74.0318 25.7753 71.1336C27.0774 70.2095 28.2956 70.0835 29.7237 70.7765C32.181 71.9736 34.8482 72.6877 37.6835 73.0447ZM67.1076 57.1883C70.51 51.0767 71.4341 42.613 68.5358 34.7372C66.3516 28.8567 62.6342 24.1733 57.2996 20.5399C57.2996 22.0731 57.2786 23.3962 57.3206 24.7193C57.3206 24.9293 57.5306 25.1814 57.6987 25.3074C59.0638 26.2525 59.6939 27.5546 59.6939 29.1927C59.6939 30.5789 59.7149 31.965 59.6939 33.3511C59.6519 36.0604 57.8247 37.8455 55.0944 37.8665C54.2333 37.8665 53.3722 37.8665 52.7421 37.8665C52.1751 39.1686 51.86 40.4498 51.104 41.4158C50.0748 42.718 50.4949 44.0621 50.4109 45.4902C50.7889 45.4902 51.083 45.4902 51.356 45.4902C53.3302 45.4902 55.2834 45.4902 57.2576 45.4902C62.3821 45.5112 66.3516 48.9345 67.0446 53.996C67.2337 55.0251 67.1076 56.1172 67.1076 57.1883ZM50.1589 23.4592C44.2992 23.4592 38.5446 23.4592 32.811 23.4592C32.769 23.5642 32.748 23.6062 32.748 23.6692C32.748 28.1216 32.664 32.574 32.769 37.0264C32.853 40.4288 35.4153 42.76 38.7967 42.781C40.6659 42.802 42.5141 42.781 44.3833 42.781C45.7694 42.781 47.0085 42.2979 48.0586 41.4158C48.2687 41.2478 48.4367 41.0378 48.6887 40.7858C45.8954 40.7858 43.2701 40.8068 40.6449 40.7648C38.8597 40.7438 37.5365 39.3997 37.5155 37.6775C37.4945 35.9133 38.7967 34.5692 40.6239 34.4852C41.1909 34.4642 41.779 34.4642 42.346 34.4852C44.0892 34.5902 45.3073 35.8503 45.3914 37.5935C45.4124 37.8455 45.3914 38.0975 45.3914 38.4126C46.1474 38.4126 46.8195 38.4126 47.4706 38.4126C49.3188 38.4126 50.1799 37.5725 50.1799 35.7453C50.1799 31.902 50.1799 28.0376 50.1799 24.1943C50.1799 23.9633 50.1589 23.7322 50.1589 23.4592ZM27.8335 24.5513C28.8206 24.5513 29.5767 24.5513 30.3538 24.5513C30.3538 23.2282 30.3538 21.9891 30.3538 20.771C30.3958 17.0746 32.811 14.5964 36.4864 14.5334C39.7838 14.4914 43.1021 14.4914 46.3995 14.5544C47.2395 14.5754 48.1426 14.7014 48.9197 15.0374C51.167 16.0035 52.4061 17.7677 52.5111 20.2249C52.5741 21.674 52.5321 23.1442 52.5321 24.6143C53.3722 24.6143 54.1073 24.6143 54.9054 24.6143C54.9054 23.1232 54.9474 21.653 54.9054 20.2039C54.7583 15.8775 51.545 12.4332 47.2185 12.2442C43.3331 12.0762 39.4477 12.0972 35.5623 12.2442C32.139 12.3702 29.0936 14.8484 28.3586 18.1877C27.9175 20.2459 28.0015 22.4301 27.8335 24.5513ZM32.79 20.981C38.6076 20.981 44.3622 20.981 50.1169 20.981C50.3899 18.8388 49.0457 17.0956 46.9875 16.9276C45.6644 16.8226 44.3202 16.8856 42.9761 16.8646C40.7919 16.8646 38.6076 16.8226 36.4444 16.8646C34.0502 16.9276 32.517 18.6708 32.79 20.981ZM52.6161 27.0295C52.6161 29.9068 52.6161 32.7001 52.6161 35.5143C53.4142 35.5143 54.1493 35.5143 54.8844 35.5143C55.0734 35.5143 55.2624 35.5143 55.4304 35.5143C56.4385 35.4303 57.2366 34.7792 57.2786 33.7921C57.3626 32.091 57.3416 30.3898 57.2786 28.6887C57.2366 27.7436 56.4805 27.0715 55.5774 27.0295C54.5903 26.9875 53.6242 27.0295 52.6161 27.0295ZM30.3118 27.0505C30.1227 27.0295 30.0177 27.0085 29.9127 27.0085C29.1566 27.0085 28.4006 26.9875 27.6445 27.0085C26.4474 27.0295 25.6493 27.7856 25.6073 28.9617C25.5653 30.4948 25.5653 32.049 25.6073 33.5821C25.6283 34.5272 26.2373 35.3253 27.1404 35.4093C28.1905 35.5353 29.2617 35.4303 30.3328 35.4303C30.3118 32.637 30.3118 29.8648 30.3118 27.0505ZM43.3121 45.3222C44.8243 46.4353 46.3575 47.5484 47.9746 48.7245C47.9746 47.1494 47.9746 45.7632 47.9746 44.5241C46.4205 44.7762 44.8873 45.0492 43.3121 45.3222ZM34.9113 48.7455C36.5914 47.5274 38.1246 46.3933 39.6157 45.3222C37.9986 45.0282 36.4654 44.7552 34.9113 44.4821C34.9113 45.8052 34.9113 47.1914 34.9113 48.7455ZM43.0181 38.3916C43.0601 37.6565 43.1651 36.9844 42.325 36.8584C41.758 36.7744 41.1699 36.7534 40.6239 36.8794C40.3508 36.9424 39.9518 37.3625 39.9518 37.6355C39.9518 37.8875 40.3718 38.3076 40.6449 38.3496C41.4009 38.4756 42.199 38.3916 43.0181 38.3916Z" fill="#3E6F8D"/>
<path d="M46.2307 28.6046C46.2307 28.8356 46.2517 29.0666 46.2307 29.2977C46.1677 29.9277 45.8107 30.3058 45.1806 30.3478C44.5505 30.4108 44.0675 30.0957 43.9625 29.4867C43.8575 28.8986 43.8575 28.2896 43.9415 27.7015C44.0255 27.0925 44.5085 26.7564 45.1176 26.7984C45.7687 26.8404 46.1677 27.2185 46.2097 27.9115C46.2517 28.1216 46.2307 28.3526 46.2307 28.6046Z" fill="#3E6F8D"/>
<path d="M39.0282 28.5627C39.0282 28.7097 39.0282 28.8777 39.0282 29.0247C38.9862 29.8648 38.6081 30.3269 37.894 30.3479C37.159 30.3689 36.7179 29.9068 36.6759 29.0457C36.6549 28.6887 36.6549 28.3107 36.6759 27.9537C36.7389 27.2186 37.243 26.7565 37.873 26.7775C38.4821 26.7985 38.9441 27.2606 39.0072 27.9537C39.0492 28.1637 39.0282 28.3737 39.0282 28.5627Z" fill="#3E6F8D"/>
</g>
<defs>
<clipPath id="clip0_1509_8552">
<rect width="80.6485" height="78.5262" fill="white" transform="translate(9.35156)"/>
</clipPath>
</defs>
</svg>
