<svg width="90" height="82" viewBox="0 0 90 82" fill="none" xmlns="http://www.w3.org/2000/svg">
<rect y="11.6147" width="75.7085" height="70.1688" rx="10" fill="#074870" fill-opacity="0.1"/>
<g clip-path="url(#clip0_1509_8556)">
<path d="M89.9998 50.6082C89.278 52.5663 87.8577 53.2889 85.8086 53.2423C82.3625 53.1491 78.8931 53.2423 75.447 53.1957C74.8649 53.1957 74.6087 53.3822 74.306 53.8717C73.0487 55.8998 71.7447 57.8812 70.3942 59.8393C69.8121 60.6785 68.9971 60.7951 68.3685 60.3055C67.6932 59.7694 67.7398 59.0701 68.3917 58.1609C69.5327 56.5991 70.6271 54.9906 71.8379 53.3123C71.3722 53.2423 71.116 53.1957 70.8832 53.1491C69.2766 52.7761 68.2055 51.5173 68.2055 49.8389C68.1822 44.8271 68.1822 39.8385 68.2055 34.8267C68.2055 32.7753 69.6258 31.4233 71.6982 31.4C72.4898 31.4 73.3048 31.4 74.2129 31.4C72.9555 26.7611 70.7668 22.7516 67.6234 19.2083C65.5976 20.2806 63.4554 20.3972 61.2667 20.3739C58.0999 20.3506 54.9332 20.3739 51.7665 20.3506C51.1379 20.3506 50.6722 20.537 50.253 20.98C49.2984 21.959 48.3204 22.9148 47.3425 23.8472C46.0851 25.0361 44.7346 25.0361 43.4772 23.8705C42.4527 22.8915 41.4748 21.8425 40.4037 20.91C40.0777 20.6303 39.5654 20.3972 39.123 20.3972C35.8166 20.3506 32.5102 20.3506 29.1805 20.3739C27.0849 20.3972 25.0591 20.2107 23.1498 19.2083C20.0064 22.7283 17.8409 26.7378 16.5602 31.4C17.4683 31.4 18.26 31.4 19.0517 31.4C21.1473 31.4233 22.5444 32.7986 22.5677 34.8966C22.5909 39.6054 22.5677 44.3142 22.5677 49.023C22.5677 51.7504 21.7993 52.7062 19.0983 53.3123C22.5909 59.6295 27.6437 64.1519 34.4661 66.9725C34.4894 66.5762 34.5127 66.3198 34.5127 66.04C34.5127 64.7113 34.4661 63.3593 34.5359 62.0306C34.6291 60.0957 36.0029 58.8136 37.9355 58.7903C42.8951 58.7903 47.878 58.7903 52.8376 58.7903C54.8634 58.7903 56.2139 60.0957 56.2838 62.1471C56.3303 63.4292 56.2838 64.7113 56.307 65.9934C56.307 66.2732 56.3303 66.5529 56.3536 67.0657C57.774 66.3431 59.1012 65.7603 60.3353 65.0377C61.5228 64.3383 62.6637 63.4991 63.8047 62.7066C64.6196 62.1238 65.388 62.1471 65.877 62.7998C66.366 63.4525 66.203 64.1752 65.3647 64.8046C62.8267 66.786 60.0791 68.3711 57.0521 69.4901C56.47 69.6999 56.2605 70.0029 56.2838 70.6323C56.3303 72.7303 56.307 74.8283 56.2838 76.903C56.2605 79.304 54.9332 80.6094 52.5349 80.6094C47.7616 80.6094 43.0115 80.6094 38.2382 80.6094C35.8399 80.6094 34.5127 79.304 34.4894 76.903C34.4661 74.7817 34.4661 72.6604 34.4894 70.5391C34.4894 69.9796 34.3031 69.7232 33.7908 69.5134C26.0371 66.483 20.2392 61.2613 16.4205 53.8251C16.1644 53.3356 15.8617 53.1957 15.3494 53.1957C11.7403 53.219 8.1545 53.219 4.54539 53.1957C2.07722 53.219 0.75 51.9136 0.75 49.4659C0.75 44.6872 0.75 39.9318 0.75 35.153C0.75 32.7054 2.07722 31.4 4.5221 31.4C7.59567 31.4 10.6692 31.4 13.7894 31.4C15.0933 26.2715 17.4451 21.7259 20.9377 17.7164C19.4708 16.2944 18.4463 14.6627 17.934 12.6813C16.3507 6.45722 21.0309 0.209885 27.4341 0.0233977C29.2271 -0.0232242 31.0433 8.67679e-05 32.8362 8.67679e-05C33.8607 8.67679e-05 34.4428 0.489617 34.4428 1.3055C34.4428 2.12138 33.8607 2.61091 32.8362 2.61091C30.857 2.63423 28.8778 2.47105 26.9219 2.70416C22.7772 3.19369 20.0064 6.64371 20.2625 10.7698C20.4953 14.6161 23.7785 17.6698 27.8533 17.7164C31.6254 17.763 35.3975 17.763 39.1696 17.7164C40.4037 17.6931 41.3583 18.0428 42.1733 18.9752C43.128 20.0708 44.1292 21.1198 45.1537 22.2621C46.4577 21.0033 47.552 19.9776 48.5998 18.9053C49.3915 18.0661 50.3229 17.7397 51.4638 17.7397C55.2127 17.7864 58.9615 17.763 62.7103 17.7397C67.2042 17.7164 70.5339 14.3363 70.4408 9.95387C70.3709 5.96769 67.1111 2.68085 63.0363 2.63423C58.0301 2.56429 53.0472 2.61091 48.041 2.61091C45.2236 2.61091 42.4061 2.61091 39.5887 2.61091C38.5409 2.61091 37.9588 2.16801 37.9588 1.35212C37.9355 0.512928 38.5409 8.67679e-05 39.612 8.67679e-05C47.3425 8.67679e-05 55.073 -0.0465352 62.7802 0.0233977C67.2042 0.0700197 70.4874 2.16801 72.2337 6.24742C73.9568 10.3268 73.1418 14.1032 70.1148 17.3668C70.0217 17.4833 69.9285 17.5766 69.7888 17.7397C73.2349 21.7259 75.61 26.2482 76.9139 31.4233C78.1946 31.4233 79.4752 31.4233 80.7559 31.4233C82.4789 31.4233 84.1787 31.4932 85.9018 31.4C87.9508 31.3067 89.3013 32.1226 89.9998 34.0341C89.9998 39.5588 89.9998 45.0835 89.9998 50.6082ZM11.6472 34.0341C9.27216 34.0341 6.87385 34.0574 4.49882 34.0341C3.68386 34.0341 3.35787 34.3138 3.35787 35.153C3.38116 39.9551 3.38116 44.7571 3.35787 49.5359C3.35787 50.3285 3.68386 50.6315 4.45225 50.6082C9.24888 50.5849 14.0455 50.5849 18.8188 50.6082C19.5872 50.6082 19.9132 50.3285 19.9132 49.5359C19.8899 44.7338 19.8899 39.9318 19.9132 35.153C19.9132 34.3138 19.5872 34.0341 18.7723 34.0341C16.3972 34.0574 14.0222 34.0341 11.6472 34.0341ZM87.3687 38.6264C85.3429 40.6777 83.5034 42.5193 81.6407 44.3608C80.034 45.9693 78.1247 45.946 76.4948 44.3375C74.8183 42.6591 73.1185 40.9574 71.442 39.2791C71.279 39.1159 71.0695 38.976 70.79 38.7196C70.79 42.496 70.79 46.1325 70.79 49.7457C70.79 50.445 71.2557 50.5849 71.8379 50.5849C76.6578 50.5849 81.4777 50.5849 86.2976 50.5849C87.0427 50.5849 87.3454 50.2818 87.3454 49.5359C87.3221 47.7409 87.3454 45.9227 87.3454 44.1277C87.3687 42.4027 87.3687 40.6311 87.3687 38.6264ZM37.0972 69.7465C37.1904 69.7931 37.3068 69.8397 37.3999 69.8863C37.9355 69.2803 38.471 68.6742 39.0299 68.0914C40.4502 66.6694 41.6377 66.6694 43.0581 68.0914C44.6182 69.6532 46.1782 71.2151 47.8314 72.8702C48.3204 72.334 48.7628 71.8445 49.2285 71.3783C50.8119 69.7931 51.6734 69.7698 53.3965 71.1918C53.4197 71.2151 53.5129 71.1918 53.6293 71.1918C53.6293 68.1847 53.6293 65.1775 53.6293 62.1471C53.6293 61.541 53.2102 61.4012 52.6746 61.4012C47.8082 61.4012 42.9184 61.4012 38.0519 61.4012C37.3767 61.4012 37.0972 61.7042 37.0972 62.3569C37.0972 63.1961 37.0972 64.0353 37.0972 64.8745C37.0972 66.5063 37.0972 68.138 37.0972 69.7465ZM79.1725 34.0341C76.7276 34.0341 74.2827 34.0108 71.8611 34.0574C71.5352 34.0574 71.0695 34.2439 70.9298 34.477C70.8366 34.6635 71.0695 35.1763 71.279 35.3861C73.5842 37.7172 75.9127 40.0483 78.2178 42.3561C78.9862 43.1254 79.1725 43.1254 79.9176 42.3561C82.2228 40.0483 84.528 37.7638 86.8099 35.4327C87.0427 35.1763 87.1126 34.78 87.2755 34.4304C86.9263 34.2905 86.577 34.0341 86.2277 34.0341C83.8993 34.0108 81.5242 34.0341 79.1725 34.0341ZM41.0789 69.7698C39.7983 71.0519 38.5642 72.2641 37.3767 73.4762C37.2137 73.6394 37.0972 73.9192 37.0972 74.1756C37.074 75.1313 37.0972 76.0871 37.074 77.0428C37.074 77.6955 37.3767 77.9986 38.0286 77.9986C42.8951 77.9986 47.7849 77.9986 52.6514 77.9753C52.9308 77.9753 53.443 77.7655 53.4663 77.6489C53.5129 76.7631 53.6759 75.7374 53.3499 74.9915C53.0006 74.1756 52.1158 73.5695 51.4173 72.8002C50.6955 73.5695 50.1133 74.1989 49.4847 74.8283C48.2739 76.0404 47.3192 76.0404 46.1317 74.8516C44.4552 73.1965 42.802 71.5181 41.0789 69.7698Z" fill="#3E6F8D"/>
<path d="M36.98 29.768C42.6149 29.768 48.11 29.768 53.7682 29.768C53.7682 29.0686 53.7682 28.3926 53.7682 27.6933C53.7915 26.6676 54.2572 26.0615 55.0488 26.0382C55.8638 26.0149 56.3761 26.6443 56.3761 27.7166C56.3761 28.346 56.3761 28.9987 56.3994 29.6281C56.3994 29.6747 56.4459 29.7447 56.4692 29.8146C56.8883 29.9545 57.3307 30.071 57.7499 30.2808C59.9619 31.3298 61.1494 33.0781 61.196 35.5025C61.2658 39.1623 61.2425 42.8221 61.196 46.4819C61.1494 49.7921 58.7045 52.1698 55.3515 52.2631C53.6285 52.3097 51.9287 52.2631 50.2057 52.2631C45.4323 52.2631 40.6823 52.2631 35.9089 52.2631C31.8807 52.2631 29.5289 49.9087 29.5056 45.8759C29.5056 45.1532 29.4824 44.4306 29.5056 43.6846C29.5522 42.8221 30.111 42.286 30.8794 42.3093C31.6245 42.3326 32.0902 42.8454 32.1135 43.7079C32.1368 44.5704 32.1135 45.4563 32.1135 46.3188C32.1601 48.2536 33.3942 49.5823 35.3268 49.6056C42.0095 49.6289 48.6922 49.6289 55.3748 49.6056C57.2842 49.6056 58.5415 48.2536 58.5648 46.2955C58.5881 42.7522 58.5881 39.2089 58.5648 35.6657C58.5415 33.7308 57.2842 32.4021 55.3515 32.4021C48.6689 32.3788 41.9862 32.3788 35.3035 32.4021C33.4175 32.4021 32.1601 33.7308 32.1135 35.619C32.0902 36.295 32.1368 36.9478 32.0902 37.6238C32.0437 38.2765 31.6478 38.6961 30.9726 38.766C30.274 38.8593 29.7851 38.5329 29.5755 37.8569C28.7373 35.316 30.111 31.8193 32.4628 30.5139C32.6491 30.4207 32.8121 30.2575 32.9983 30.2575C34.279 30.141 34.4653 29.3251 34.3256 28.2761C34.279 28.0197 34.3023 27.7632 34.3256 27.4835C34.3488 26.5977 34.8611 26.0382 35.6062 26.0382C36.3513 26.0382 36.8869 26.621 36.9334 27.4835C36.9567 27.8565 36.9334 28.2295 36.9334 28.6257C36.98 28.9754 36.98 29.3251 36.98 29.768Z" fill="#3E6F8D"/>
<path d="M40.1479 8.90496C43.92 8.90496 47.6921 8.90496 51.4642 8.90496C51.7436 8.90496 52.1395 8.81171 52.3257 8.95158C52.7216 9.25462 53.2804 9.67422 53.3037 10.0938C53.3503 10.5134 52.8846 11.0263 52.5353 11.3759C52.349 11.5624 51.9299 11.5158 51.6272 11.5158C44.0131 11.5158 36.4224 11.5158 28.8083 11.5158C28.6453 11.5158 28.459 11.5158 28.296 11.4925C27.5509 11.3992 27.062 10.8398 27.1085 10.1404C27.1551 9.39449 27.5975 8.97489 28.3426 8.90496C28.6686 8.88165 28.9713 8.88165 29.2973 8.88165C32.8831 8.90496 36.5155 8.90496 40.1479 8.90496Z" fill="#3E6F8D"/>
<path d="M60.3118 8.90489C60.9871 8.90489 61.639 8.88158 62.3143 8.90489C63.1292 8.9282 63.6648 9.44104 63.6648 10.187C63.6648 10.9329 63.1525 11.4924 62.3376 11.5157C60.9871 11.539 59.6133 11.539 58.2628 11.5157C57.4711 11.4924 56.9355 10.9096 56.9355 10.187C56.9588 9.46435 57.4944 8.95151 58.3093 8.9282C58.9846 8.88158 59.6598 8.90489 60.3118 8.90489Z" fill="#3E6F8D"/>
<path d="M39.4258 41.0039C39.4258 40.0948 39.9613 39.512 40.753 39.5353C41.5214 39.5587 42.0569 40.188 42.0337 41.0739C42.0337 41.9597 41.4515 42.5891 40.6831 42.5658C39.938 42.5425 39.4258 41.9131 39.4258 41.0039Z" fill="#3E6F8D"/>
<path d="M48.6934 41.0509C48.6934 40.165 49.2289 39.5356 49.9973 39.5356C50.789 39.5356 51.3012 40.1184 51.3012 41.0275C51.3012 41.9367 50.7657 42.5428 49.9973 42.5428C49.2522 42.5661 48.6934 41.9367 48.6934 41.0509Z" fill="#3E6F8D"/>
<path d="M11.601 38.8129C10.1341 38.8129 8.64388 38.8129 7.17695 38.8129C6.12914 38.8129 5.57031 38.3467 5.57031 37.5075C5.57031 36.6916 6.12914 36.2021 7.17695 36.2021C10.1574 36.1787 13.1378 36.1787 16.1415 36.2021C17.1893 36.2021 17.7482 36.6916 17.7482 37.5075C17.7482 38.3233 17.1893 38.7896 16.1415 38.8129C14.6047 38.8362 13.1145 38.8129 11.601 38.8129Z" fill="#3E6F8D"/>
<path d="M8.31774 42.333C8.31774 43.1023 7.68906 43.6617 6.8741 43.6384C6.1057 43.6151 5.54688 43.0556 5.54688 42.3097C5.54688 41.5404 6.15227 41.0043 6.99052 41.0276C7.7822 41.0509 8.34103 41.5871 8.31774 42.333Z" fill="#3E6F8D"/>
<path d="M11.6005 41.0276C12.4155 41.0042 13.0209 41.5637 13.0209 42.333C13.0209 43.0556 12.4388 43.6151 11.6704 43.6384C10.8787 43.6617 10.25 43.0789 10.25 42.333C10.2733 41.587 10.8321 41.0276 11.6005 41.0276Z" fill="#3E6F8D"/>
<path d="M16.351 41.0275C17.1427 41.0275 17.7015 41.5637 17.7248 42.2863C17.7481 43.0556 17.1427 43.6384 16.351 43.6384C15.5826 43.6384 15.0005 43.1022 14.9772 42.3563C14.954 41.587 15.5361 41.0042 16.351 41.0275Z" fill="#3E6F8D"/>
<path d="M6.96739 45.8062C7.73578 45.8295 8.29461 46.3656 8.31789 47.1116C8.31789 47.8808 7.73578 48.4403 6.89753 48.417C6.10586 48.3937 5.57031 47.8808 5.57031 47.1349C5.57031 46.3423 6.15243 45.8062 6.96739 45.8062Z" fill="#3E6F8D"/>
<path d="M11.6712 45.8062C12.4396 45.8062 13.0217 46.3423 13.0217 47.0883C13.045 47.8575 12.4628 48.417 11.6246 48.417C10.8329 48.417 10.2741 47.8808 10.2741 47.1349C10.2508 46.3656 10.8562 45.8062 11.6712 45.8062Z" fill="#3E6F8D"/>
<path d="M17.7247 47.1582C17.7014 47.9275 17.096 48.4403 16.2578 48.417C15.4661 48.3704 14.9306 47.8342 14.9539 47.0883C14.9771 46.319 15.6058 45.7829 16.4208 45.8295C17.2125 45.8528 17.748 46.4123 17.7247 47.1582Z" fill="#3E6F8D"/>
<path d="M49.7413 66.5296C48.9962 66.5529 48.4141 65.9701 48.4141 65.2242C48.4141 64.5249 48.9962 63.9654 49.6947 63.9421C50.4398 63.9188 50.9987 64.5015 50.9987 65.2475C50.9754 65.9934 50.4631 66.5296 49.7413 66.5296Z" fill="#3E6F8D"/>
</g>
<defs>
<clipPath id="clip0_1509_8556">
<rect width="89.2498" height="80.6326" fill="white" transform="translate(0.75)"/>
</clipPath>
</defs>
</svg>
