<svg width="506" height="519" viewBox="0 0 506 519" fill="none" xmlns="http://www.w3.org/2000/svg">
<g opacity="0.1">
<ellipse cx="252.954" cy="259.5" rx="259.5" ry="252.954" transform="rotate(-90 252.954 259.5)" fill="#00BCD4"/>
<mask id="mask0_1008_46" style="mask-type:luminance" maskUnits="userSpaceOnUse" x="0" y="0" width="506" height="519">
<ellipse cx="252.954" cy="259.5" rx="259.5" ry="252.954" transform="rotate(-90 252.954 259.5)" fill="white"/>
</mask>
<g mask="url(#mask0_1008_46)">
<ellipse cx="310.908" cy="179.751" rx="143.806" ry="199.627" transform="rotate(59 310.908 179.751)" fill="url(#paint0_linear_1008_46)"/>
<ellipse cx="403.341" cy="319.352" rx="163.831" ry="347.129" transform="rotate(59 403.341 319.352)" fill="#E91E63"/>
<ellipse cx="65.4127" cy="236.052" rx="172.602" ry="261.791" transform="rotate(59 65.4127 236.052)" fill="url(#paint1_linear_1008_46)"/>
<ellipse cx="511.664" cy="427.41" rx="163.055" ry="345.576" transform="rotate(59 511.664 427.41)" fill="url(#paint2_linear_1008_46)"/>
<ellipse cx="517.92" cy="509.73" rx="157.145" ry="215.022" transform="rotate(59 517.92 509.73)" fill="#006064"/>
<ellipse cx="529.104" cy="648.17" rx="92.4559" ry="149.108" transform="rotate(59 529.104 648.17)" fill="#B2EBF2"/>
<ellipse cx="630.889" cy="127.993" rx="156.234" ry="117.322" transform="rotate(59 630.889 127.993)" fill="#F8BBD0"/>
</g>
</g>
<defs>
<linearGradient id="paint0_linear_1008_46" x1="229.891" y1="-132.823" x2="20.8928" y2="185.187" gradientUnits="userSpaceOnUse">
<stop stop-color="#00BCD4"/>
<stop offset="1" stop-color="#673AB7"/>
</linearGradient>
<linearGradient id="paint1_linear_1008_46" x1="64.101" y1="-132.394" x2="-207.707" y2="69.4355" gradientUnits="userSpaceOnUse">
<stop stop-color="#673AB7"/>
<stop offset="1" stop-color="#D1C4E9"/>
<stop offset="1" stop-color="#D1C4E9"/>
</linearGradient>
<linearGradient id="paint2_linear_1008_46" x1="435.996" y1="127.435" x2="128.077" y2="348.449" gradientUnits="userSpaceOnUse">
<stop stop-color="#D1C4E9"/>
<stop stop-color="#D1C4E9"/>
<stop offset="1" stop-color="#673AB7"/>
</linearGradient>
</defs>
</svg>
