<svg width="229" height="53" viewBox="0 0 229 53" fill="none" xmlns="http://www.w3.org/2000/svg">
<rect width="229" height="53" fill="white"/>
<path d="M96.6456 38.2178V39.6371H92.3875V43.7974H96.3519V45.2167H92.3875V50.576H89.9893V38.2178H96.6456Z" fill="#00573D"/>
<path d="M99.0679 36.6514L100.536 38.1197L99.0679 39.588L97.5996 38.1197L99.0679 36.6514ZM100.169 41.3255V50.5758H97.9667V41.3255H100.169Z" fill="#00573D"/>
<path d="M104.55 41.3255L104.599 43.6259C105.088 42.0597 106.042 41.1787 106.923 41.1787C107.144 41.1787 107.388 41.2032 107.78 41.3255L107.413 43.2588C107.144 43.1854 106.874 43.1365 106.679 43.1365C106.042 43.1365 105.382 43.6014 105.064 44.4335C104.745 45.2166 104.745 46.6359 104.745 47.2722V50.6004H102.543V41.35H104.55V41.3255Z" fill="#00573D"/>
<path d="M112.969 42.7693C112.43 42.5246 111.916 42.3778 111.329 42.3778C110.473 42.3778 110.057 42.8183 110.057 43.3322C110.057 43.7237 110.375 44.1397 111.133 44.6292L111.941 45.1676C112.92 45.8038 113.899 46.5869 113.899 47.9574C113.899 49.548 112.602 50.7961 110.619 50.7961C109.494 50.7961 108.613 50.4535 108.025 50.1109L108.564 48.9852C109.029 49.2299 109.738 49.5725 110.57 49.5725C111.28 49.5725 111.916 49.1809 111.916 48.4223C111.916 47.6147 111.035 47.1743 110.399 46.7338L109.665 46.2199C108.637 45.5102 108.05 44.776 108.05 43.7727C108.05 42.4022 109.322 41.2031 111.256 41.2031C111.598 41.2031 112.43 41.2276 113.434 41.6681L112.969 42.7693Z" fill="#00573D"/>
<path d="M117.52 38.8779V41.3251H119.257V42.5242H117.593V48.0059C117.593 48.789 117.593 49.4008 118.401 49.4008C118.694 49.4008 118.939 49.3274 119.11 49.254L119.429 50.4531C118.817 50.6489 118.181 50.7223 117.52 50.7223C116.639 50.7223 115.954 50.4286 115.635 49.7924C115.366 49.3029 115.391 48.6911 115.391 48.1772V42.5487H114.094V41.3496H115.489L115.538 38.9024H117.52V38.8779Z" fill="#00573D"/>
<path d="M128.899 38.2178C130.025 38.2178 131.004 38.2912 131.861 38.7562C132.668 39.1966 133.158 40.0042 133.158 41.032C133.158 42.3535 132.326 43.5771 130.564 44.0665C131.029 44.14 131.689 44.2378 132.374 44.6783C133.133 45.1922 133.598 45.9753 133.598 47.0521C133.598 48.2268 132.986 49.4014 131.787 49.9643C131.029 50.4047 130.172 50.576 128.214 50.576H125.155V38.2178H128.899ZM128.288 43.5282C128.777 43.5282 129.487 43.5282 129.976 43.259C130.564 42.9164 130.833 42.1822 130.833 41.3746C130.833 40.8607 130.71 40.2245 130.221 39.8574C129.805 39.5393 129.267 39.5393 128.459 39.5393H127.529V43.5282H128.288ZM128.459 49.2301C128.973 49.2301 129.78 49.2301 130.294 48.8875C130.931 48.4715 131.126 47.6639 131.126 46.9053C131.126 46.2445 130.955 45.5349 130.368 45.1433C129.878 44.8007 129.242 44.7762 128.288 44.7762H127.505V49.2301H128.459Z" fill="#00573D"/>
<path d="M139.716 50.6004L139.569 49.0586C138.933 50.2333 137.954 50.7961 136.853 50.7961C135.213 50.7961 134.332 49.5481 134.332 48.3C134.332 46.2933 136.363 45.5102 139.447 44.4579V44.2132C139.447 43.0141 138.761 42.5247 137.636 42.5247C136.681 42.5247 135.898 42.9162 135.36 43.2099L134.846 42.0597C135.654 41.6437 136.779 41.1787 138.125 41.1787C138.982 41.1787 140.646 41.399 141.307 42.6225C141.551 43.063 141.6 43.4791 141.6 44.4824V47.2477C141.6 48.3734 141.649 49.5236 141.869 50.6493H139.716V50.6004ZM136.461 48.0553C136.461 48.9852 137.122 49.4257 137.709 49.4257C138.345 49.4257 138.835 49.0097 139.08 48.3979C139.373 47.7372 139.422 47.003 139.422 46.0241V45.5347C137.318 46.3667 136.461 46.8806 136.461 48.0553Z" fill="#00573D"/>
<path d="M145.834 41.3256L145.907 42.9407C146.568 41.5948 147.645 41.1543 148.648 41.1543C149.896 41.1543 150.679 41.8395 151.046 42.5492C151.315 43.0876 151.34 43.8707 151.34 44.8006V50.6249H149.137V44.9719C149.137 44.3846 149.26 42.6715 147.816 42.6715C146.029 42.6715 146.078 45.29 146.078 46.171V50.6249H143.876V41.3745H145.834V41.3256Z" fill="#00573D"/>
<path d="M155.819 36.9941V45.5103L159.318 41.3257H161.08L157.727 45.0943L161.398 50.576H158.78L155.819 45.9508V50.576H153.616V36.9941H155.819Z" fill="#00573D"/>
<path d="M168.494 11.6182L165.46 10.7617C165.46 10.7617 164.652 13.576 160.981 17.0999L162.033 17.932C162.033 17.932 166.169 15.3624 168.494 11.6182ZM165.924 15.5827C165.924 15.5827 164.358 19.4737 160.688 22.9976L161.74 23.8297C161.74 23.8297 162.67 23.1445 163.918 22.0188V31.0244H166.512V19.5226C167.417 18.5682 168.274 17.4915 168.935 16.4392L165.924 15.5827ZM169.767 12.279V13.7473H180.999V12.279H169.767ZM168.739 19.18H176.57V29.5561H173.413V31.0489H177.671C178.674 31.0489 179.164 30.8776 179.164 28.7975V19.18H180.999V17.6872H168.739V19.18Z" fill="#00573D"/>
<path d="M142.897 21.6274H145.32V20.1346H142.897V18.2503H144.61V16.7575H139.055C139.838 15.9744 140.792 14.9221 141.575 13.7474C143.19 15.9254 145.222 17.0511 145.222 17.0511L145.858 16.0478C143.435 13.4538 143.166 11.1045 143.166 11.1045H140.058C140.058 11.1045 139.446 14.2858 136.559 17.3693L137.268 18.3482C137.268 18.3482 137.807 17.9321 138.541 17.2225V18.2503H140.254V20.1346H137.244V21.6274H140.254V26.2036C139.789 25.4695 138.565 23.3404 138.027 22.7776L136.975 23.3404C136.975 23.3404 138.027 26.0323 138.247 27.7698L140.229 26.5462V28.3082L136.632 29.0913L137.317 31.3182L145.124 28.6508L145.246 27.207L142.823 27.7453V21.6274H142.897ZM142.921 26.2526L144.12 26.6196C144.634 25.8365 146.005 23.3159 146.005 23.3159L143.998 22.6063C143.655 24.9311 142.921 26.2526 142.921 26.2526ZM153.713 25.1758C156.234 24.3438 157.042 23.6341 157.042 23.6341L155.745 21.7987C155.084 22.6552 154.105 23.3649 153.371 23.8298C153.224 23.0223 153.126 22.0923 153.15 21.1135H154.57C155.573 21.1135 156.063 20.9422 156.063 18.8621V11.7897H146.274V28.7976C146.274 30.8777 146.763 31.2448 147.742 31.0246C147.962 30.9756 148.134 30.9511 148.281 30.9022L152.123 30.0702V28.5774L148.892 29.2871V21.089H150.728C150.728 22.5328 151.046 28.5774 156.405 31.049L157.164 30.1436C157.139 30.1436 154.815 28.6263 153.713 25.1758ZM148.868 13.2825H153.444V15.7297H148.868V13.2825ZM148.868 19.5962V17.198H153.444V19.5962H148.868Z" fill="#00573D"/>
<path d="M101.148 23.6091V21.6269H106.776C107.78 21.6269 108.269 21.4556 108.269 19.3755V16.6591H91.3102V18.1519H98.5538V20.1341H90.0621V22.5569C90.0621 24.637 90.5515 25.1019 91.5549 25.1019H96.229C95.8619 25.8606 94.2957 27.9162 89.5971 30.0697L90.2089 31.2199C90.2089 31.2199 95.2012 30.0452 98.5538 26.2521V31.3178H101.148V25.1019H106.678V28.5525H103.35V30.0452H107.804C108.808 30.0452 109.297 29.8739 109.297 27.7938V23.6336H101.148V23.6091ZM101.148 18.1519H105.675V20.1341H101.148V18.1519ZM98.5538 23.6091H92.6561V21.6269H98.5538V23.6091ZM93.1945 13.9917H94.2468C94.516 14.3588 95.2501 15.0685 95.6662 16.2187L97.7707 15.5334C97.7707 15.5334 97.1589 14.7993 96.2535 13.9917H99.5816V12.4989H94.4915C94.7852 12.1319 95.0788 11.7403 95.3725 11.3243L92.5338 10.4678C92.5338 10.4678 92.0199 13.0128 89.4014 15.7047L90.4537 16.39C90.4292 16.39 91.4815 15.8516 93.1945 13.9917ZM100.389 16.39C100.389 16.39 101.442 15.8516 103.155 13.9917H104.207C104.476 14.3588 105.235 15.0685 105.626 16.2187L107.731 15.5334C107.046 14.7014 107.046 14.7259 106.214 13.9917H109.395V12.4989H104.452C104.745 12.1319 105.039 11.7403 105.333 11.3243L102.494 10.4678C102.494 10.4678 101.98 13.0128 99.3614 15.7047L100.389 16.39Z" fill="#00573D"/>
<path d="M132.521 20.085V22.0672H112.748V20.0605H132.521V20.085Z" fill="#00573D"/>
<path d="M61.632 14.8467L55.3516 21.1289L61.6338 27.4094L67.9143 21.1271L61.632 14.8467Z" fill="#B3863B"/>
<path d="M61.6504 14.8477L67.9397 21.1369H67.3034L61.6504 15.4839V14.8477Z" fill="#C89E4E"/>
<path d="M61.6506 15.4839L55.9731 21.1369H55.3613L61.6506 14.8477V15.4839Z" fill="#DDC39C"/>
<path d="M61.6506 27.426L55.3613 21.1367H55.9731L61.6506 26.7897V27.426Z" fill="#C89E4E"/>
<path d="M61.6504 26.7897L67.3034 21.1367H67.9397L61.6504 27.426V26.7897Z" fill="#804C2E"/>
<path d="M45.7442 20.7944C45.7442 11.2014 53.6241 3.41937 63.3394 3.41937C67.6954 3.41937 71.7088 4.98556 74.7678 7.57958L74.9146 7.43275C71.4396 4.08011 66.6431 2 61.3817 2C50.6875 2 42 10.5651 42 21.137C42 29.8734 49.1458 36.6521 57.9801 36.6521C62.7521 36.6521 67.0347 34.8412 69.9468 31.562L69.8489 31.4641C67.2794 33.6421 63.9268 34.8412 60.2315 34.8412C52.2537 34.8901 45.7442 28.7232 45.7442 20.7944Z" fill="url(#paint0_linear_1557_279)"/>
<path d="M77.5327 21.4798C77.5327 31.0728 69.6528 38.8548 59.9375 38.8548C55.5815 38.8548 51.5681 37.2886 48.5091 34.6946L48.3623 34.8414C51.8618 38.2185 56.6338 40.2742 61.8952 40.2742C72.6139 40.2742 81.2769 31.709 81.2769 21.1372C81.2769 12.4008 74.1311 5.62207 65.2968 5.62207C60.5248 5.62207 56.2422 7.43299 53.3301 10.7122L53.428 10.8101C55.973 8.58316 59.3502 7.38404 63.0209 7.38404C71.0477 7.38404 77.5327 13.5509 77.5327 21.4798Z" fill="url(#paint1_linear_1557_279)"/>
<path d="M61.4551 34.2543C54.2359 34.2543 48.1179 28.4055 48.1179 21.1864C48.1179 10.6635 55.8021 4.59445 64.9545 4.59445C68.5764 4.59445 71.929 5.74463 74.6454 7.72685L74.7677 7.62896C71.6843 5.03495 67.6954 3.46875 63.3394 3.46875C53.6241 3.46875 45.7441 11.2508 45.7441 20.8437C45.7441 28.7726 52.2292 34.9395 60.2315 34.9395C63.9267 34.9395 67.2794 33.7404 69.8489 31.5624L69.6776 31.3911C67.4507 33.1531 64.5875 34.2543 61.4551 34.2543Z" fill="url(#paint2_linear_1557_279)"/>
<path d="M63.364 3.41895C53.5997 3.41895 45.6953 11.201 45.6953 20.8184C45.6953 28.7473 52.2293 34.9142 60.2561 34.9142C63.9513 34.9142 67.3284 33.7151 69.898 31.5371L69.849 31.4881C67.3039 33.5927 64.0002 34.7184 60.3784 34.7184C52.3761 34.7184 45.8911 28.6005 45.8911 20.7695C45.9156 11.2744 53.7955 3.59025 63.4863 3.59025C67.7934 3.59025 71.7089 5.1075 74.7678 7.60363L74.7923 7.57916C71.7333 4.98514 67.72 3.41895 63.364 3.41895Z" fill="url(#paint3_linear_1557_279)"/>
<path d="M61.8224 8.02006C69.0416 8.02006 75.1595 13.8688 75.1595 21.088C75.1595 31.6109 67.4754 37.7044 58.3229 37.7044C54.7011 37.7044 51.3484 36.5297 48.6321 34.572L48.5342 34.6944C51.6176 37.2884 55.6065 38.8546 59.9625 38.8546C69.6778 38.8546 77.5578 31.0725 77.5578 21.4796C77.5578 13.5507 71.0727 7.38379 63.046 7.38379C59.3507 7.38379 55.9981 8.58291 53.4285 10.7609L53.5998 10.9322C55.8268 9.12129 58.69 8.02006 61.8224 8.02006Z" fill="url(#paint4_linear_1557_279)"/>
<path d="M59.9137 38.8546C69.678 38.8546 77.5824 31.0726 77.5824 21.4551C77.5824 13.5263 71.0484 7.35938 63.0216 7.35938C59.3264 7.35938 55.9493 8.5585 53.3552 10.7365L53.4042 10.7854C55.9493 8.68085 59.253 7.53068 62.8748 7.53068C70.8771 7.53068 77.3621 13.6486 77.3621 21.4796C77.3621 30.9747 69.5067 38.6833 59.7913 38.6833C55.4843 38.6833 51.5688 37.1661 48.5098 34.6699L48.4854 34.6944C51.5688 37.2884 55.5577 38.8546 59.9137 38.8546Z" fill="url(#paint5_linear_1557_279)"/>
<defs>
<linearGradient id="paint0_linear_1557_279" x1="46.0025" y1="32.7174" x2="72.8578" y2="5.23765" gradientUnits="userSpaceOnUse">
<stop stop-color="#B3863B"/>
<stop offset="0.1212" stop-color="#B4883E"/>
<stop offset="0.2186" stop-color="#B98E48"/>
<stop offset="0.3076" stop-color="#C09959"/>
<stop offset="0.3918" stop-color="#CAA871"/>
<stop offset="0.4717" stop-color="#D7BB8F"/>
<stop offset="0.5" stop-color="#DDC39C"/>
<stop offset="0.5283" stop-color="#D7BB8F"/>
<stop offset="0.6082" stop-color="#CAA871"/>
<stop offset="0.6924" stop-color="#C09959"/>
<stop offset="0.7814" stop-color="#B98E48"/>
<stop offset="0.8788" stop-color="#B4883E"/>
<stop offset="1" stop-color="#B3863B"/>
</linearGradient>
<linearGradient id="paint1_linear_1557_279" x1="76.9459" y1="9.62843" x2="50.7144" y2="37.0397" gradientUnits="userSpaceOnUse">
<stop stop-color="#00573D"/>
<stop offset="0.1173" stop-color="#03593F"/>
<stop offset="0.2115" stop-color="#0D6046"/>
<stop offset="0.2977" stop-color="#1E6C53"/>
<stop offset="0.3791" stop-color="#367C64"/>
<stop offset="0.4565" stop-color="#549279"/>
<stop offset="0.5" stop-color="#69A088"/>
<stop offset="0.5435" stop-color="#549279"/>
<stop offset="0.6209" stop-color="#367C64"/>
<stop offset="0.7023" stop-color="#1E6C53"/>
<stop offset="0.7885" stop-color="#0D6046"/>
<stop offset="0.8827" stop-color="#03593F"/>
<stop offset="1" stop-color="#00573D"/>
</linearGradient>
<linearGradient id="paint2_linear_1557_279" x1="62.0703" y1="4.87099" x2="57.0369" y2="28.9476" gradientUnits="userSpaceOnUse">
<stop offset="0.00549451" stop-color="#804C2E"/>
<stop offset="0.3" stop-color="#B3863B"/>
<stop offset="1" stop-color="#804C2E"/>
</linearGradient>
<linearGradient id="paint3_linear_1557_279" x1="61.7696" y1="5.2791" x2="57.2394" y2="29.3562" gradientUnits="userSpaceOnUse">
<stop stop-color="#C89E4E"/>
<stop offset="0.3" stop-color="#F4E8D0"/>
<stop offset="1" stop-color="#C89E4E"/>
</linearGradient>
<linearGradient id="paint4_linear_1557_279" x1="66.2663" y1="13.4003" x2="61.0648" y2="37.3942" gradientUnits="userSpaceOnUse">
<stop offset="0.00549451" stop-color="#004730"/>
<stop offset="0.7" stop-color="#00573D"/>
<stop offset="1" stop-color="#004730"/>
</linearGradient>
<linearGradient id="paint5_linear_1557_279" x1="61.337" y1="37.3374" x2="66.2027" y2="13.3445" gradientUnits="userSpaceOnUse">
<stop stop-color="#007559"/>
<stop offset="0.3" stop-color="#EAF5F5"/>
<stop offset="1" stop-color="#007559"/>
</linearGradient>
</defs>
</svg>
